<svg width="34" height="46" viewBox="0 0 34 46" fill="none" xmlns="http://www.w3.org/2000/svg">
<path d="M16.9344 0C7.59723 0 0 7.59723 0 16.9354C0 19.3711 0.498541 21.6967 1.48103 23.8481C5.7151 33.1132 13.833 42.8953 16.2207 45.6723C16.3996 45.88 16.6604 45.9995 16.9349 45.9995C17.2093 45.9995 17.4701 45.88 17.649 45.6723C20.0358 42.8958 28.1537 33.1142 32.3892 23.8481C33.3722 21.6967 33.8702 19.3711 33.8702 16.9354C33.8693 7.59723 26.2721 0 16.9344 0ZM16.9344 25.7316C12.0841 25.7316 8.13767 21.7852 8.13767 16.9349C8.13767 12.0841 12.0841 8.13767 16.9344 8.13767C21.7847 8.13767 25.7312 12.0841 25.7312 16.9349C25.7316 21.7852 21.7852 25.7316 16.9344 25.7316Z" fill="#46AADC"/>
</svg>
