<svg width="170" height="117" viewBox="0 0 170 117" fill="none" xmlns="http://www.w3.org/2000/svg">
<path opacity="0.7" d="M168.874 41.0906C166.619 46.2576 161.356 46.4822 157.221 45.359C157.409 46.7069 157.409 48.2794 157.409 49.4027C157.221 53.671 154.966 57.0408 152.522 59.7366C147.26 65.8022 138.989 68.2733 132.223 64.9036C132.411 68.7227 132.035 71.8678 129.968 75.0129C127.336 78.6073 122.637 80.8538 118.878 81.7524C114.931 82.8756 110.232 81.3031 106.661 79.0566C105.533 78.3826 104.594 77.484 103.842 76.5854C102.902 81.0784 101.586 84.4482 97.8272 86.4701C93.5042 88.9412 88.2415 88.7166 83.7305 87.3687C76.0244 85.1222 69.4459 78.158 67.9423 68.9473C67.0025 70.2952 65.8748 71.4185 64.935 72.3171C61.3638 76.3608 56.289 77.2594 51.4022 77.7087C42.0044 78.3826 35.238 72.991 30.7271 63.5557C27.1559 67.5994 21.1414 68.9473 16.4425 67.824C15.3147 67.5994 14.375 67.1501 13.2472 66.9254C7.60855 63.331 2.3458 59.2873 1.21807 50.9752C0.278288 43.1125 2.3458 36.1483 6.85673 30.9813C9.67606 28.5102 13.2472 27.6116 17.0063 27.8362C17.0063 26.9376 17.0063 26.039 17.1943 24.9158C18.1341 20.1981 22.2691 17.053 25.6523 15.0311C32.6066 11.2121 44.4478 9.63951 50.4624 16.8283C50.4624 16.6037 50.4624 16.6037 50.6504 16.379C51.5901 13.6832 53.2817 11.4367 55.3493 9.41486C59.1084 5.5958 64.747 3.57394 69.6339 2.00139C78.4678 -0.69442 89.5572 5.37115 92.3765 15.9297C93.1283 12.7846 95.5718 10.0888 97.6393 8.74091C101.398 6.0451 105.533 5.37115 109.856 6.49441C115.119 7.84232 120.758 12.7846 122.073 19.0748C124.893 12.7846 133.351 13.2339 138.238 15.7051C141.057 17.2776 144.252 20.1981 145.756 24.0172C147.447 21.7707 151.77 20.872 153.65 20.872C158.349 20.6474 163.048 22.6693 166.431 26.713C169.814 30.3074 171.13 36.3729 168.874 41.0906Z" fill="#EAF5FB"/>
<g clip-path="url(#clip0)" filter="url(#filter0_d)">
<path d="M73.416 15.2709L87.682 13.1677V27.6157L90.3685 28.3473L95.0003 14.3565L107.877 18.1056L104.264 29.3531L101.3 42.9781L75.7319 38.406L73.416 15.2709Z" fill="#B8D9F4"/>
<path d="M74.0645 14.9051L75.7319 38.406C75.7319 38.406 77.3067 20.5746 87.682 13.1677" fill="#8AA3B7"/>
<path d="M85.1809 96.2895C102.525 96.2895 116.585 84.253 116.585 69.4052C116.585 54.5575 102.525 42.521 85.1809 42.521C67.8371 42.521 53.7771 54.5575 53.7771 69.4052C53.7771 84.253 67.8371 96.2895 85.1809 96.2895Z" fill="#FDF0DA"/>
<path d="M111.49 51.0251C111.49 51.0251 116.399 66.479 109.915 78.9153C104.635 88.974 94.7225 95.375 83.6987 96.2894C83.6987 96.2894 105.468 96.198 114.176 79.6468C122.884 63.0956 111.49 51.0251 111.49 51.0251Z" fill="#BEB4A4"/>
<path d="M72.675 3.01761C72.675 3.10905 68.6916 1.37164 65.3567 3.93204C62.0218 6.49244 60.7249 11.7961 66.0978 9.87583C71.3781 8.04697 72.675 3.01761 72.675 3.01761Z" fill="#86CECA"/>
<path d="M111.304 2.74327C111.304 2.74327 114.917 2.56039 117.048 4.66357C119.179 6.76676 118.437 9.41861 117.418 10.4245C116.492 11.4304 111.86 8.96139 111.304 2.74327Z" fill="#86CECA"/>
<path d="M86.941 40.6922C90.4612 38.6804 99.169 37.9489 104.079 40.9665C104.079 40.9665 120.29 45.4472 124.088 43.344C124.088 43.344 114.083 60.3524 96.9457 59.9866C79.9006 59.6208 71.8412 58.0663 60.6322 57.1519C49.4232 56.2375 47.4778 49.3792 45.9956 44.7156C45.9956 44.7156 55.1666 45.2643 63.226 40.9665C74.1571 35.1141 86.941 40.6922 86.941 40.6922Z" fill="#FDB842"/>
<path d="M55.0739 70.8683C55.0739 72.7886 53.5917 74.3432 51.8316 74.3432C50.0715 74.3432 48.5894 72.7886 48.5894 70.8683C48.5894 68.948 50.0715 67.3935 51.8316 67.3935C53.6844 67.302 55.0739 68.8566 55.0739 70.8683Z" fill="#FDF0DA"/>
<path d="M121.587 72.9715C121.587 74.6175 120.29 75.9891 118.715 75.9891C117.14 75.9891 115.844 74.6175 115.844 72.9715C115.844 71.3255 117.14 69.9539 118.715 69.9539C120.383 69.9539 121.587 71.3255 121.587 72.9715Z" fill="#FDF0DA"/>
<path d="M69.1547 39.7777C68.8768 39.8692 68.5062 40.052 68.2283 40.2349C67.9504 40.3264 67.7652 40.5093 67.4872 40.6922C66.9314 40.9665 66.4682 41.2408 65.9124 41.5151C64.8934 41.9724 63.7818 42.4296 62.7628 42.8868C61.3732 43.4354 59.9837 44.0755 58.5015 44.5328C57.7604 44.8071 57.0193 44.99 56.2782 45.1729C55.5371 45.3557 54.796 45.5386 54.0549 45.6301C53.4065 45.6301 52.8507 45.7215 52.2022 45.7215C51.3685 45.813 50.6274 45.9044 49.8863 46.0873C49.701 46.0873 49.4231 46.2702 49.3305 46.4531C49.2378 46.6359 49.1452 46.9103 49.2378 47.0932C49.3305 47.276 49.4231 47.4589 49.6084 47.6418C49.7937 47.7333 50.0716 47.7333 50.2568 47.7333C50.72 47.6418 51.2758 47.5504 51.8317 47.4589C52.2948 47.3675 52.6654 47.3675 53.1286 47.3675C53.5918 47.3675 54.1476 47.276 54.6108 47.276C55.5371 47.0932 56.4635 46.9103 57.4825 46.6359C58.4089 46.3616 59.3352 46.1787 60.169 45.813C61.0953 45.4472 62.0217 45.0814 62.948 44.7156C64.1523 44.2584 65.4492 43.7098 66.5609 43.1611C67.1167 42.8868 67.6725 42.6125 68.2283 42.2467C68.7842 41.9724 69.34 41.6066 69.8032 41.2408C70.0811 41.0579 70.2663 40.6921 70.1737 40.3264C70.0811 40.1435 69.9884 39.9606 69.8032 39.7777C69.7105 39.6863 69.5252 39.6863 69.34 39.6863C69.34 39.7777 69.2473 39.7777 69.1547 39.7777Z" fill="#1C1C1C"/>
<path d="M71.7485 41.0579C71.1927 41.3322 70.7295 41.7894 70.2663 42.2466C69.8031 42.7039 69.3399 43.1611 68.8767 43.6183C68.043 44.5327 67.1166 45.3557 66.0976 46.1787C64.8007 47.0931 63.5038 48.0076 62.1143 48.8305C61.3732 49.2878 60.7247 49.6535 59.9836 50.0193C59.2425 50.3851 58.5014 50.7508 57.7604 51.1166C57.3898 51.2081 57.1119 51.3909 56.7414 51.4824C56.2782 51.5738 55.9076 51.7567 55.4444 51.8482C54.9813 51.9396 54.5181 51.9396 54.0549 51.9396C53.4991 51.9396 53.0359 52.3968 53.0359 52.9455C53.0359 53.4941 53.4991 53.9513 54.0549 53.9513C54.6107 53.9513 55.1665 53.9513 55.6297 53.8599C56.1855 53.7685 56.7414 53.677 57.2972 53.4941C57.7604 53.3112 58.2235 53.1284 58.7794 52.9455C59.2425 52.7626 59.7057 52.5797 60.0763 52.3054C61.0026 51.8482 61.929 51.2995 62.7627 50.8423C63.5965 50.3851 64.4302 49.8364 65.1713 49.2878C65.9124 48.7391 66.7461 48.1904 67.4872 47.6418C68.1357 47.0931 68.7841 46.5445 69.3399 45.9044C70.4516 44.7156 71.5632 43.4354 72.6748 42.2466C72.9528 41.9723 73.0454 41.6065 72.7675 41.2408C72.5822 40.9664 72.3043 40.875 72.0264 40.875C72.0264 40.9664 71.8411 40.9664 71.7485 41.0579Z" fill="#1C1C1C"/>
<path d="M74.9908 41.3323C74.8055 41.4237 74.6203 41.5152 74.5276 41.698C74.5276 41.698 74.5276 41.698 74.5276 41.7895C73.7865 42.7039 73.1381 43.6183 72.4896 44.5328C71.4706 45.813 70.5443 47.0017 69.4326 48.1905C68.8768 48.8306 68.321 49.3793 67.6725 49.9279C67.1167 50.4766 66.4682 51.0252 65.8198 51.5739C65.8198 51.5739 65.9124 51.5739 65.9124 51.4824C65.8198 51.5739 65.7272 51.6653 65.5419 51.7568C65.6345 51.7568 65.6345 51.6653 65.7272 51.6653C65.6345 51.7568 65.6345 51.7568 65.5419 51.7568C65.4492 51.8482 65.3566 51.8482 65.264 51.9397C64.8008 52.3054 64.245 52.5798 63.7818 52.9455C63.3186 53.2199 63.226 53.7685 63.4112 54.2257C63.6892 54.6829 64.245 54.7744 64.7082 54.5915C65.0787 54.3172 65.5419 54.1343 65.9124 53.86C66.0977 53.6771 66.3756 53.4942 66.5609 53.4027C66.6535 53.4027 66.6535 53.3113 66.7462 53.2199C66.8388 53.1284 66.9314 53.1284 66.9314 53.037C67.6725 52.4883 68.321 51.8482 68.9694 51.2081C69.6179 50.568 70.1737 50.0194 70.8222 49.2878C71.4706 48.5563 72.0264 47.9162 72.5823 47.1846C73.2307 46.3616 73.7865 45.5387 74.435 44.7157C74.7129 44.3499 74.9908 43.9841 75.1761 43.6183C75.454 43.2526 75.7319 42.8868 75.9172 42.4296C76.0098 42.2467 76.0098 42.0638 76.0098 41.8809C75.9172 41.698 75.8245 41.5152 75.6393 41.4237C75.5466 41.3323 75.3614 41.3323 75.2687 41.3323C75.0835 41.3323 75.0835 41.3323 74.9908 41.3323ZM65.6345 51.5739C65.6345 51.5739 65.7272 51.5739 65.6345 51.5739C65.7272 51.5739 65.6345 51.5739 65.6345 51.5739Z" fill="#1C1C1C"/>
<path d="M80.549 40.7836C80.0858 41.0579 79.6227 41.3322 79.2521 41.698C78.8816 41.9723 78.511 42.3381 78.2331 42.7039C77.5847 43.4354 76.9362 44.167 76.2877 44.8985C75.6393 45.7215 74.9908 46.4531 74.435 47.276C73.8792 48.099 73.3234 48.922 72.8602 49.745C72.5823 50.3851 72.3044 51.0252 72.0265 51.6653C71.8412 52.214 71.7485 52.8541 71.5633 53.4942C71.4706 53.7685 71.5633 54.0428 71.6559 54.3172C71.7485 54.5 72.0265 54.6829 72.3044 54.7744C72.8602 54.9573 73.416 54.5915 73.6013 54.0428C73.6939 53.5856 73.7866 53.037 73.9718 52.5797C74.0645 52.1225 74.2497 51.6653 74.435 51.2995C74.6203 50.8423 74.8056 50.4765 75.0835 50.0193C75.3614 49.5621 75.6393 49.1963 75.9172 48.7391C76.473 47.9161 77.1215 47.0932 77.6773 46.2702C78.2331 45.5386 78.8816 44.8071 79.4374 44.0755C79.7153 43.7098 80.0858 43.344 80.3637 43.0697C80.7343 42.7039 81.1048 42.3381 81.4754 41.9724C81.7533 41.698 81.7533 41.3322 81.568 40.9665C81.4754 40.7836 81.2901 40.6922 81.1048 40.6007C81.0122 40.6007 81.0122 40.6007 80.9196 40.6007C80.8269 40.6922 80.7343 40.7836 80.549 40.7836Z" fill="#1C1C1C"/>
<path d="M83.4208 42.7953C82.5871 44.4413 81.6607 46.0873 80.9196 47.8247C80.7343 48.2819 80.549 48.6477 80.3638 49.1049C80.1785 49.5621 80.0859 50.0193 79.9006 50.4765C79.7153 50.9337 79.6227 51.391 79.53 51.8482C79.4374 52.2139 79.3448 52.6712 79.2521 53.0369C79.0669 53.7685 78.9742 54.5915 78.8816 55.4144C78.8816 55.5059 78.8816 55.5973 78.8816 55.5973C78.8816 55.7802 78.8816 55.8717 78.9742 56.0545C79.0669 56.2374 79.2521 56.4203 79.53 56.4203C79.7153 56.5118 79.9932 56.4203 80.1785 56.3289C80.3638 56.2374 80.549 56.0545 80.549 55.7802C80.6417 55.0487 80.7343 54.4086 80.9196 53.677C81.0122 53.0369 81.1975 52.3968 81.3828 51.7567C81.5681 51.1166 81.7533 50.568 81.9386 50.0193C82.1239 49.4707 82.4018 48.8306 82.5871 48.2819C83.3281 46.7274 84.0692 45.1728 84.903 43.6183C84.9956 43.4354 85.0882 43.2525 84.9956 42.9782C84.903 42.7953 84.8103 42.6124 84.6251 42.521C84.5324 42.4295 84.3471 42.4295 84.1619 42.4295C83.7913 42.3381 83.5134 42.521 83.4208 42.7953Z" fill="#1C1C1C"/>
<path d="M85.4588 43.7098C85.1809 44.0755 84.9956 44.5328 84.7177 44.8985C84.6251 45.1729 84.5324 45.3558 84.4398 45.6301C84.3472 45.9044 84.2545 46.0873 84.1619 46.3616C84.0692 46.8188 83.9766 47.1846 83.884 47.6418C83.7913 48.099 83.7913 48.6477 83.6987 49.1049C83.6061 49.9279 83.5134 50.8423 83.5134 51.6653C83.5134 52.1225 83.5134 52.4883 83.5134 52.9455C83.5134 53.4027 83.6061 53.9514 83.6987 54.4086V54.5C83.6987 54.5915 83.6987 54.7744 83.7913 54.8658C83.884 55.0487 84.0692 55.1401 84.2545 55.2316C84.7177 55.323 85.0882 55.0487 85.2735 54.6829C85.3662 54.3172 85.3662 53.9514 85.3662 53.5856C85.3662 53.3113 85.2735 53.037 85.2735 52.6712C85.2735 52.1225 85.1809 51.5739 85.1809 51.0252C85.1809 49.9279 85.2735 48.7391 85.3662 47.6418C85.4588 47.2761 85.4588 46.9103 85.5514 46.636C85.6441 46.2702 85.7367 45.9959 85.922 45.6301C86.1072 45.2643 86.3852 44.8071 86.5704 44.4413C86.7557 44.0755 86.6631 43.6183 86.2925 43.344C86.1999 43.2526 86.0146 43.2526 85.922 43.2526C85.8293 43.344 85.5514 43.5269 85.4588 43.7098Z" fill="#1C1C1C"/>
<path d="M88.5159 43.2525C88.3306 43.7097 88.2379 44.1669 88.0527 44.6242C87.96 44.9899 87.8674 45.4471 87.8674 45.8129C87.7748 46.7273 87.6821 47.5503 87.6821 48.4648C87.6821 48.922 87.6821 49.3792 87.6821 49.8364C87.6821 50.0193 87.6821 50.2022 87.6821 50.4765C87.6821 50.568 87.6821 50.6594 87.6821 50.7508C87.6821 50.9337 87.6821 51.1166 87.7748 51.2995C87.8674 51.6653 87.96 52.1225 88.0527 52.4883C88.1453 52.9455 88.3306 53.3112 88.4232 53.677C88.7938 54.7743 89.3496 55.7802 89.8128 56.7861C90.0907 57.2433 90.276 57.7919 90.5539 58.2492C90.6465 58.5235 90.8318 58.7064 91.017 58.8893C91.1097 59.0721 91.2023 59.1636 91.295 59.3465C91.3876 59.4379 91.4802 59.5294 91.6655 59.6208C91.9434 59.8037 92.2213 59.8037 92.4992 59.7122C92.5919 59.7122 92.7771 59.6208 92.8698 59.5294C93.0551 59.3465 93.1477 59.1636 93.1477 58.9807C93.1477 58.7064 92.9624 58.432 92.7771 58.3406C92.5919 57.9748 92.314 57.6091 92.1287 57.2433C91.8508 56.7861 91.6655 56.4203 91.4802 55.9631C91.1097 55.1401 90.6465 54.3171 90.3686 53.4941C90.1833 53.0369 89.998 52.4883 89.8128 52.031C89.6275 51.4824 89.5349 51.2081 89.5349 50.9337C89.4422 50.6594 89.4422 50.4765 89.4422 50.2022C89.3496 48.6477 89.3496 47.0931 89.5349 45.63C89.6275 45.3557 89.6275 44.9899 89.7201 44.7156C89.8128 44.3498 89.9054 43.9841 90.0907 43.6183C90.1833 43.2525 89.9054 42.7953 89.5349 42.7039C89.4422 42.7039 89.4422 42.7039 89.3496 42.7039C88.979 42.7039 88.7011 42.9782 88.5159 43.2525Z" fill="#1C1C1C"/>
<path d="M92.314 44.2583C92.2213 44.7156 92.0361 45.2642 91.9434 45.8129C91.8508 46.2701 91.7582 46.8187 91.7582 47.3674C91.7582 47.8246 91.6655 48.2818 91.6655 48.8305C91.6655 49.3792 91.7582 49.8364 91.8508 50.385C91.9434 50.8422 92.0361 51.2995 92.1287 51.7567C92.2213 52.2139 92.4066 52.6711 92.5919 53.1283C92.9624 54.0427 93.4256 54.9572 93.8888 55.7802C94.352 56.4203 94.8152 57.0604 95.371 57.609C95.9268 58.1577 96.39 58.7063 97.0384 59.0721C97.409 59.255 97.7795 59.1636 98.0575 58.9807C98.428 58.6149 98.3354 58.0662 98.0575 57.7919C97.6869 57.4261 97.3164 57.0604 97.0384 56.6946C96.6679 56.3288 96.39 55.963 96.0194 55.5058C95.7415 55.0486 95.371 54.6828 95.0931 54.2256C94.8152 53.7684 94.5373 53.2198 94.352 52.6711C94.1667 52.2139 93.9814 51.6652 93.8888 51.1166C93.7962 50.5679 93.6109 50.0193 93.5183 49.4706C93.4256 49.0134 93.4256 48.5562 93.4256 48.1904C93.4256 47.7332 93.5183 47.276 93.5183 46.8188C93.5183 46.5444 93.6109 46.2701 93.7035 45.9958C93.7962 45.63 93.8888 45.2642 93.9814 44.8984C94.0741 44.4412 93.7962 43.984 93.333 43.8011C93.2403 43.8011 93.1477 43.8011 93.1477 43.8011C92.7772 43.6182 92.4066 43.8926 92.314 44.2583Z" fill="#1C1C1C"/>
<path d="M96.3898 45.3557C96.2046 45.5386 96.2046 45.7215 96.1119 45.9044C96.1119 46.3616 96.0193 46.7274 96.0193 47.1846C96.0193 47.3675 96.0193 47.5504 96.0193 47.7332C96.0193 47.9161 96.1119 48.1905 96.1119 48.3733C96.2046 48.5562 96.2046 48.7391 96.2972 48.922C96.5751 49.6535 96.9457 50.4765 97.3162 51.2081C97.6867 51.9396 98.0573 52.5797 98.4278 53.2198C98.7057 53.5856 98.9837 53.9514 99.2616 54.2257C99.5395 54.5 99.7248 54.7744 100.003 55.0487C100.466 55.5059 101.022 55.8717 101.577 56.2374C101.855 56.4203 102.041 56.6032 102.319 56.6947C102.596 56.8775 102.874 57.0604 103.152 57.1519C103.338 57.2433 103.523 57.2433 103.708 57.2433C103.893 57.1519 103.986 57.0604 104.079 56.969C104.171 56.7861 104.171 56.6032 104.171 56.4203C104.079 56.2374 103.986 56.146 103.893 56.0546C103.245 55.5973 102.596 55.1401 101.948 54.6829C101.67 54.4086 101.3 54.2257 101.022 53.9514C100.744 53.677 100.466 53.4027 100.188 53.0369C99.7248 52.3968 99.3542 51.7567 98.9837 51.1166C98.6131 50.4765 98.3352 49.745 98.0573 49.1049C97.872 48.6477 97.6867 48.1905 97.5941 47.7332C97.5015 47.1846 97.5941 46.6359 97.6867 46.0873C97.6867 45.9044 97.5941 45.6301 97.4088 45.5386C97.2236 45.3557 97.0383 45.2643 96.853 45.2643C96.6677 45.2643 96.4825 45.2643 96.3898 45.3557Z" fill="#1C1C1C"/>
<path d="M99.5395 45.2643C99.3543 45.3558 99.169 45.5386 99.169 45.7215C99.0764 45.9959 99.169 46.1787 99.2616 46.3616C99.5395 46.9103 99.7248 47.4589 100.003 47.9162C100.281 48.3734 100.559 48.922 100.836 49.3792C101.114 49.8365 101.485 50.2937 101.855 50.7509C102.226 51.2081 102.689 51.5739 103.152 51.9396C103.152 51.9396 103.06 51.9396 103.06 51.8482L103.152 51.9396C103.152 51.9396 103.245 51.9396 103.245 52.0311C103.245 52.0311 103.245 52.0311 103.152 51.9396L103.245 52.0311L103.338 52.1225C104.079 52.6712 104.912 53.2198 105.746 53.7685C106.117 54.0428 106.487 54.2257 106.95 54.5C107.136 54.5915 107.321 54.7744 107.599 54.8658C107.692 54.9573 107.784 54.9573 107.877 55.0487C107.969 55.0487 108.062 55.1401 108.062 55.1401C108.155 55.2316 108.247 55.2316 108.34 55.2316C108.433 55.2316 108.525 55.2316 108.618 55.2316C108.896 55.2316 109.266 54.9573 109.266 54.6829C109.359 54.4086 109.174 54.0428 108.896 53.8599C108.711 53.6771 108.433 53.4942 108.247 53.3113C108.062 53.2198 107.877 53.037 107.692 52.9455C107.321 52.6712 106.858 52.4883 106.487 52.214C105.654 51.7568 104.912 51.2081 104.171 50.6594C103.893 50.4766 103.616 50.2022 103.338 49.9279C103.152 49.745 102.874 49.4707 102.689 49.1964C102.319 48.6477 101.855 48.0076 101.578 47.4589C101.207 46.8188 100.929 46.1787 100.559 45.4472C100.466 45.2643 100.281 45.0814 100.095 45.0814C100.003 45.0814 99.9101 45.0814 99.9101 45.0814C99.8174 45.1729 99.7248 45.1729 99.5395 45.2643ZM103.616 52.3054C103.616 52.214 103.523 52.214 103.616 52.3054C103.523 52.214 103.616 52.214 103.616 52.3054ZM103.43 52.1225C103.523 52.214 103.523 52.214 103.43 52.1225C103.523 52.214 103.43 52.1225 103.43 52.1225ZM103.523 52.214C103.43 52.1225 103.43 52.1225 103.523 52.214C103.43 52.1225 103.43 52.214 103.523 52.214ZM103.43 52.1225C103.43 52.1225 103.338 52.1225 103.43 52.1225C103.338 52.1225 103.43 52.1225 103.43 52.1225ZM103.338 52.0311C103.338 52.0311 103.245 52.0311 103.338 52.0311C103.245 52.0311 103.338 52.0311 103.338 52.0311Z" fill="#1C1C1C"/>
<path d="M102.596 45.8129C102.319 46.2701 102.504 46.7274 102.874 47.0017C103.245 47.276 103.708 47.5503 104.079 47.7332C104.449 48.0076 104.82 48.1904 105.283 48.3733C106.024 48.8305 106.858 49.2878 107.599 49.745C108.433 50.2022 109.266 50.4765 110.193 50.7508C110.656 50.8423 111.119 50.9337 111.49 51.0252C111.953 51.1166 112.509 51.1166 112.972 51.1166C113.435 51.1166 113.898 51.1166 114.361 51.1166C114.547 51.1166 114.824 51.1166 115.01 51.1166C115.195 51.1166 115.38 51.1166 115.473 51.1166C115.566 51.1166 115.751 51.0252 115.843 51.0252C116.029 50.9337 116.121 50.7509 116.214 50.6594C116.399 50.4765 116.307 50.1107 116.214 49.9279C116.029 49.6535 115.658 49.4706 115.38 49.5621C115.102 49.5621 114.732 49.4706 114.454 49.4706C114.176 49.4706 113.898 49.4706 113.528 49.3792C112.972 49.3792 112.323 49.2878 111.767 49.1963C111.304 49.1049 110.841 49.0134 110.378 48.922C109.915 48.8305 109.544 48.6477 109.081 48.4648C108.618 48.2819 108.247 48.099 107.784 47.8247C107.321 47.5503 106.858 47.3675 106.395 47.0931C105.931 46.8188 105.468 46.6359 105.005 46.3616C104.542 46.0873 104.079 45.8129 103.523 45.4472C103.43 45.3557 103.245 45.3557 103.06 45.3557C103.06 45.3557 102.689 45.5386 102.596 45.8129Z" fill="#1C1C1C"/>
<path d="M104.542 43.1611C104.357 43.2525 104.171 43.5268 104.079 43.7097C103.986 43.984 104.079 44.2584 104.171 44.4413C104.264 44.6241 104.542 44.807 104.727 44.8985C105.839 45.0814 106.858 45.2642 107.877 45.4471C108.803 45.63 109.822 45.9043 110.748 45.9958C111.304 46.0872 111.953 46.1787 112.509 46.1787C112.972 46.1787 113.528 46.1787 113.991 46.0872C115.01 45.9958 116.029 45.8129 117.048 45.63C117.233 45.63 117.418 45.5386 117.604 45.5386C117.974 45.4471 118.252 45.0814 118.252 44.6241C118.252 44.1669 117.789 43.7097 117.326 43.7097C116.307 43.7097 115.38 43.8926 114.361 43.984C113.898 44.0755 113.435 44.0755 112.972 44.0755C112.416 44.0755 111.953 44.0755 111.397 43.984C110.378 43.8012 109.452 43.6183 108.433 43.4354C107.321 43.2525 106.209 43.0696 105.005 42.7953C104.912 42.7953 104.82 42.7953 104.727 42.7953C104.82 43.0696 104.727 43.0696 104.542 43.1611Z" fill="#1C1C1C"/>
<path d="M86.8483 12.4363C86.3851 12.4363 86.0145 12.5277 85.5513 12.5277C84.5323 12.6192 83.606 12.8935 82.587 13.0764C81.6606 13.2593 80.7342 13.5336 79.8079 13.625C79.7152 13.625 79.6226 13.625 79.53 13.625C78.6036 13.7165 77.5846 13.8079 76.6582 14.0823C76.1951 14.1737 75.8245 14.2652 75.3613 14.448C74.8981 14.5395 74.5276 14.7224 74.0644 14.9053C73.7865 14.9967 73.6012 15.0881 73.416 15.271C73.2307 15.4539 73.0454 15.7282 73.0454 16.0026C73.0454 16.2769 73.138 16.5512 73.2307 16.7341C73.3233 17.1913 73.416 17.5571 73.5086 18.0143C73.6012 18.8373 73.7865 19.7517 73.8791 20.5747C74.157 22.4036 74.3423 24.2324 74.5276 26.0613C74.6202 26.9757 74.7129 27.8902 74.8981 28.8046C74.9908 29.719 75.1761 30.7249 75.2687 31.6393C75.3613 32.6452 75.3613 33.6511 75.3613 34.5655C75.3613 35.6628 75.454 36.6687 75.5466 37.766C75.5466 37.9489 75.6392 38.1318 75.7319 38.2232C75.8245 38.3146 76.0098 38.4061 76.1951 38.4061C76.5656 38.4061 76.9361 38.0403 76.9361 37.6745C76.8435 36.6687 76.7509 35.7542 76.7509 34.7484C76.7509 33.7425 76.7509 32.8281 76.6582 31.8222C76.5656 30.9078 76.473 30.0848 76.3803 29.1704C76.2877 28.2559 76.1951 27.25 76.0098 26.3356C75.8245 24.5068 75.6392 22.7693 75.454 20.9405C75.3613 20.0261 75.1761 19.0202 75.0834 18.1058C74.9908 17.6485 74.9908 17.2828 74.8981 16.8256C74.8981 16.5512 74.8055 16.3683 74.7129 16.094C75.1761 15.9111 75.7319 15.7282 76.1951 15.6368C76.7509 15.4539 77.3993 15.3625 77.9551 15.271C78.511 15.1796 79.0668 15.1796 79.7152 15.0881C80.3637 14.9967 81.0122 14.9053 81.7532 14.8138C82.8649 14.6309 83.9765 14.3566 85.0882 14.1737C85.5513 14.0823 85.9219 14.0823 86.3851 14.0823C86.5703 14.0823 86.8483 14.0823 87.0335 14.0823H87.1262C87.2188 14.9053 87.2188 15.7282 87.2188 16.4598C87.2188 17.3742 87.3114 18.2886 87.3114 19.2031C87.3114 21.1234 87.3114 22.9522 87.1262 24.8725C87.1262 25.3297 87.0335 25.6955 87.0335 26.1527C87.0335 26.61 86.9409 27.0672 86.9409 27.5244C86.9409 27.7987 87.0335 27.9816 87.1262 28.1645C87.2188 28.3474 87.4041 28.4388 87.4967 28.5303C87.5894 28.6217 87.682 28.6217 87.7746 28.7131C88.0525 28.8046 88.2378 28.896 88.5157 28.9875C88.8863 29.0789 89.3494 29.1704 89.72 29.1704C89.8126 29.1704 89.9053 29.1704 89.9979 29.1704C90.3685 29.2618 90.739 29.2618 91.1095 29.0789C91.6654 28.8046 91.9433 28.2559 92.1285 27.7073C92.3138 27.25 92.4065 26.8843 92.4991 26.4271C92.6844 25.5126 92.9623 24.5068 93.1476 23.5923C93.5181 21.7635 93.796 19.9346 94.2592 18.1058C94.5371 17.3742 94.7224 16.4598 95.0929 15.5454C95.0929 15.5454 95.0929 15.5454 95.0929 15.4539C95.2782 15.4539 95.4635 15.4539 95.6487 15.4539C96.2972 15.5454 97.0383 15.8197 97.6867 16.0026C98.5205 16.3683 99.3542 16.7341 100.281 17.0084C100.744 17.0999 101.207 17.2828 101.577 17.3742C102.041 17.4657 102.411 17.6485 102.874 17.74C103.708 17.9229 104.449 18.1972 105.283 18.3801C105.931 18.563 106.672 18.7459 107.321 18.9287C107.136 19.6603 106.95 20.3918 106.672 21.1234C106.302 22.0378 105.931 22.8608 105.653 23.7752C105.005 25.5126 104.264 27.2501 103.523 28.9875C103.152 29.9019 102.782 30.7249 102.504 31.6393C102.133 32.5537 101.855 33.3767 101.577 34.2912C101.3 35.2056 101.114 36.0286 100.836 36.943C100.558 37.8574 100.373 38.6804 100.188 39.5948C100.095 40.0521 100.095 40.5093 100.003 40.9665C100.003 41.1494 99.91 41.3323 99.91 41.5152C99.91 41.6066 99.91 41.698 99.91 41.7895V41.8809C99.91 42.0638 99.91 42.1553 100.003 42.3381C100.003 42.4296 100.095 42.521 100.095 42.521C100.188 42.7039 100.281 42.7954 100.466 42.8868C100.651 42.9782 100.929 43.0697 101.207 42.9782C101.3 42.9782 101.485 42.8868 101.577 42.7954C101.763 42.7039 101.855 42.6125 101.948 42.4296C102.226 42.1553 102.319 41.698 102.133 41.3323C102.133 41.3323 102.133 41.2408 102.041 41.2408C102.041 40.875 102.133 40.6007 102.133 40.2349C102.226 39.412 102.504 38.4975 102.689 37.6745C102.967 36.7601 103.152 35.9371 103.43 35.0227C103.708 34.1083 103.986 33.2853 104.264 32.3709C104.542 31.4564 104.912 30.6334 105.19 29.719C105.561 28.896 105.839 27.9816 106.209 27.1586C106.58 26.2442 106.858 25.4212 107.228 24.5068C107.599 23.5923 107.877 22.7693 108.247 21.8549C108.618 21.0319 108.896 20.1175 109.081 19.2945C109.174 19.0202 109.174 18.6544 109.174 18.3801C109.174 18.0143 109.081 17.74 108.803 17.4657C108.618 17.2828 108.433 17.1913 108.155 17.0999C107.969 17.0084 107.784 17.0084 107.599 16.917C107.414 16.8256 107.228 16.8256 107.043 16.7341C106.672 16.6427 106.209 16.4598 105.839 16.3683C105.468 16.2769 105.005 16.1855 104.634 16.0026C104.264 15.9111 103.801 15.7282 103.43 15.6368C102.967 15.5454 102.596 15.4539 102.226 15.271C101.392 14.9967 100.466 14.8138 99.6321 14.448C99.4468 14.3566 99.3542 14.3566 99.1689 14.2652C98.7057 14.0823 98.2426 13.8994 97.7794 13.7165C97.3162 13.5336 96.853 13.4422 96.4825 13.3507C96.0193 13.2593 95.4635 13.1678 95.0003 13.2593C94.5371 13.3507 94.0739 13.4422 93.7034 13.8079C93.4255 14.0823 93.3328 14.448 93.2402 14.8138C93.1475 15.1796 92.9623 15.6368 92.8696 16.0026C92.777 16.4598 92.5917 16.8256 92.4991 17.2828C92.3138 18.1972 92.0359 19.1116 91.8506 20.0261C91.5727 21.2148 91.2948 22.495 91.0169 23.6838C90.8316 24.3239 90.739 24.964 90.5537 25.6041C90.3685 26.2442 90.2758 26.7928 89.9979 27.4329C89.9053 27.4329 89.8126 27.4329 89.72 27.4329C89.3494 27.3415 88.8863 27.3415 88.5157 27.1586C88.5157 26.7928 88.5157 26.5185 88.6084 26.1527C88.6084 25.6955 88.701 25.2383 88.701 24.7811C88.7936 23.8667 88.8863 22.9522 88.8863 22.0378C88.9789 20.1175 88.9789 18.2886 88.8863 16.3683C88.8863 15.9111 88.8863 15.4539 88.8863 14.9967C88.8863 14.448 88.8863 13.8994 88.701 13.3507C88.701 13.1678 88.6084 12.9849 88.5157 12.8935C88.4231 12.8021 88.2378 12.5277 88.1452 12.5277C88.0525 12.4363 87.8673 12.4363 87.7746 12.3448C87.682 12.3448 87.4967 12.3448 87.4041 12.3448H87.3114C87.2188 12.3448 87.0335 12.3448 86.8483 12.4363Z" fill="#1C1C1C"/>
<path d="M111.304 2.46892C111.304 2.56036 111.304 2.65181 111.304 2.74325C111.212 2.74325 111.212 2.74325 111.119 2.83469C110.934 2.92614 110.748 3.20046 110.656 3.38335C110.471 3.56624 110.285 3.84057 110.193 4.11489C109.915 4.48067 109.637 4.84644 109.452 5.21221C108.896 5.94375 108.433 6.76674 107.969 7.49828C107.043 9.05281 106.302 10.7902 105.561 12.4362C105.098 13.4421 104.634 14.4479 104.171 15.4538C104.079 15.7281 103.986 15.911 104.079 16.1854C104.171 16.4597 104.357 16.6426 104.542 16.734C104.727 16.8255 105.098 16.9169 105.283 16.8255C105.468 16.734 105.746 16.5511 105.839 16.3682C106.672 14.7223 107.414 13.0763 108.155 11.3389C108.525 10.5159 108.896 9.69291 109.359 8.86993C109.822 8.04694 110.285 7.3154 110.748 6.49241C110.934 6.30953 111.026 6.0352 111.212 5.85231C111.304 5.94375 111.304 6.12664 111.397 6.21808C111.767 7.13251 112.231 7.9555 112.786 8.77848C113.064 9.14426 113.342 9.51003 113.62 9.8758C113.898 10.2416 114.269 10.5159 114.639 10.6988C114.824 10.7902 115.01 10.9731 115.195 11.0646C115.38 11.156 115.566 11.2474 115.751 11.3389C116.029 11.4303 116.307 11.4303 116.585 11.5218C117.048 11.5218 117.511 11.4303 117.974 11.2474C118.437 11.0646 118.715 10.6073 118.993 10.2416C119.271 9.69291 119.364 9.14426 119.456 8.5956C119.549 8.04694 119.456 7.49828 119.364 6.85818C119.271 6.21808 118.901 5.66942 118.623 5.21221C118.345 4.75499 117.974 4.38922 117.604 4.11489C117.233 3.74912 116.863 3.47479 116.399 3.20046C116.029 2.92614 115.566 2.74325 115.195 2.56036C114.732 2.37748 114.361 2.28603 113.898 2.19459C113.342 2.10315 112.879 2.01171 112.323 2.01171C111.767 1.92026 111.397 2.10315 111.304 2.46892ZM112.323 3.93201C112.323 3.74912 112.323 3.65768 112.323 3.47479C112.416 3.47479 112.509 3.47479 112.509 3.47479C112.416 3.47479 112.416 3.47479 112.323 3.47479C112.694 3.47479 112.972 3.56624 113.342 3.65768C113.713 3.74912 114.083 3.84057 114.454 3.93201C115.01 4.20634 115.566 4.48067 116.029 4.84644C116.214 5.02932 116.399 5.12077 116.585 5.30365C116.77 5.48654 116.863 5.66942 117.048 5.76087C117.326 6.12664 117.418 6.40097 117.604 6.58385C117.696 6.85818 117.789 7.04107 117.789 7.3154C117.789 7.58973 117.789 7.9555 117.789 8.22983C117.696 8.50416 117.696 8.77848 117.604 9.05281C117.511 9.14426 117.511 9.32714 117.418 9.41859C117.418 9.51003 117.326 9.51003 117.233 9.60147C117.14 9.60147 117.14 9.69291 117.048 9.69291C116.955 9.69291 116.77 9.78436 116.677 9.78436C116.585 9.78436 116.492 9.78436 116.399 9.78436C116.307 9.78436 116.214 9.69291 116.121 9.69291C115.751 9.51003 115.38 9.32714 115.102 9.05281C114.917 8.86993 114.639 8.68704 114.454 8.41271C113.805 7.49828 113.25 6.58385 112.786 5.57798C112.601 5.12077 112.416 4.75499 112.416 4.20634C112.416 4.20634 112.416 4.11489 112.323 3.93201Z" fill="#1C1C1C"/>
<path d="M73.416 1.82886C73.138 1.9203 72.9528 2.10319 72.7675 2.28607C72.5822 2.5604 72.5822 2.74329 72.6749 3.01762C72.8601 4.11493 73.138 5.1208 73.416 6.21812C73.6939 7.13255 73.8791 8.13842 74.157 9.05285C74.435 10.0587 74.6202 11.0646 74.8981 12.0705C74.9908 12.5277 75.1761 12.9849 75.3613 13.4421C75.5466 13.9908 75.7319 14.448 76.0098 14.9966C76.1024 15.0881 76.1024 15.1795 76.1951 15.3624C76.2877 15.4539 76.3803 15.5453 76.3803 15.6367C76.5656 15.8196 76.6582 15.8196 76.8435 15.9111C77.2141 16.0025 77.5846 15.9111 77.7699 15.6367C77.8625 15.5453 77.8625 15.4539 77.9551 15.3624C78.0478 15.271 78.0478 15.1795 78.0478 15.0881C78.0478 14.9966 78.0478 14.9052 78.0478 14.9052C78.0478 14.8138 78.0478 14.6309 78.1404 14.5394C78.1404 14.3565 78.1404 14.2651 78.0478 14.0822C77.9551 13.8993 77.7699 13.7164 77.5846 13.7164C77.3067 13.0763 77.0288 12.4362 76.8435 11.7961C76.5656 10.7903 76.3803 9.87584 76.1024 8.86996C75.8245 7.86409 75.5466 6.85822 75.3613 5.85235C75.0834 4.84647 74.8981 3.93205 74.7129 2.92617C74.7129 2.83473 74.7129 2.74329 74.6202 2.5604C74.5276 2.10319 74.0644 1.82886 73.6012 1.82886C73.5086 1.82886 73.416 1.82886 73.416 1.82886Z" fill="#1C1C1C"/>
<path d="M69.062 2.01172C68.321 2.10316 67.4872 2.28605 66.7461 2.56038C66.005 2.83471 65.2639 3.29192 64.5229 3.74913C64.1523 4.02346 63.7818 4.29779 63.5039 4.57212C63.2259 4.84645 62.8554 5.12078 62.6701 5.48655C62.3922 5.85232 62.2069 6.12665 62.0217 6.49242C61.8364 6.94964 61.6511 7.4983 61.6511 8.04695C61.6511 8.32128 61.6511 8.50417 61.6511 8.7785C61.6511 9.05283 61.7438 9.23571 61.8364 9.51004C61.929 9.69293 62.0217 9.87581 62.1143 10.0587C62.2996 10.2416 62.3922 10.4245 62.5775 10.6074C62.8554 10.7902 63.2259 10.9731 63.5965 11.0646C64.2449 11.2475 64.986 11.2475 65.6345 11.156C66.005 11.0646 66.4682 10.9731 66.8388 10.8817C67.6725 10.6074 68.4136 10.2416 69.2473 9.87581C69.7105 9.69293 70.0811 9.32716 70.4516 9.05283C70.8221 8.7785 71.1001 8.41273 71.378 8.1384C71.7485 7.77262 72.0264 7.40685 72.3043 6.94964C72.5822 6.58387 72.7675 6.12665 72.9528 5.66944C73.0454 5.39511 73.1381 5.12078 73.3233 4.84645C73.3233 4.75501 73.416 4.57212 73.416 4.48068C73.416 4.38924 73.5086 4.20635 73.5086 4.11491C73.6012 3.74913 73.5086 3.38336 73.1381 3.20048C73.0454 3.10903 72.8601 3.10903 72.7675 3.10903C72.6749 2.92615 72.5822 2.83471 72.397 2.83471C72.0264 2.65182 71.5632 2.56038 71.1927 2.46893C71.0074 2.37749 70.8221 2.37749 70.6369 2.28605C70.359 2.1946 69.9884 2.1946 69.7105 2.1946C69.4326 2.01172 69.2473 2.01172 69.062 2.01172ZM70.0811 3.10903C70.6369 3.20048 71.1927 3.38336 71.7485 3.56625C71.6559 3.74913 71.5632 3.93202 71.5632 4.02346C71.4706 4.20635 71.378 4.48068 71.2853 4.66356C71.1927 4.93789 71.0074 5.21222 70.9148 5.39511C70.7295 5.66944 70.6369 5.94377 70.4516 6.12665C70.2663 6.40098 69.9884 6.67531 69.7105 6.94964C69.5252 7.22397 69.2473 7.40685 68.9694 7.58974C68.7841 7.68118 68.6915 7.77262 68.5062 7.86407C68.321 7.95551 68.1357 8.04695 67.9504 8.1384C67.5799 8.32128 67.302 8.41273 66.9314 8.59561C66.6535 8.68705 66.283 8.86994 65.9124 8.96138C65.6345 9.05283 65.2639 9.14427 64.986 9.14427C64.7081 9.14427 64.4302 9.14427 64.1523 9.14427C63.967 9.14427 63.6891 9.05283 63.5039 8.96138C63.5965 9.14427 63.5039 9.14427 63.5039 9.14427L63.4112 9.05283C63.4112 9.05283 63.4112 8.96138 63.3186 8.96138C63.2259 8.7785 63.2259 8.59561 63.2259 8.50417C63.2259 8.32128 63.2259 8.04695 63.2259 7.86407C63.2259 7.77262 63.2259 7.58974 63.3186 7.4983C63.3186 7.31541 63.4112 7.22397 63.5039 7.04108C63.6891 6.76675 63.7818 6.49242 63.967 6.21809C64.3376 5.85232 64.7081 5.48655 65.0787 5.21222C65.4492 4.93789 65.8198 4.66356 66.283 4.38924C66.6535 4.11491 67.1167 3.93202 67.4872 3.74913C67.7651 3.65769 68.043 3.56625 68.321 3.47481C68.5989 3.38336 68.9694 3.29192 69.2473 3.29192C69.4326 3.10903 69.8031 3.10903 70.0811 3.10903ZM72.9528 5.57799C72.9528 5.57799 72.9528 5.48655 73.0454 5.39511C73.0454 5.48655 72.9528 5.48655 72.9528 5.57799Z" fill="#1C1C1C"/>
<path d="M106.487 105.982C106.395 105.799 106.395 105.525 106.395 105.342C106.302 105.068 106.302 104.885 106.209 104.611C106.024 104.153 105.931 103.605 105.746 103.148C105.468 102.05 105.283 100.953 105.098 99.9471C104.912 98.8498 104.727 97.8439 104.635 96.7466C104.449 95.7407 104.357 94.8263 104.171 93.8204C104.079 93.2718 104.079 92.7231 104.079 92.1745C104.079 91.5344 104.079 90.8943 104.079 90.2542C103.338 90.7114 102.782 91.26 101.855 91.4429C101.763 91.4429 101.763 91.4429 101.67 91.4429C101.67 92.1745 101.67 92.906 101.763 93.5461C101.855 94.7349 102.133 95.9236 102.319 97.0209C102.504 98.1182 102.689 99.1241 102.874 100.221C103.06 101.319 103.245 102.416 103.616 103.513C103.801 104.062 103.986 104.611 104.171 105.068C104.264 105.342 104.357 105.617 104.449 105.799C104.449 105.891 104.542 106.074 104.542 106.165C104.635 106.531 104.912 106.805 105.19 106.988C105.561 107.263 106.024 107.171 106.395 106.805C106.487 106.714 106.58 106.531 106.673 106.348C106.673 106.44 106.58 106.165 106.487 105.982Z" fill="#1C1C1C"/>
<path d="M110.378 107.811C109.73 107.811 109.174 107.903 108.618 108.086C108.062 108.177 107.506 108.36 106.951 108.451C106.302 108.634 105.932 109.366 106.117 110.006C106.209 110.28 106.395 110.555 106.673 110.737C106.951 110.92 107.321 110.92 107.599 110.829C108.155 110.737 108.618 110.646 109.174 110.463C109.544 110.372 110.008 110.28 110.378 110.189C111.027 110.097 111.675 110.189 112.231 110.28C112.416 110.28 112.509 110.372 112.694 110.372C113.065 110.372 113.435 110.28 113.62 110.006C113.898 109.732 113.991 109.274 113.806 108.909C113.435 108.268 112.694 108.177 112.046 107.994C111.49 107.903 111.027 107.811 110.471 107.811C110.471 107.811 110.378 107.811 110.378 107.811Z" fill="#1C1C1C"/>
<path d="M108.989 105.342C108.525 105.342 108.155 105.708 108.155 106.165C108.155 106.623 108.525 107.08 108.989 106.988C109.637 106.988 110.378 106.897 111.027 106.897C111.582 106.897 112.138 106.897 112.694 106.897C112.972 106.988 113.157 106.988 113.435 107.08C113.528 107.08 113.62 107.171 113.806 107.171C114.176 107.354 114.639 107.263 114.917 106.988C115.103 106.805 115.103 106.623 115.103 106.348C115.01 106.165 114.917 105.982 114.732 105.891C114.732 105.891 114.732 105.891 114.639 105.891C114.547 105.8 114.454 105.8 114.361 105.708C114.269 105.617 114.176 105.617 114.084 105.617C113.806 105.525 113.62 105.434 113.342 105.342C112.879 105.159 112.323 105.159 111.86 105.159C111.768 105.159 111.768 105.159 111.675 105.159C110.749 105.251 109.915 105.251 108.989 105.342Z" fill="#1C1C1C"/>
<path d="M112.045 103.331C111.397 103.331 110.841 103.513 110.193 103.605C109.637 103.696 109.359 104.336 109.544 104.794C109.637 105.068 109.729 105.251 110.007 105.342C110.285 105.434 110.471 105.525 110.748 105.434C111.119 105.342 111.49 105.251 111.767 105.251C111.953 105.251 112.138 105.251 112.416 105.251C112.694 105.251 112.879 105.251 113.157 105.342C113.435 105.342 113.713 105.434 113.991 105.525C114.269 105.617 114.639 105.708 114.917 105.8C115.288 105.982 115.658 106.165 116.121 106.257C116.214 106.257 116.399 106.257 116.492 106.257C116.677 106.165 116.863 106.074 116.955 105.891C117.14 105.525 117.048 105.068 116.677 104.885L116.585 104.794C116.585 104.794 116.677 104.794 116.677 104.885C116.492 104.702 116.307 104.611 116.029 104.428C115.844 104.336 115.566 104.245 115.38 104.154C115.102 104.062 114.825 103.879 114.547 103.788C114.269 103.696 114.083 103.696 113.806 103.605C113.528 103.513 113.25 103.513 112.879 103.513C112.694 103.513 112.416 103.513 112.231 103.513C112.138 103.331 112.045 103.331 112.045 103.331Z" fill="#1C1C1C"/>
<path d="M61.8366 86.8708C61.3734 87.6024 60.8175 88.3339 60.3544 89.1569C59.8912 89.8884 59.5206 90.62 59.2427 91.3515C58.5016 92.9061 57.9458 94.4606 57.4826 96.0151C57.0194 97.2953 56.5563 98.667 56.0931 99.9472C55.9078 100.587 55.6299 101.227 55.4446 101.867C55.352 102.233 55.2594 102.508 55.1667 102.873C55.1667 103.056 55.0741 103.148 55.0741 103.331C54.9814 103.696 54.8888 104.062 55.1667 104.428C55.2594 104.519 55.352 104.611 55.4446 104.702C55.5373 104.794 55.7225 104.794 55.8152 104.794C55.9078 104.794 56.0004 104.794 56.0931 104.702C56.1857 104.702 56.371 104.611 56.4636 104.519C56.6489 104.336 56.7415 104.154 56.7415 103.971C56.7415 103.879 56.7415 103.879 56.7415 103.788C56.7415 103.696 56.8342 103.605 56.8342 103.513C56.8342 103.331 56.9268 103.148 57.0194 102.965C57.1121 102.599 57.2047 102.142 57.39 101.776C57.6679 100.953 57.9458 100.221 58.2237 99.3985C58.7795 97.844 59.2427 96.2894 59.7985 94.7349C60.0765 93.8205 60.447 92.9061 60.8175 91.9916C61.0955 91.2601 61.466 90.62 61.8366 89.9799C62.2997 89.2483 62.7629 88.5168 63.2261 87.7852C63.4114 87.4195 63.3187 86.9623 62.9482 86.7794C62.8556 86.6879 62.6703 86.6879 62.5776 86.6879C62.2071 86.5051 62.0218 86.6879 61.8366 86.8708Z" fill="#1C1C1C"/>
<path d="M50.0717 98.7583C49.7011 98.8498 49.4232 98.8498 49.0527 98.9412C48.8674 98.9412 48.7748 99.0327 48.5895 99.0327C48.4969 99.0327 48.3116 99.1241 48.2189 99.2156C48.1263 99.2156 48.1263 99.307 48.0337 99.307C47.941 99.3984 47.941 99.3984 47.8484 99.4899C47.7558 99.5813 47.7558 99.6728 47.6631 99.7642C47.4779 100.039 47.4779 100.404 47.6631 100.679C47.7558 100.77 47.7558 100.862 47.8484 100.862C48.0337 101.044 48.1263 101.044 48.3116 101.136C48.4969 101.136 48.5895 101.136 48.7748 101.136C48.96 101.136 49.0527 101.044 49.2379 100.862C49.6085 100.77 49.8864 100.587 50.2569 100.496C50.6275 100.404 51.0907 100.313 51.5539 100.221C52.017 100.13 52.5729 100.13 53.036 100.221C53.314 100.313 53.5919 100.313 53.8698 100.404C54.4256 100.679 54.9814 100.953 55.5372 101.227C55.7225 101.319 55.9078 101.41 56.1857 101.319C56.371 101.227 56.5562 101.136 56.6489 100.953C56.8341 100.587 56.7415 100.039 56.371 99.8557C55.8151 99.5813 55.1667 99.2156 54.6109 98.9412C53.9624 98.6669 53.2213 98.484 52.4802 98.484C52.3876 98.484 52.2023 98.484 52.1097 98.484C51.276 98.5755 50.7201 98.6669 50.0717 98.7583Z" fill="#1C1C1C"/>
<path d="M53.777 101.41C53.2212 101.41 52.6654 101.41 52.1095 101.502C51.5537 101.502 51.0905 101.502 50.5347 101.502C50.0715 101.502 49.6083 101.502 49.1452 101.593C48.7746 101.593 48.4967 101.685 48.2188 101.776C47.8483 101.867 47.4777 101.959 47.1998 102.142C47.1072 102.233 47.1072 102.233 47.0145 102.325C46.9219 102.416 46.8293 102.599 46.7366 102.782C46.644 103.056 46.7366 103.331 46.8293 103.513C46.9219 103.696 47.1998 103.879 47.3851 103.971C47.5703 104.062 47.7556 103.971 47.9409 103.971C48.1262 103.879 48.3114 103.879 48.4967 103.788C48.4967 103.788 48.4967 103.788 48.5893 103.788C48.682 103.788 48.682 103.788 48.7746 103.696C48.9599 103.605 49.2378 103.605 49.4231 103.513C49.7936 103.422 50.0715 103.331 50.4421 103.331C51.6464 103.239 52.758 103.148 53.9623 103.148C54.4255 103.148 54.796 102.782 54.796 102.325C54.6107 101.867 54.2402 101.41 53.777 101.41Z" fill="#1C1C1C"/>
<path d="M52.017 103.239C51.7391 103.239 51.4612 103.331 51.1833 103.422C50.7201 103.605 50.2569 103.788 49.8863 104.062C49.4232 104.336 48.8673 104.794 48.7747 105.342C48.6821 105.617 48.7747 105.891 48.8673 106.074C49.0526 106.348 49.3305 106.531 49.7011 106.531C49.979 106.531 50.2569 106.44 50.5348 106.257C50.6274 106.165 50.8127 106.074 50.9053 105.982C51.1833 105.8 51.4612 105.708 51.7391 105.525C51.9243 105.434 52.1096 105.434 52.2949 105.342C52.4802 105.342 52.5728 105.342 52.7581 105.342C53.2213 105.434 53.5918 105.525 54.055 105.617C54.6108 105.8 55.2593 105.434 55.3519 104.885C55.5372 104.336 55.1666 103.696 54.6108 103.605C54.1476 103.513 53.6844 103.331 53.2213 103.331C52.9433 103.331 52.6654 103.239 52.3875 103.239C52.2023 103.239 52.1096 103.239 52.017 103.239Z" fill="#1C1C1C"/>
<path d="M83.9766 35.3885C83.7914 35.5713 83.6987 35.8457 83.6987 36.0286C83.6987 36.2115 83.7914 36.5772 83.9766 36.6687C84.903 37.4002 85.7367 38.0403 86.4778 38.9547C86.5705 39.0462 86.6631 39.2291 86.7557 39.3205C86.8484 39.5034 86.941 39.6863 87.0336 39.8692C87.2189 40.4178 87.4042 40.9665 87.4042 41.5151C87.4042 41.698 87.4968 41.9724 87.4968 42.1552C87.4968 42.2467 87.4968 42.2467 87.4968 42.3381C87.5895 42.6125 87.6821 42.7953 87.96 42.8868C88.3306 43.1611 88.8864 43.0697 89.1643 42.7953C89.4422 42.521 89.5348 42.2467 89.7201 41.9724C89.8127 41.698 89.9054 41.5151 90.0907 41.2408C90.4612 40.4178 90.9244 39.5034 91.4802 38.7719C91.8507 38.3146 92.2213 37.9489 92.5918 37.5831C92.7771 37.4002 92.8697 37.2173 92.8697 37.0344C92.8697 36.8516 92.7771 36.6687 92.5918 36.4858C92.3139 36.2115 91.7581 36.2115 91.4802 36.4858C91.2949 36.6687 91.1097 36.8516 90.8317 37.0344C90.6465 37.2173 90.4612 37.4002 90.2759 37.5831C89.9054 38.0403 89.5348 38.4975 89.2569 38.9547C89.0717 39.2291 88.8864 39.5034 88.7937 39.7777C88.6085 39.2291 88.3306 38.6804 88.0526 38.2232C87.3116 37.1259 86.1999 36.2115 85.1809 35.3885C85.0883 35.297 85.0883 35.297 84.9956 35.2056C84.8104 35.1141 84.7177 35.1141 84.5325 35.1141C84.4398 35.1141 84.1619 35.2056 83.9766 35.3885Z" fill="#1C1C1C"/>
<path d="M100.744 79.6469C100.744 81.7501 99.0764 83.396 96.9458 83.396C94.8152 83.396 93.1477 81.7501 93.1477 79.6469C93.1477 77.5437 94.8152 75.8977 96.9458 75.8977C99.0764 75.8977 100.744 77.6351 100.744 79.6469Z" fill="#F7B7C9"/>
<path d="M68.2283 81.3842C70.3259 81.3842 72.0264 79.7056 72.0264 77.635C72.0264 75.5644 70.3259 73.8859 68.2283 73.8859C66.1306 73.8859 64.4302 75.5644 64.4302 77.635C64.4302 79.7056 66.1306 81.3842 68.2283 81.3842Z" fill="#F7B7C9"/>
<path d="M59.7984 50.9338C46.1808 66.5705 55.4445 89.9799 74.3423 95.8323C85.644 99.3071 99.1689 95.9237 107.969 88.2425C119.92 77.7266 119.271 63.37 113.991 49.745C113.62 48.8306 112.045 49.1964 112.416 50.2022C115.288 57.5177 117.604 64.6502 115.658 72.5143C114.269 78.0009 111.304 83.1217 107.136 86.9623C98.7984 94.5521 85.644 97.7526 74.8055 94.3692C57.1119 88.8826 48.2188 66.7534 61.0027 52.0311C61.6511 51.2995 60.5395 50.1108 59.7984 50.9338Z" fill="#1C1C1C"/>
<path d="M68.0432 79.8297C70.8223 86.5051 73.6014 90.1628 81.105 91.0772C87.9601 91.9002 93.5183 87.6938 96.6679 81.9329C97.1311 81.0185 95.7415 80.1955 95.2784 81.1099C92.7772 85.7735 88.3306 89.5227 82.6798 89.6141C75.4541 89.797 72.0266 85.4992 69.5254 79.3725C69.2475 78.5495 67.6726 78.9153 68.0432 79.8297Z" fill="#1C1C1C"/>
<path d="M117.696 70.9598C119.179 70.0454 121.217 71.8742 120.661 73.5202C120.105 74.9833 117.789 75.4405 116.585 74.4346C115.844 73.7031 114.732 74.8918 115.473 75.5319C117.604 77.5437 121.495 76.4464 122.236 73.7031C122.977 70.8683 119.364 68.2165 116.863 69.6796C116.029 70.1368 116.77 71.5084 117.696 70.9598Z" fill="#1C1C1C"/>
<path d="M54.1476 68.0336C52.2949 65.6561 47.4778 67.8507 47.4778 70.6854C47.4778 74.1602 52.1096 75.4404 54.8887 74.9832C55.9077 74.8003 55.4445 73.3373 54.4255 73.4287C52.6654 73.703 50.6274 73.1544 49.5158 71.7827C48.7747 70.8683 49.0526 69.8624 50.0716 69.2223C50.5348 68.948 52.2949 68.2165 52.7581 68.7651C53.4065 69.5881 54.7961 68.8566 54.1476 68.0336Z" fill="#1C1C1C"/>
<path d="M77.4921 74.1603C79.6227 77.7266 84.4398 78.2752 87.2189 75.0747C87.8674 74.3432 86.7557 73.1544 86.1073 73.9774C84.0693 76.3549 80.5491 76.172 78.8816 73.4287C78.3258 72.4229 76.9362 73.2459 77.4921 74.1603Z" fill="#1C1C1C"/>
<path d="M100.095 67.8507C100.095 68.6737 99.3544 69.4053 98.5206 69.4053C97.6869 69.4053 96.9458 68.6737 96.9458 67.8507C96.9458 67.0277 97.6869 66.2962 98.5206 66.2962C99.447 66.2047 100.095 66.9363 100.095 67.8507Z" fill="#1C1C1C"/>
<path d="M68.5063 65.7475C68.5063 66.5705 67.7652 67.3021 66.9315 67.3021C66.0978 67.3021 65.3567 66.5705 65.3567 65.7475C65.3567 64.9245 66.0978 64.193 66.9315 64.193C67.7652 64.193 68.5063 64.9245 68.5063 65.7475Z" fill="#1C1C1C"/>
</g>
<defs>
<filter id="filter0_d" x="41.9956" y="0" width="86" height="117" filterUnits="userSpaceOnUse" color-interpolation-filters="sRGB">
<feFlood flood-opacity="0" result="BackgroundImageFix"/>
<feColorMatrix in="SourceAlpha" type="matrix" values="0 0 0 0 0 0 0 0 0 0 0 0 0 0 0 0 0 0 127 0"/>
<feOffset dy="4"/>
<feGaussianBlur stdDeviation="2"/>
<feColorMatrix type="matrix" values="0 0 0 0 0 0 0 0 0 0 0 0 0 0 0 0 0 0 0.1 0"/>
<feBlend mode="normal" in2="BackgroundImageFix" result="effect1_dropShadow"/>
<feBlend mode="normal" in="SourceGraphic" in2="effect1_dropShadow" result="shape"/>
</filter>
<clipPath id="clip0">
<rect width="78" height="109" fill="white" transform="translate(45.9956)"/>
</clipPath>
</defs>
</svg>
