<svg width="170" height="171" viewBox="0 0 170 171" fill="none" xmlns="http://www.w3.org/2000/svg">
<path opacity="0.7" d="M168.874 94.7278C166.619 99.8948 161.356 100.119 157.221 98.9962C157.409 100.344 157.409 101.917 157.409 103.04C157.221 107.308 154.966 110.678 152.522 113.374C147.26 119.439 138.989 121.911 132.223 118.541C132.411 122.36 132.035 125.505 129.968 128.65C127.336 132.244 122.637 134.491 118.878 135.39C114.931 136.513 110.232 134.94 106.661 132.694C105.533 132.02 104.594 131.121 103.842 130.223C102.902 134.716 101.586 138.085 97.8272 140.107C93.5042 142.578 88.2415 142.354 83.7305 141.006C76.0244 138.759 69.4459 131.795 67.9423 122.585C67.0025 123.932 65.8748 125.056 64.935 125.954C61.3638 129.998 56.289 130.897 51.4022 131.346C42.0044 132.02 35.238 126.628 30.7271 117.193C27.1559 121.237 21.1414 122.585 16.4425 121.461C15.3147 121.237 14.375 120.787 13.2472 120.563C7.60855 116.968 2.3458 112.925 1.21807 104.612C0.278288 96.7497 2.3458 89.7855 6.85673 84.6185C9.67606 82.1474 13.2472 81.2488 17.0063 81.4734C17.0063 80.5748 17.0063 79.6762 17.1943 78.553C18.1341 73.8353 22.2691 70.6902 25.6523 68.6683C32.6066 64.8493 44.4478 63.2767 50.4624 70.4655C50.4624 70.2409 50.4624 70.2409 50.6504 70.0163C51.5901 67.3204 53.2818 65.0739 55.3493 63.0521C59.1084 59.233 64.747 57.2112 69.6339 55.6386C78.4678 52.9428 89.5572 59.0084 92.3765 69.5669C93.1283 66.4218 95.5717 63.726 97.6393 62.3781C101.398 59.6823 105.533 59.0084 109.856 60.1316C115.119 61.4795 120.758 66.4218 122.073 72.7121C124.893 66.4218 133.351 66.8711 138.238 69.3423C141.057 70.9148 144.252 73.8353 145.756 77.6544C147.447 75.4079 151.77 74.5092 153.65 74.5092C158.349 74.2846 163.048 76.3065 166.431 80.3502C169.814 83.9446 171.13 90.0101 168.874 94.7278Z" fill="#EAF5FB"/>
<g clip-path="url(#clip0)" filter="url(#filter0_d)">
<path d="M82.5069 110.693C82.5069 110.693 83.7943 117.04 79.84 121.915C75.8856 126.79 70.2759 131.573 70.2759 131.573L70.8277 132.401C70.8277 132.401 73.6785 132.033 74.5981 133.413C75.5177 134.793 76.6213 140.404 79.656 140.772C82.6908 141.14 86.7371 138.196 87.9326 138.104C89.1282 138.104 91.3353 142.796 92.4388 143.164C93.5424 143.532 94.5539 143.348 96.5771 141.692C98.6003 140.036 100.072 139.484 101.543 140.312C103.014 141.14 104.394 142.704 106.785 142.428C109.176 142.06 111.199 139.576 111.751 138.472C111.751 138.472 103.934 132.125 102.463 125.042C101.083 117.959 102.003 112.072 102.003 112.072C102.003 112.072 91.6111 115.568 82.5069 110.693Z" fill="#F7B7C9"/>
<path d="M92.1628 118.603C92.1628 118.603 96.761 125.594 99.152 133.045C101.543 140.404 104.394 142.888 106.785 142.52C109.176 142.152 111.751 138.564 111.751 138.564C111.751 138.564 103.658 134.149 102.463 125.134C101.267 116.12 102.003 112.164 102.003 112.164L97.7725 112.9C97.7725 112.716 98.0484 118.235 92.1628 118.603Z" fill="#B98997"/>
<path d="M95.1976 112.716C111.349 112.716 124.442 100.773 124.442 86.0401C124.442 71.3073 111.349 59.364 95.1976 59.364C79.0466 59.364 65.9536 71.3073 65.9536 86.0401C65.9536 100.773 79.0466 112.716 95.1976 112.716Z" fill="#FDF0DA"/>
<path d="M122.878 78.5892C122.878 78.5892 121.683 92.8471 114.05 100.942C105.406 110.141 93.9103 113.544 82.0471 110.601C82.0471 110.601 106.693 118.051 117.453 103.058C127.201 89.6276 122.878 78.5892 122.878 78.5892Z" fill="#E2D2BE"/>
<path d="M131.891 72.1501C131.891 72.1501 130.143 82.9126 133.086 87.6959C136.029 92.4792 135.937 95.9746 146.421 96.2506C146.421 96.2506 143.294 99.2861 140.443 98.9182C140.443 98.9182 144.214 102.874 149.088 101.954C149.088 101.954 145.041 107.749 138.788 105.817C138.788 105.817 139.156 110.508 146.237 109.589C146.237 109.589 140.903 117.499 132.534 115.568C132.534 115.568 134.374 117.407 137.316 117.959C137.316 117.959 123.43 120.719 117.637 115.016C113.406 110.876 114.234 106.645 114.234 106.645C114.234 106.645 118.832 103.793 122.327 94.7788C126.189 84.6603 124.626 78.1293 124.626 78.1293C124.626 78.1293 128.212 77.6693 128.12 72.794L131.891 72.1501Z" fill="#FDB842"/>
<path d="M95.0138 158.617C95.0138 158.617 94.6459 163.401 97.4967 165.7C100.348 168 102.831 167.172 103.566 165.332C104.302 163.493 102.371 161.653 100.532 159.997C98.7842 158.342 95.0138 158.617 95.0138 158.617Z" fill="#FB7E00"/>
<path d="M86.1853 158.433C86.1853 158.433 81.5872 156.778 78.6444 158.433C75.7016 160.089 73.5865 161.929 75.7936 163.861C79.1042 166.804 86.1853 158.433 86.1853 158.433Z" fill="#FB7E00"/>
<path d="M128.212 74.1739C128.212 76.2896 126.465 77.9454 124.442 77.9454C122.418 77.9454 120.671 76.1976 120.671 74.1739C120.671 72.0582 122.418 70.4025 124.442 70.4025C126.465 70.4025 128.212 72.0582 128.212 74.1739Z" fill="#F7B7C9"/>
<path d="M127.017 70.2184L131.155 63.0435L138.696 71.1383C138.696 71.1383 130.051 70.4024 127.844 72.6101L127.017 70.2184Z" fill="#B8D9F4"/>
<path d="M121.223 74.6338C121.223 74.6338 116.625 73.07 112.119 75.0937L118.74 86.3161C118.74 86.3161 122.235 81.9927 123.062 79.1411L121.223 74.6338Z" fill="#B8D9F4"/>
<path d="M87.105 112.256C87.105 112.256 87.1969 118.051 92.1629 118.603C97.0369 119.155 97.8646 112.808 97.8646 112.808C97.8646 112.808 90.6915 114.28 87.105 112.256Z" fill="#FDF0DA"/>
<path d="M81.5874 57.3403C81.5874 57.3403 71.9313 55.2246 65.2181 62.8595C58.5968 70.4944 60.6199 76.8415 60.6199 76.8415C60.6199 76.8415 61.1717 75.3697 62.5512 74.1739C62.5512 74.1739 60.3441 83.4645 67.0573 85.6722C67.0573 85.6722 68.8966 69.8505 82.415 62.3076C82.415 62.3076 88.1167 62.5836 97.129 72.4261C97.129 72.4261 98.5084 70.4944 98.8763 69.0226C98.8763 69.0226 101.083 71.5982 101.359 75.2777C101.359 75.2777 104.21 73.9899 104.946 71.9662C104.946 71.9662 106.785 74.5418 107.613 77.3014C107.613 77.3014 110.004 76.5655 110.923 74.2658L116.349 72.978L121.315 74.7258L120.947 71.6902L122.051 70.4944L126.649 69.9425L129.776 66.9069C129.776 66.9069 123.798 54.1208 110.004 50.9013C91.7952 46.7619 81.5874 57.3403 81.5874 57.3403Z" fill="#FDB842"/>
<path d="M82.5069 110.692C82.415 111.336 82.415 111.98 82.415 112.716C82.415 113.36 82.323 114.004 82.231 114.648C82.1391 115.2 82.0471 115.844 81.8632 116.396C81.6793 117.04 81.4953 117.591 81.3114 118.143C80.5757 119.707 79.7481 121.271 78.7365 122.651C77.9088 123.663 77.0812 124.49 76.1615 125.41C75.7017 125.87 75.3339 126.33 74.8741 126.79C74.5062 127.25 74.0464 127.71 73.5866 128.078C73.1268 128.446 72.667 128.906 72.2071 129.274C71.7473 129.642 71.2875 130.01 70.8277 130.378C70.5518 130.562 70.3679 130.746 70.184 131.021C70 131.205 69.8161 131.389 69.6322 131.573C69.4483 131.665 69.2643 131.849 69.2643 132.125C69.1724 132.401 69.2643 132.677 69.4483 132.861C69.6322 133.045 69.9081 133.137 70.184 133.137C70.4599 133.137 70.6438 133.137 70.9197 133.229C71.3795 133.321 71.8393 133.413 72.2991 133.505C72.7589 133.597 73.2187 133.597 73.6785 133.781C73.7705 133.781 73.8625 133.873 73.9544 133.965C74.0464 134.057 74.1384 134.149 74.2303 134.241C74.5982 134.701 74.7821 135.253 75.058 135.805C75.3339 136.357 75.7017 136.909 75.9776 137.461C76.5294 138.564 76.9892 139.76 78.0008 140.68C78.5525 141.14 79.1963 141.508 79.84 141.692C80.2079 141.784 80.5757 141.784 80.8516 141.876C81.1275 141.876 81.4034 141.876 81.7712 141.876C82.415 141.876 83.0587 141.692 83.7024 141.416C84.3462 141.14 84.9899 140.864 85.6336 140.588C86.0935 140.312 86.6452 140.128 87.105 139.944C87.5649 139.76 87.9327 139.576 88.3925 139.392C88.4845 139.392 88.5764 139.3 88.6684 139.208C88.8523 139.024 88.8523 138.84 88.8523 138.656C88.8523 138.288 88.4845 137.92 88.1166 137.92C87.8407 137.92 87.6568 138.012 87.3809 138.012C87.197 138.104 87.0131 138.196 86.8292 138.196C86.3693 138.38 86.0015 138.564 85.5417 138.748C84.806 139.116 84.0703 139.484 83.2426 139.852C82.8748 140.036 82.415 140.128 81.9552 140.22C81.7712 140.22 81.5873 140.22 81.3114 140.22C81.1275 140.22 80.9436 140.22 80.7596 140.22C80.3918 140.128 80.1159 140.128 79.7481 139.944C79.4722 139.852 79.2882 139.668 79.0124 139.484C78.8284 139.3 78.6445 139.208 78.5525 138.932C78.1847 138.472 78.0008 138.012 77.7249 137.461C77.449 136.909 77.1731 136.357 76.8972 135.805C76.7133 135.529 76.6213 135.253 76.4374 134.977C76.2535 134.701 76.1615 134.425 75.9776 134.149C75.8856 133.873 75.7017 133.597 75.5178 133.321C75.3339 133.045 75.058 132.769 74.6901 132.493C74.0464 132.033 73.3107 132.033 72.575 131.849C72.2071 131.757 71.9313 131.757 71.5634 131.665C71.6554 131.573 71.6554 131.573 71.7473 131.481C72.2071 131.021 72.667 130.654 73.1268 130.286C73.5866 129.918 74.0464 129.458 74.5062 129.09C74.966 128.63 75.4258 128.262 75.7937 127.802C76.2535 127.342 76.6213 126.882 77.0812 126.33C77.449 125.87 77.9088 125.41 78.3686 124.95C78.8284 124.49 79.2882 123.939 79.6561 123.387C80.0239 122.835 80.3918 122.375 80.7596 121.823C81.1275 121.271 81.4034 120.719 81.6793 120.167C81.9552 119.615 82.231 118.971 82.5069 118.327C82.7828 117.775 82.8748 117.132 83.0587 116.58C83.2426 115.936 83.3346 115.292 83.4266 114.648C83.5185 114.004 83.5185 113.36 83.5185 112.624C83.5185 111.98 83.6105 111.244 83.6105 110.6C83.6105 110.417 83.4266 110.233 83.2426 110.233C82.6909 110.325 82.5069 110.509 82.5069 110.692ZM78.7365 122.743C78.7365 122.743 78.6445 122.743 78.7365 122.743C78.6445 122.743 78.7365 122.743 78.7365 122.743Z" fill="#1C1C1C"/>
<path d="M87.7488 138.012C87.3809 138.012 87.0131 138.104 86.6452 138.196C86.3693 138.288 86.1854 138.288 85.9095 138.38C85.5417 138.472 85.3577 138.84 85.4497 139.208C85.5417 139.576 85.9095 139.76 86.2774 139.668C86.5533 139.576 86.8291 139.576 87.105 139.484C87.3809 139.484 87.7488 139.484 88.0247 139.484C88.2086 139.484 88.3005 139.576 88.4845 139.576C88.5764 139.668 88.6684 139.668 88.7603 139.76C88.9443 139.852 89.0362 140.036 89.2202 140.22C89.4041 140.496 89.588 140.68 89.68 140.956C89.8639 141.232 90.0478 141.416 90.1398 141.692C90.3237 141.968 90.5076 142.244 90.6916 142.52C90.8755 142.796 91.0594 143.072 91.2433 143.348C91.3353 143.532 91.4273 143.624 91.6112 143.808C91.8871 144.084 92.163 144.268 92.5308 144.36C92.7147 144.36 92.8987 144.452 92.9906 144.452C93.2665 144.544 93.5424 144.544 93.9102 144.544C94.3701 144.544 94.7379 144.36 95.1058 144.176C95.4736 143.992 95.7495 143.716 96.0254 143.532C96.4852 143.164 96.853 142.796 97.2209 142.428C97.5887 142.152 97.9566 141.784 98.3244 141.508C98.6003 141.324 98.9682 141.14 99.2441 140.956C99.428 140.864 99.7039 140.772 99.8878 140.772C100.072 140.772 100.164 140.772 100.348 140.772C100.532 140.772 100.623 140.864 100.807 140.864C101.083 141.048 101.359 141.14 101.635 141.416C102.095 141.784 102.555 142.244 103.106 142.52C103.382 142.704 103.658 142.796 104.026 142.796C104.394 142.888 104.67 142.888 105.038 142.98C105.314 142.98 105.589 143.072 105.865 143.072C106.141 143.072 106.417 143.072 106.693 143.072C107.337 142.98 107.98 142.888 108.532 142.52C108.808 142.428 108.992 142.244 109.176 142.06C109.452 141.876 109.636 141.692 109.912 141.508C110.28 141.14 110.739 140.68 111.015 140.22C111.383 139.668 111.659 139.024 111.751 138.38C111.751 138.196 111.751 138.012 111.567 137.92C111.383 137.829 111.107 137.829 111.015 138.104C110.831 138.38 110.647 138.748 110.555 139.024C110.463 139.3 110.28 139.484 110.096 139.76C109.82 140.036 109.544 140.312 109.268 140.496C108.992 140.68 108.808 140.772 108.532 140.956C108.256 141.14 108.072 141.232 107.797 141.416C107.521 141.508 107.245 141.6 107.061 141.6C106.601 141.692 106.049 141.6 105.589 141.6C105.406 141.6 105.222 141.508 105.038 141.508H105.13C104.762 141.416 104.394 141.324 104.026 141.232C103.75 141.14 103.566 140.956 103.29 140.772C102.831 140.404 102.279 139.944 101.727 139.668C101.359 139.484 100.899 139.3 100.44 139.3C100.072 139.3 99.7039 139.3 99.336 139.392C98.6923 139.576 98.0485 139.852 97.4968 140.312C96.945 140.68 96.4852 141.14 95.9334 141.6C95.7495 141.784 95.5656 141.876 95.3816 142.06C95.1977 142.244 95.0138 142.336 94.7379 142.52C94.554 142.612 94.3701 142.704 94.1861 142.796C94.0942 142.796 94.0022 142.888 93.8183 142.888H93.7263C93.6344 142.888 93.4504 142.796 93.3585 142.796C93.2665 142.796 93.0826 142.704 92.9906 142.704C92.8987 142.612 92.8987 142.612 92.8067 142.52C92.6228 142.336 92.5308 142.06 92.3469 141.784C92.163 141.508 91.979 141.232 91.7031 140.864C91.5192 140.588 91.3353 140.404 91.1514 140.128C90.8755 139.852 90.6916 139.484 90.4157 139.208C90.2317 138.932 89.9559 138.656 89.68 138.472C89.496 138.38 89.3121 138.288 89.1282 138.196C88.9443 138.104 88.7604 138.104 88.4845 138.012C88.3925 138.012 88.2086 138.012 88.1166 138.012C88.0247 137.92 87.9327 137.92 87.7488 138.012Z" fill="#1C1C1C"/>
<path d="M111.291 139.668C111.383 139.76 112.395 138.656 111.475 137.277C111.475 137.277 111.107 136.909 111.015 136.909C110.739 136.725 110.555 136.449 110.279 136.265C110.004 135.989 109.728 135.713 109.452 135.437C108.992 134.885 108.44 134.333 107.98 133.689C107.337 132.769 106.693 131.849 106.141 130.838C105.865 130.378 105.589 129.826 105.313 129.366C105.038 128.814 104.762 128.354 104.486 127.802C104.026 126.698 103.658 125.594 103.29 124.49C103.106 123.939 102.922 123.295 102.739 122.743C102.555 122.099 102.463 121.547 102.371 120.903C102.279 120.351 102.279 119.799 102.279 119.247C102.279 118.695 102.279 118.051 102.279 117.499C102.279 116.856 102.371 116.212 102.371 115.66C102.371 115.108 102.463 114.464 102.555 113.912C102.647 113.268 102.83 112.532 102.922 111.888C102.922 111.888 102.922 111.888 102.83 111.888C102.555 111.888 102.279 111.98 101.911 111.98H101.819C101.819 112.072 101.819 112.164 101.727 112.348C101.635 112.716 101.543 113.084 101.451 113.452C101.267 114.28 101.175 115.108 101.083 116.028C100.991 116.856 100.899 117.683 100.807 118.511C100.807 118.879 100.715 119.339 100.715 119.707C100.715 120.075 100.715 120.535 100.715 120.903C100.715 121.271 100.807 121.731 100.807 122.099C100.899 122.559 100.899 123.019 100.991 123.479C101.083 123.847 101.175 124.306 101.267 124.674C101.359 125.042 101.451 125.502 101.543 125.87C101.727 126.606 102.003 127.434 102.279 128.17C102.463 128.63 102.647 129.09 102.83 129.458C103.014 129.826 103.198 130.194 103.382 130.562C103.75 131.297 104.026 131.941 104.394 132.585C104.762 133.321 105.221 133.965 105.681 134.609C105.957 134.977 106.233 135.437 106.601 135.805C106.877 136.081 107.061 136.449 107.337 136.725C107.613 137.001 107.888 137.369 108.164 137.645C108.532 138.012 108.9 138.288 109.268 138.564C109.636 138.84 110.004 139.024 110.371 139.3C110.923 139.484 111.107 139.576 111.291 139.668Z" fill="#1C1C1C"/>
<path d="M87.289 138.196C87.0131 138.472 86.8292 138.656 86.5533 138.932C86.2774 139.208 86.0935 139.484 85.9096 139.852C85.5417 140.496 85.2658 141.14 84.9899 141.876C84.806 142.52 84.6221 143.164 84.5301 143.808C84.4382 144.544 84.3462 145.187 84.2542 145.923C84.1623 146.567 84.1623 147.303 84.1623 147.947C84.1623 148.683 84.0703 149.327 84.0703 150.063C84.0703 150.707 84.0703 151.351 84.0703 152.086C84.0703 152.73 84.1623 153.466 84.1623 154.11C84.1623 155.03 84.2542 155.95 84.2542 156.87C84.2542 157.33 84.2542 157.79 84.3462 158.25C84.3462 158.434 84.4382 158.709 84.4382 158.893C84.4382 158.985 84.4382 158.985 84.4382 159.077C84.4382 159.261 84.4382 159.353 84.5301 159.537C84.6221 159.629 84.7141 159.813 84.806 159.905C84.9899 159.997 85.1739 159.997 85.4497 159.997C85.6337 159.905 85.8176 159.721 85.9096 159.537C85.9096 159.445 85.9096 159.353 85.9096 159.261C85.9096 159.169 85.9096 158.985 85.9096 158.893C85.9096 158.709 85.9096 158.525 85.9096 158.434C85.9096 158.158 85.9096 157.79 85.9096 157.514C85.9096 156.87 85.9096 156.134 85.9096 155.49C85.9096 154.11 85.8176 152.822 85.8176 151.443C85.8176 150.063 85.8176 148.683 85.8176 147.303C85.8176 146.659 85.8176 146.015 85.8176 145.371C85.8176 144.728 85.9096 144.084 86.0015 143.44C86.0935 142.704 86.2774 141.968 86.5533 141.232C86.7372 140.68 87.0131 140.22 87.381 139.76C87.5649 139.484 87.8408 139.208 88.1167 139.024C88.3006 138.84 88.3006 138.472 88.1167 138.288C88.0247 138.196 87.8408 138.104 87.7488 138.104C87.4729 138.013 87.381 138.013 87.289 138.196Z" fill="#1C1C1C"/>
<path d="M95.1976 142.52C95.0137 142.612 94.8298 142.704 94.7378 142.888C94.4619 143.348 94.278 143.9 94.186 144.452C94.0941 145.003 94.0021 145.463 94.0021 146.015C93.9102 146.935 93.9102 147.855 93.9102 148.867C93.9102 149.787 93.9102 150.707 93.9102 151.719C93.9102 152.638 94.0021 153.558 94.0021 154.478C94.0021 155.306 94.0941 156.134 94.0941 156.962C94.0941 157.33 94.186 157.698 94.186 158.158C94.278 158.709 94.278 159.261 94.5539 159.721C94.7378 160.089 95.1976 160.273 95.5655 160.181C95.9333 160.089 96.2092 159.721 96.2092 159.261C96.2092 159.077 96.2092 158.801 96.2092 158.617C96.2092 158.342 96.2092 158.158 96.1173 157.882C96.1173 157.422 96.0253 156.962 96.0253 156.594C95.9333 155.674 95.9333 154.662 95.8414 153.742C95.7494 151.902 95.6574 150.063 95.6574 148.223C95.6574 147.211 95.6574 146.199 95.7494 145.187C95.8414 144.82 95.9333 144.544 96.0253 144.176C96.1173 144.084 96.1173 143.992 96.2092 143.9C96.3012 143.716 96.3932 143.44 96.3012 143.256C96.2092 143.072 96.1173 142.888 95.9333 142.796C95.8414 142.704 95.6574 142.704 95.4735 142.704C95.2896 142.428 95.2896 142.428 95.1976 142.52Z" fill="#1C1C1C"/>
<path d="M78.9203 157.238C78.4605 157.33 78.0007 157.606 77.5409 157.789C77.0811 157.973 76.7132 158.249 76.2534 158.525C75.7936 158.801 75.3338 159.169 74.9659 159.537C74.782 159.721 74.5981 159.997 74.4142 160.273C74.2302 160.549 74.1383 160.825 73.9544 161.101C73.7704 161.561 73.6785 162.113 73.6785 162.573C73.6785 162.849 73.6785 163.125 73.7704 163.309C73.8624 163.677 74.0463 164.045 74.3222 164.413C74.5981 164.78 75.0579 165.148 75.5177 165.332C75.7936 165.424 75.9775 165.516 76.2534 165.608C76.5293 165.7 76.8971 165.7 77.173 165.792C77.6328 165.884 78.0927 165.792 78.5525 165.7C78.8284 165.7 79.1962 165.608 79.4721 165.516C79.748 165.424 79.9319 165.424 80.2078 165.332C80.7596 165.148 81.3113 164.872 81.8631 164.596C82.4149 164.321 82.8747 163.953 83.3345 163.585C84.0702 163.033 84.53 162.297 85.0818 161.561C85.5416 160.917 85.9095 160.181 86.2773 159.445C86.4612 159.077 86.4612 158.617 86.0934 158.249C85.7255 157.881 85.1738 157.881 84.7139 158.249L84.622 158.341C84.2541 157.973 83.7943 157.698 83.3345 157.422C82.8747 157.238 82.3229 157.054 81.7712 156.962C81.3113 156.87 80.8515 156.87 80.3917 156.87C80.0239 157.054 79.4721 157.054 78.9203 157.238ZM82.3229 158.617C82.5988 158.617 82.7827 158.709 83.0586 158.801C83.2426 158.893 83.3345 158.985 83.5184 159.077C83.6104 159.169 83.7943 159.261 83.8863 159.445C83.8863 159.445 83.9783 159.445 83.9783 159.537C83.8863 159.721 83.7024 159.905 83.6104 160.089C83.1506 160.733 82.5988 161.285 81.9551 161.745C81.5872 162.021 81.1274 162.297 80.7596 162.481C80.3917 162.665 79.9319 162.849 79.4721 163.033C79.0123 163.217 78.4605 163.309 77.9087 163.401C77.6328 163.401 77.265 163.493 76.9891 163.401C76.8052 163.401 76.7132 163.309 76.6213 163.309C76.5293 163.217 76.3454 163.125 76.2534 163.125L76.1615 163.033C76.1615 162.941 76.0695 162.941 76.0695 162.849C76.0695 162.757 75.9775 162.665 75.9775 162.573C75.9775 162.481 75.9775 162.389 75.9775 162.297C75.9775 162.021 76.0695 161.837 76.1615 161.561C76.2534 161.377 76.3454 161.193 76.4373 161.101C76.7132 160.733 77.0811 160.457 77.4489 160.181C78.0927 159.721 78.7364 159.353 79.4721 158.985C79.656 158.893 79.9319 158.801 80.1158 158.801C80.2998 158.709 80.5756 158.709 80.7596 158.709C81.2194 158.617 81.7712 158.525 82.3229 158.617Z" fill="#1C1C1C"/>
<path d="M94.0021 158.066C94.0021 158.525 94.0941 158.985 94.0941 159.445C94.0941 159.997 94.0941 160.457 94.1861 161.009C94.278 161.377 94.278 161.837 94.4619 162.205C94.5539 162.665 94.7378 163.033 95.0137 163.493C95.4735 164.321 96.0253 165.057 96.5771 165.7C96.853 166.068 97.2208 166.344 97.5887 166.62C97.7726 166.804 98.0485 166.988 98.2324 167.08C98.5083 167.264 98.7842 167.356 99.0601 167.448C99.5199 167.632 99.8877 167.724 100.348 167.816C100.623 167.908 100.807 167.908 101.083 167.908C101.359 167.908 101.635 167.816 101.911 167.816C102.095 167.816 102.279 167.724 102.371 167.632C102.463 167.632 102.555 167.54 102.647 167.448C102.831 167.356 102.922 167.264 103.014 167.172C103.198 166.988 103.474 166.804 103.566 166.528C103.842 166.068 104.118 165.608 104.21 165.057C104.302 164.505 104.302 163.953 104.21 163.401C104.21 163.217 104.026 162.941 103.934 162.757C103.842 162.665 103.842 162.481 103.75 162.389C103.658 162.205 103.566 162.021 103.382 161.745C102.922 161.009 102.279 160.273 101.635 159.721C101.359 159.537 101.175 159.353 100.899 159.169C100.623 158.985 100.348 158.893 100.072 158.801C99.6118 158.617 99.152 158.433 98.6922 158.25C98.2324 158.066 97.7726 157.882 97.3128 157.698C96.9449 157.606 96.5771 157.514 96.2092 157.514C95.9333 157.514 95.6575 157.606 95.4735 157.698C95.4735 157.606 95.3816 157.514 95.2896 157.422C95.1057 157.238 94.9218 157.238 94.7378 157.238C94.37 157.33 93.9102 157.606 94.0021 158.066ZM96.3932 159.721C96.9449 159.813 97.5887 159.997 98.1404 160.181C98.6922 160.365 99.3359 160.549 99.8877 160.733C100.164 160.917 100.439 161.101 100.715 161.285C100.899 161.469 101.175 161.653 101.359 161.837C101.543 162.021 101.727 162.205 101.911 162.389C102.187 162.757 102.371 163.125 102.647 163.585C102.647 163.677 102.739 163.769 102.739 163.953C102.739 164.137 102.739 164.321 102.739 164.597C102.739 164.781 102.647 165.057 102.555 165.24C102.463 165.332 102.463 165.424 102.371 165.608C102.279 165.792 102.095 165.884 101.911 166.068C101.819 166.16 101.727 166.16 101.543 166.252C101.451 166.252 101.359 166.252 101.267 166.344C101.175 166.344 101.083 166.344 100.991 166.344C100.531 166.252 100.072 166.068 99.6118 165.884C99.4279 165.792 99.152 165.7 98.9681 165.516C98.7842 165.332 98.5083 165.148 98.3244 164.965C98.1404 164.781 97.9565 164.505 97.7726 164.321C97.2208 163.585 96.5771 162.757 96.2092 161.837C96.0253 161.285 95.8414 160.641 95.7494 160.089C95.9333 160.089 96.1173 159.997 96.3012 159.997C96.3012 159.721 96.3932 159.721 96.3932 159.721ZM99.4279 165.608C99.4279 165.608 99.4279 165.7 99.4279 165.608C99.4279 165.7 99.4279 165.608 99.4279 165.608Z" fill="#1C1C1C"/>
<path d="M56.2056 106.093C55.8378 106.185 55.4699 106.277 55.1021 106.369C54.5503 106.461 54.2744 107.105 54.4584 107.565C54.5503 107.841 54.6423 108.025 54.9182 108.117C55.1941 108.209 55.378 108.301 55.6539 108.209C56.0217 108.117 56.3896 108.025 56.7574 108.025C57.1253 108.025 57.4012 108.025 57.769 108.025C58.0449 108.025 58.3208 108.117 58.5967 108.209C58.6886 108.209 58.8726 108.301 58.9645 108.301C59.2404 108.393 59.5163 108.393 59.7922 108.301C60.0681 108.209 60.3439 108.025 60.4359 107.657C60.5279 107.289 60.3439 106.921 60.0681 106.645C59.9761 106.645 59.9761 106.553 59.8841 106.553C59.7922 106.461 59.6082 106.461 59.4243 106.369C59.2404 106.369 59.0565 106.277 58.8725 106.277C58.4127 106.185 58.0449 106.093 57.5851 106.093C57.4012 106.093 57.3092 106.093 57.1253 106.093C56.7574 106.001 56.4815 106.001 56.2056 106.093Z" fill="#1C1C1C"/>
<path d="M55.102 101.954C54.9181 102.046 54.7341 102.23 54.7341 102.414C54.6422 102.598 54.7341 102.874 54.8261 103.058C54.9181 103.242 55.102 103.426 55.3779 103.426C55.8377 103.518 56.2055 103.518 56.6653 103.61C56.8493 103.61 57.0332 103.701 57.3091 103.701C57.493 103.701 57.585 103.793 57.7689 103.885C58.0448 103.977 58.3207 104.161 58.5966 104.345C58.6885 104.437 58.6885 104.437 58.7805 104.529C58.8724 104.621 59.0564 104.713 59.2403 104.805C59.4242 104.805 59.5162 104.805 59.7001 104.805C59.884 104.805 59.976 104.713 60.068 104.529C60.3438 104.345 60.3438 103.977 60.1599 103.701C60.068 103.61 59.976 103.426 59.7921 103.426C59.3323 102.966 58.7805 102.598 58.2287 102.322C57.493 101.954 56.6653 101.954 55.8377 101.77C55.7457 101.77 55.6538 101.77 55.5618 101.77C55.3779 101.862 55.1939 101.862 55.102 101.954Z" fill="#1C1C1C"/>
<path d="M58.1369 97.5384C57.953 97.6304 57.861 97.8144 57.769 97.9983C57.6771 98.1823 57.769 98.3663 57.861 98.5503C58.0449 98.8262 58.2289 99.0102 58.5047 99.1942C58.7806 99.3781 58.9646 99.5621 59.1485 99.8381C59.5163 100.39 59.7922 100.942 60.0681 101.494C60.1601 101.77 60.252 102.046 60.344 102.322C60.5279 102.782 60.8958 103.058 61.3556 102.874C61.8154 102.782 62.0913 102.322 61.9074 101.862C61.8154 101.494 61.6315 101.126 61.5395 100.758C61.2636 100.114 60.9877 99.5621 60.6199 99.0102C60.436 98.7342 60.1601 98.4583 59.9761 98.1823C59.7922 97.9983 59.6083 97.9064 59.5163 97.8144C59.4244 97.7224 59.2404 97.6304 59.1485 97.6304C58.9646 97.4464 58.7806 97.4464 58.5967 97.4464C58.3208 97.3544 58.2289 97.4464 58.1369 97.5384ZM61.5395 100.758C61.5395 100.85 61.5395 100.85 61.6315 100.942C61.5395 100.85 61.5395 100.85 61.5395 100.758Z" fill="#1C1C1C"/>
<path d="M96.9449 112.808C96.9449 112.9 96.9449 112.992 96.8529 113.084C96.761 113.636 96.577 114.188 96.3012 114.74C96.0253 115.292 95.7494 115.844 95.3815 116.304C95.1056 116.58 94.9217 116.856 94.5539 117.132C94.3699 117.224 94.186 117.408 94.0021 117.499C93.7262 117.591 93.3584 117.683 93.0825 117.683C92.8986 117.683 92.6227 117.683 92.4387 117.683C92.2548 117.683 91.9789 117.683 91.795 117.591C91.4272 117.499 91.1513 117.499 90.7834 117.316C90.3236 117.132 89.8638 116.856 89.4959 116.58C89.312 116.488 89.2201 116.304 89.0361 116.12C88.6683 115.568 88.3004 115.016 88.0245 114.372C87.8406 113.912 87.6567 113.36 87.5647 112.9C87.5647 112.624 87.5647 112.44 87.5647 112.164C87.5647 112.072 87.5647 111.98 87.6567 111.888C87.2888 111.796 86.921 111.704 86.5531 111.704C86.4612 111.98 86.4612 112.256 86.4612 112.532C86.4612 112.9 86.4612 113.268 86.5531 113.636C86.6451 114.372 86.921 115.016 87.1969 115.66C87.4728 116.396 87.8406 117.04 88.3924 117.591C88.6683 117.867 89.0361 118.143 89.404 118.327C89.7718 118.603 90.1397 118.787 90.5075 118.879C90.8754 118.971 91.1513 119.063 91.5191 119.155C91.9789 119.247 92.3468 119.247 92.8066 119.247C93.2664 119.247 93.6342 119.155 94.0021 119.063C94.4619 118.971 94.8298 118.879 95.1976 118.603C95.3815 118.511 95.4735 118.419 95.6574 118.327C95.8413 118.143 96.0253 118.051 96.2092 117.867C96.4851 117.591 96.761 117.224 97.0369 116.948C97.4967 116.304 97.7725 115.66 98.0484 114.924C98.1404 114.648 98.2324 114.372 98.3243 114.188C98.4163 113.82 98.5082 113.452 98.5082 113.084C98.5082 112.992 98.5082 112.808 98.5082 112.716C97.9565 112.808 97.4047 112.808 96.9449 112.808Z" fill="#1C1C1C"/>
<path d="M116.165 72.8861C115.43 72.8861 114.694 72.9781 113.958 73.0701C113.13 73.1621 112.395 73.2541 111.659 73.53C111.567 73.622 111.383 73.622 111.291 73.714C111.107 73.806 110.923 73.9899 110.831 74.1739C110.739 74.3579 110.647 74.5419 110.647 74.8178C110.647 75.0938 110.739 75.4617 110.831 75.7377C111.015 76.1056 111.199 76.3816 111.383 76.7495C111.751 77.3934 112.211 78.0373 112.671 78.6812C113.13 79.3252 113.498 79.9691 113.958 80.613C114.418 81.2569 114.878 81.9008 115.338 82.5447C116.257 83.8325 116.993 85.2123 118.28 86.1321C118.464 86.2241 118.556 86.3161 118.74 86.4081C118.924 86.5001 119.108 86.4081 119.292 86.4081C119.384 86.4081 119.476 86.3161 119.568 86.3161C119.66 86.2241 119.844 86.1321 119.936 86.0402C120.028 85.9482 120.12 85.7642 120.212 85.6722C120.304 85.5802 120.304 85.4882 120.395 85.4882C120.487 85.3043 120.579 85.2123 120.671 85.0283C121.039 84.3844 121.407 83.7405 121.867 83.0966C122.419 82.1767 122.878 81.1649 123.338 80.245C123.43 80.061 123.43 79.8771 123.43 79.6931C123.338 79.5091 123.246 79.4171 123.154 79.3252C122.878 79.1412 122.419 79.2332 122.235 79.6011C121.959 80.061 121.775 80.613 121.499 81.0729C121.223 81.5328 120.947 81.9928 120.763 82.4527C120.304 83.2806 119.752 84.2004 119.2 85.0283C119.016 84.8443 118.924 84.7524 118.74 84.5684C118.556 84.3844 118.464 84.2004 118.28 84.0165C117.821 83.4645 117.453 82.8206 117.085 82.1767C116.717 81.5328 116.165 80.9809 115.797 80.337C115.338 79.6931 114.97 78.9572 114.51 78.3133C114.05 77.6694 113.682 77.0255 113.222 76.3816C113.038 76.1976 112.947 75.9217 112.763 75.7377C112.671 75.5537 112.487 75.3697 112.395 75.1858C112.855 75.0018 113.406 74.9098 113.958 74.8178C114.326 74.8178 114.602 74.7258 114.97 74.7258C115.338 74.7258 115.613 74.6338 115.981 74.6338C116.625 74.6338 117.361 74.6339 118.004 74.7258C118.372 74.8178 118.74 74.9098 119.2 75.0018C119.66 75.0938 120.12 75.2778 120.487 75.4617C120.855 75.5537 121.315 75.2778 121.407 74.9098C121.499 74.5419 121.315 74.0819 120.855 73.9899C120.487 73.898 120.12 73.714 119.752 73.622C119.384 73.53 119.016 73.438 118.648 73.346C117.729 72.9781 116.993 72.8861 116.165 72.8861C116.257 72.8861 116.165 72.8861 116.165 72.8861ZM112.027 75.0938C112.027 75.1858 112.027 75.1858 112.027 75.0938C112.027 75.1858 112.027 75.1858 112.027 75.0938Z" fill="#1C1C1C"/>
<path d="M124.993 69.4825C124.809 69.4825 124.626 69.5745 124.442 69.6665C124.35 69.7585 124.258 69.8504 124.258 69.9424C124.166 69.8504 124.166 69.8504 124.074 69.8504C123.89 69.8504 123.614 69.7585 123.43 69.7585C123.246 69.7585 122.97 69.7585 122.786 69.8504C122.51 69.9424 122.143 70.1264 121.867 70.3104C121.683 70.4024 121.499 70.5863 121.407 70.6783C121.131 70.9543 120.947 71.2302 120.763 71.5062C120.395 72.1501 120.211 72.886 120.211 73.6219C120.119 74.3578 120.211 75.0937 120.395 75.8296C120.487 76.0135 120.579 76.1975 120.671 76.3815C120.763 76.5655 120.855 76.6574 120.947 76.8414C121.223 77.3013 121.591 77.5773 121.959 77.8533C122.235 78.0372 122.51 78.2212 122.878 78.4052C123.062 78.4972 123.338 78.5892 123.522 78.5892C123.89 78.6811 124.35 78.6811 124.718 78.5892C124.901 78.5892 124.993 78.4972 125.177 78.4972C125.453 78.4052 125.637 78.3132 125.821 78.2212C126.097 78.1292 126.373 77.9453 126.649 77.7613C127.017 77.4853 127.292 77.2094 127.568 76.8414C127.844 76.4735 127.936 76.1055 128.12 75.7376C128.212 75.4616 128.304 75.0937 128.396 74.7257C128.488 74.3578 128.58 73.9898 128.58 73.6219C128.58 73.162 128.58 72.794 128.488 72.3341C128.488 72.1501 128.396 71.9661 128.304 71.7822C128.212 71.3222 127.936 70.9543 127.66 70.6783C127.476 70.4024 127.201 70.2184 126.925 69.9424C126.741 69.7585 126.557 69.6665 126.465 69.5745C126.097 69.2985 125.637 69.2065 125.177 69.2065C125.177 69.4825 125.085 69.4825 124.993 69.4825ZM124.258 70.8623C124.35 70.7703 124.442 70.7703 124.442 70.6783C124.534 70.8623 124.809 70.9543 124.993 70.9543C125.085 70.9543 125.085 70.9543 125.177 70.9543C125.269 70.9543 125.361 70.9543 125.453 71.0463C125.637 71.1383 125.729 71.2302 125.913 71.3222C126.281 71.5982 126.557 71.8741 126.833 72.1501C126.925 72.2421 126.925 72.3341 127.017 72.4261C127.109 72.61 127.109 72.886 127.201 73.07C127.201 73.3459 127.201 73.6219 127.201 73.8979C127.109 74.4498 126.925 75.0017 126.741 75.5536C126.649 75.8296 126.465 76.0135 126.373 76.1975C126.281 76.2895 126.189 76.3815 126.097 76.4735C125.821 76.6574 125.545 76.8414 125.177 76.9334C124.993 77.0254 124.718 77.0254 124.534 77.1174C124.442 77.1174 124.258 77.1174 124.166 77.1174C123.982 77.1174 123.89 77.0254 123.706 77.0254C123.338 76.8414 123.062 76.6574 122.786 76.4735C122.694 76.3815 122.602 76.2895 122.51 76.1975C122.327 75.9216 122.235 75.7376 122.051 75.4616C121.959 75.1857 121.867 74.9097 121.775 74.6337C121.775 74.3578 121.775 74.0818 121.775 73.8059C121.775 73.5299 121.775 73.3459 121.867 73.07C121.867 72.886 121.959 72.702 121.959 72.5181C121.959 72.4261 122.051 72.2421 122.051 72.1501C122.143 71.9661 122.235 71.7822 122.326 71.6902C122.418 71.5062 122.602 71.4142 122.694 71.3222C122.694 71.3222 122.694 71.3222 122.786 71.3222C122.786 71.3222 122.786 71.3222 122.694 71.4142C122.878 71.3222 122.97 71.2302 123.154 71.1383C123.246 71.1383 123.338 71.0463 123.43 71.0463C123.522 71.0463 123.706 71.0463 123.798 71.0463H123.89C123.982 71.0463 123.982 71.0463 124.074 71.0463C124.074 70.8623 124.166 70.8623 124.258 70.8623ZM122.694 71.2302C122.602 71.2302 122.602 71.2302 122.694 71.2302C122.602 71.2302 122.602 71.2302 122.694 71.2302Z" fill="#1C1C1C"/>
<path d="M130.971 62.5836C130.787 62.6756 130.603 62.8595 130.419 62.9515C130.143 63.2275 129.959 63.5034 129.683 63.7794C129.5 64.0554 129.316 64.3313 129.04 64.6073C128.672 65.1592 128.304 65.7111 127.936 66.263C127.568 66.815 127.2 67.4589 126.925 68.1028C126.557 68.8387 126.281 69.5745 126.005 70.3104C125.821 70.7704 126.189 71.2303 126.557 71.3223C126.741 71.4143 127.017 71.3223 127.2 71.2303C127.384 71.1383 127.476 70.9543 127.568 70.7704C127.66 70.4024 127.844 70.1265 127.936 69.7585C128.396 68.6547 128.948 67.6428 129.592 66.723C129.867 66.263 130.235 65.8031 130.511 65.3432C130.787 64.8832 131.063 64.5153 131.431 64.0554C131.891 64.5153 132.35 64.9752 132.718 65.4352C133.27 66.0791 133.73 66.723 134.282 67.3669C134.557 67.6428 134.741 68.0108 135.017 68.2867C135.293 68.5627 135.569 68.9306 135.845 69.2066C136.121 69.4826 136.397 69.8505 136.673 70.1265C136.765 70.2185 136.857 70.4024 137.04 70.4944C136.765 70.4944 136.581 70.4024 136.305 70.4024C135.477 70.3104 134.649 70.3104 133.73 70.4024C132.81 70.4024 131.983 70.5864 131.155 70.7704C130.327 70.8624 129.5 70.9543 128.764 71.2303C128.304 71.4143 127.936 71.5982 127.476 71.7822C127.384 71.8742 127.292 71.9662 127.2 72.0582C127.109 72.2422 127.017 72.5181 127.109 72.7021C127.2 72.8861 127.292 73.07 127.476 73.162C127.66 73.254 127.936 73.346 128.12 73.254C128.58 73.07 128.948 72.978 129.408 72.7941C129.867 72.7021 130.235 72.5181 130.695 72.5181C131.431 72.3341 132.166 72.2422 132.902 72.1502C134.282 71.9662 135.753 72.0582 137.132 72.1502C137.5 72.2422 137.868 72.2422 138.328 72.3341C138.512 72.3341 138.696 72.4261 138.788 72.4261C138.88 72.4261 139.064 72.4261 139.156 72.4261C139.248 72.4261 139.34 72.3341 139.34 72.3341C139.431 72.2422 139.523 72.1502 139.615 72.0582C139.707 71.9662 139.707 71.8742 139.707 71.7822C139.799 71.5063 139.707 71.3223 139.615 71.1383C139.615 71.0463 139.523 70.9543 139.431 70.8624C139.156 70.4944 138.88 70.1265 138.604 69.7585C138.328 69.4826 138.052 69.1146 137.776 68.8387C137.5 68.4707 137.316 68.1948 137.04 67.9188C136.765 67.6428 136.489 67.2749 136.213 66.9989C135.661 66.447 135.201 65.8031 134.741 65.2512C134.19 64.6073 133.73 63.9634 133.086 63.4115C132.81 63.1355 132.442 62.8595 132.074 62.5836C131.983 62.4916 131.891 62.4916 131.799 62.3996C131.707 62.3996 131.615 62.3996 131.523 62.3076C131.523 62.3076 131.523 62.3076 131.431 62.3076C131.247 62.3996 131.063 62.4916 130.971 62.5836ZM136.948 72.1502H137.04C137.04 72.1502 137.04 72.1502 136.948 72.1502Z" fill="#1C1C1C"/>
<path d="M130.879 79.2331C130.787 79.6931 130.695 80.153 130.603 80.6129C130.511 81.0729 130.511 81.4408 130.511 81.9007C130.511 82.2687 130.511 82.7286 130.603 83.0966C130.603 83.4645 130.695 83.9244 130.695 84.2924C130.787 85.1203 130.971 85.9481 131.155 86.868C131.339 87.6959 131.523 88.5238 131.799 89.2596C131.891 89.5356 131.983 89.8116 132.167 90.0875C132.259 90.3635 132.442 90.5475 132.534 90.8234C132.81 91.2834 133.178 91.7433 133.454 92.1112C133.454 92.1112 133.454 92.1112 133.546 92.2032C133.638 92.2952 133.73 92.3872 133.822 92.4792C134.19 92.9391 134.558 93.399 134.925 93.859C135.293 94.3189 135.661 94.7788 136.121 95.1468C136.397 95.4227 136.673 95.6067 136.949 95.7907C137.224 95.9747 137.5 96.0666 137.776 96.2506C138.052 96.4346 138.42 96.5266 138.696 96.6186C139.156 96.8025 139.524 96.9865 139.983 96.8945C140.075 96.8945 140.259 96.8945 140.351 96.8025C140.535 96.7106 140.627 96.5266 140.719 96.3426C140.811 95.9747 140.627 95.5147 140.167 95.4227H140.075C139.616 95.1468 139.064 94.9628 138.604 94.7788C138.144 94.5949 137.776 94.3189 137.316 94.0429C136.857 93.583 136.397 93.1231 135.937 92.5712C135.569 92.1112 135.109 91.5593 134.741 91.0994C134.466 90.7314 134.282 90.4555 134.006 90.0875C133.822 89.7196 133.546 89.3516 133.454 88.9837C133.27 88.6157 133.178 88.2478 133.086 87.7879C132.994 87.3279 132.81 86.96 132.718 86.5001C132.534 85.6722 132.35 84.7523 132.167 83.8324C132.075 82.8206 131.983 81.8087 132.075 80.7969C132.167 80.429 132.259 80.061 132.35 79.6931C132.442 79.3251 132.259 78.8652 131.891 78.7732C131.799 78.7732 131.799 78.7732 131.707 78.7732C131.247 78.7732 130.971 78.9572 130.879 79.2331ZM133.73 92.3872C133.73 92.2952 133.638 92.2952 133.638 92.2032C133.638 92.2952 133.73 92.2952 133.73 92.3872ZM133.454 92.0192C133.454 92.0192 133.454 91.9273 133.454 92.0192C133.454 91.9273 133.454 92.0192 133.454 92.0192Z" fill="#1C1C1C"/>
<path d="M124.258 100.942C124.074 100.942 123.982 101.126 123.89 101.218C123.798 101.402 123.798 101.494 123.798 101.678C123.89 102.138 123.982 102.506 124.074 102.966C124.166 103.334 124.35 103.794 124.534 104.161C124.901 104.897 125.269 105.633 125.637 106.369C126.465 107.749 127.476 109.037 128.58 110.233C128.856 110.509 129.132 110.785 129.5 111.06C129.867 111.336 130.235 111.612 130.603 111.888C130.971 112.072 131.247 112.348 131.615 112.44C131.983 112.624 132.442 112.808 132.81 112.9C133.546 113.084 134.374 113.268 135.109 113.36C135.937 113.452 136.765 113.636 137.684 113.636C138.052 113.636 138.42 113.636 138.788 113.636C138.972 113.636 139.064 113.636 139.248 113.544C139.431 113.452 139.615 113.268 139.615 113.084C139.707 112.9 139.615 112.624 139.523 112.44C139.431 112.256 139.248 112.072 139.064 112.072C138.328 111.98 137.684 111.98 136.948 111.888C136.305 111.888 135.661 111.796 135.017 111.704C134.557 111.612 134.19 111.612 133.73 111.52C133.27 111.428 132.81 111.336 132.35 111.152C132.074 111.06 131.799 110.877 131.523 110.693C131.247 110.509 130.971 110.325 130.787 110.141C129.683 109.221 128.764 108.209 127.844 107.105C127.017 106.001 126.281 104.805 125.637 103.518C125.545 103.15 125.361 102.874 125.269 102.506C125.177 102.138 125.085 101.678 124.993 101.31C124.901 101.034 124.626 100.85 124.35 100.85C124.35 100.942 124.258 100.942 124.258 100.942Z" fill="#1C1C1C"/>
<path d="M126.741 115.384C126.649 115.292 126.373 115.108 126.189 115.2C126.097 115.2 126.005 115.2 126.005 115.2C125.177 115.108 124.258 114.924 123.43 114.832C122.602 114.648 121.775 114.372 120.947 114.096C120.579 113.912 120.303 113.82 120.028 113.636C119.752 113.452 119.384 113.268 119.108 112.992C118.832 112.716 118.556 112.532 118.28 112.256C118.004 111.98 117.82 111.704 117.545 111.428C116.901 110.601 116.349 109.681 115.981 108.669C115.981 108.669 115.981 108.577 115.889 108.577C115.613 108.025 115.429 107.381 115.337 106.737C115.337 106.461 115.337 106.185 115.337 106.001C115.337 105.909 115.337 105.725 115.337 105.633C114.878 105.633 114.51 105.633 114.05 105.541C114.05 105.725 114.05 105.909 113.958 106.093C113.958 106.277 113.958 106.461 113.958 106.553C113.958 106.737 113.958 106.921 114.05 107.105C114.142 107.933 114.418 108.761 114.786 109.497C115.062 110.233 115.429 110.968 115.889 111.704C116.165 112.072 116.441 112.44 116.717 112.808C116.993 113.084 117.177 113.452 117.453 113.728C117.728 114.004 118.096 114.28 118.464 114.556C118.74 114.832 119.108 115.016 119.384 115.2C119.844 115.476 120.395 115.752 120.947 115.936C121.499 116.12 121.959 116.304 122.511 116.488C123.062 116.58 123.614 116.672 124.166 116.764C124.442 116.764 124.718 116.856 124.993 116.856C125.453 116.856 125.821 116.856 126.281 116.764C126.373 116.764 126.557 116.672 126.649 116.58C126.741 116.488 126.833 116.212 126.833 116.028C126.833 115.844 126.925 115.476 126.741 115.384Z" fill="#1C1C1C"/>
<path d="M70.3679 63.7794C70.092 63.9633 69.7242 64.1473 69.4483 64.3313C69.1724 64.4233 68.8045 64.6072 68.5286 64.7912C67.8849 65.2511 67.4251 65.8951 66.9653 66.539C66.7814 66.8149 66.5055 67.1829 66.3216 67.4588C66.1376 67.7348 65.9537 68.0107 65.6778 68.3787C65.31 69.0226 64.8502 69.5745 64.4823 70.2184C64.1145 70.8623 63.8386 71.5982 63.5627 72.3341C63.4707 72.702 63.3788 72.978 63.2868 73.346C63.1948 73.8059 63.1029 74.1738 63.1029 74.6338C63.0109 75.3697 63.0109 76.0136 62.9189 76.7495C62.9189 77.1174 62.9189 77.4853 62.9189 77.7613C62.9189 78.1293 62.9189 78.4972 63.0109 78.8651C63.1029 79.5091 63.1948 80.153 63.2868 80.7969C63.2868 81.0728 63.3788 81.3488 63.4707 81.6247C63.4707 81.8087 63.5627 81.9927 63.6546 82.1767C63.8386 82.5446 64.2064 82.7286 64.5743 82.7286C64.8502 82.7286 65.126 82.5446 65.218 82.3606C65.31 82.2686 65.31 82.0847 65.31 81.9927C65.31 81.9007 65.31 81.9007 65.31 81.8087C65.31 81.7167 65.31 81.5328 65.218 81.4408C65.218 81.3488 65.218 81.2568 65.126 81.0728C65.0341 80.7969 65.0341 80.5209 64.9421 80.3369C64.8502 79.877 64.7582 79.4171 64.6662 78.9571C64.6662 78.5892 64.5743 78.2212 64.5743 77.7613C64.5743 77.3014 64.5743 76.9334 64.5743 76.4735C64.5743 75.6456 64.5743 74.8177 64.6662 73.9899C64.8502 72.978 65.126 71.9662 65.4939 71.0463C65.8617 70.2184 66.3216 69.4825 66.6894 68.7466C67.1492 68.0107 67.609 67.1829 68.0688 66.539C68.3447 66.263 68.5287 65.987 68.8965 65.7111C69.1724 65.5271 69.4483 65.3431 69.7242 65.2511C70.092 65.0672 70.3679 64.8832 70.6438 64.6992C70.9197 64.5153 71.0116 64.2393 70.8277 63.9633C70.7357 63.7794 70.5518 63.6874 70.3679 63.6874C70.5518 63.6874 70.4599 63.6874 70.3679 63.7794Z" fill="#1C1C1C"/>
<path d="M83.8863 58.7201C83.2426 58.7201 82.6908 58.9041 82.139 58.9961C81.7712 59.088 81.5872 59.548 81.6792 59.8239C81.7712 60.1919 82.139 60.3758 82.5069 60.2839C82.8747 60.1919 83.1506 60.0999 83.5184 60.0999C83.7943 60.0999 84.0702 60.0999 84.2541 60.0999C84.4381 60.0999 84.714 60.1919 84.8979 60.1919C85.1738 60.2839 85.4496 60.3758 85.6336 60.4678C86.0934 60.6518 86.5532 60.7438 87.013 60.9278C87.2889 61.0198 87.5648 61.2037 87.9326 61.3877C88.3005 61.5717 88.6683 61.7556 89.0362 62.0316C89.6799 62.3995 90.2317 62.8595 90.7835 63.2274C91.2433 63.5954 91.6111 63.9633 92.0709 64.3313C92.4388 64.6992 92.8986 65.1591 93.2665 65.5271C93.6343 65.895 94.0941 66.355 94.462 66.8149C94.8298 67.1828 95.1057 67.6428 95.4735 68.0107C95.6575 68.2867 95.8414 68.5626 96.1173 68.6546C96.3932 68.8386 96.6691 68.8386 96.9449 68.6546C97.2208 68.4707 97.4048 68.1027 97.3128 67.7348C97.1289 67.1828 96.761 66.8149 96.3932 66.355C95.9334 65.7111 95.4736 65.0672 94.9218 64.5152C94.37 63.8713 93.8182 63.3194 93.1745 62.7675C92.5308 62.1236 91.887 61.6637 91.1513 61.2037C90.4156 60.7438 89.7719 60.2839 89.0362 59.9159C88.4844 59.64 87.9326 59.364 87.3809 59.18C86.8291 58.9961 86.2773 58.8121 85.8175 58.7201C84.9898 58.8121 84.4381 58.7201 83.8863 58.7201ZM84.2541 60.1919C84.3461 60.1919 84.3461 60.1919 84.2541 60.1919C84.3461 60.1919 84.3461 60.1919 84.2541 60.1919ZM96.3012 66.6309L96.3932 66.7229C96.3012 66.6309 96.3012 66.6309 96.3012 66.6309Z" fill="#1C1C1C"/>
<path d="M93.3584 59.4561C93.1745 59.6401 93.0825 59.916 93.0825 60.192C93.0825 60.4679 93.1745 60.7439 93.3584 60.9279C93.7263 61.2958 94.0021 61.6638 94.462 61.9397C94.8298 62.2157 95.1976 62.3996 95.5655 62.6756C96.1173 63.1355 96.669 63.5955 97.1289 64.1474C97.6806 64.6993 98.1404 65.2512 98.6003 65.8031C98.9681 66.3551 99.336 66.815 99.6118 67.4589C99.8877 68.0108 100.164 68.5627 100.439 69.1147C100.623 69.6666 100.807 70.2185 100.899 70.6784C100.991 70.9544 100.991 71.2304 101.083 71.5063C101.083 71.5983 101.083 71.6903 101.175 71.8742C101.267 72.2422 101.543 72.6101 101.911 72.7021C102.187 72.7021 102.371 72.7021 102.647 72.6101C102.831 72.5182 103.014 72.2422 103.106 71.9662C103.198 71.6903 103.106 71.4143 103.106 71.1384C103.106 70.8624 103.014 70.6784 103.014 70.4025C102.922 70.0345 102.831 69.5746 102.739 69.2066C102.463 68.1948 102.095 67.2749 101.635 66.3551C101.451 65.8951 101.175 65.5272 100.899 65.0673C100.623 64.6073 100.256 64.1474 99.8877 63.6875C99.5199 63.3195 99.152 62.9516 98.7842 62.5836C98.4163 62.2157 98.0485 61.8477 97.5887 61.4798C97.2208 61.2038 96.853 60.9279 96.4851 60.6519C96.2092 60.4679 95.9333 60.284 95.6575 60.1C95.3816 59.916 95.1977 59.6401 94.9218 59.3641C94.7378 59.1801 94.462 59.0881 94.1861 59.0881C93.8182 59.0881 93.5423 59.1801 93.3584 59.4561Z" fill="#1C1C1C"/>
<path d="M100.899 59.5481C100.715 59.916 100.807 60.3759 101.175 60.5599C101.635 60.8359 102.003 61.1118 102.463 61.3878C102.831 61.6638 103.29 61.8477 103.658 62.1237C103.842 62.3077 104.026 62.4916 104.21 62.5836C104.394 62.7676 104.578 62.9516 104.67 63.1355C104.946 63.5035 105.222 63.8714 105.405 64.2394C105.681 64.6073 105.865 65.0673 106.049 65.5272C106.325 66.1711 106.509 66.907 106.693 67.5509C106.877 68.2868 106.969 69.0227 107.153 69.8506C107.245 70.4025 107.337 71.0464 107.337 71.5983C107.337 71.8743 107.429 72.2422 107.429 72.5182C107.429 72.8861 107.429 73.2541 107.521 73.622V73.53C107.521 73.714 107.613 73.898 107.705 73.9899C107.888 74.1739 108.072 74.1739 108.348 74.1739C108.624 74.1739 108.716 73.898 108.808 73.714C108.9 73.53 108.9 73.2541 108.9 72.9781C108.9 72.7941 108.9 72.6102 108.9 72.4262C108.9 72.0582 108.808 71.7823 108.808 71.4143C108.716 70.6784 108.624 69.8506 108.532 69.1147C108.256 67.5509 107.888 65.9871 107.245 64.5153C106.969 63.9634 106.693 63.4115 106.325 62.9516C105.957 62.3996 105.589 61.9397 105.13 61.4798C104.946 61.2958 104.67 61.0199 104.394 60.8359C104.118 60.6519 103.842 60.3759 103.474 60.192C102.923 59.824 102.371 59.5481 101.911 59.1801C101.819 59.0881 101.635 59.0881 101.543 59.0881C101.359 59.0881 101.083 59.2721 100.899 59.5481Z" fill="#1C1C1C"/>
<path d="M107.98 60.2839C107.888 60.3759 107.796 60.5599 107.888 60.7438C107.98 60.8358 108.072 60.9278 108.164 61.0198C108.256 61.1118 108.348 61.2038 108.44 61.2957C108.532 61.3877 108.716 61.3877 108.808 61.2957C108.9 61.3877 108.992 61.3877 108.992 61.4797C109.268 61.6637 109.544 61.8477 109.82 62.0316C110.096 62.3076 110.371 62.4916 110.647 62.7675C110.923 63.0435 111.107 63.2275 111.291 63.5034C111.659 63.9633 111.935 64.4233 112.211 64.8832C112.487 65.4351 112.762 65.9871 113.038 66.447C113.406 67.2749 113.682 68.1947 113.958 69.0226C114.05 69.4825 114.142 69.9425 114.234 70.4024C114.234 70.5864 114.326 70.8623 114.326 71.0463C114.326 71.1383 114.326 71.3223 114.418 71.4142C114.418 71.5062 114.418 71.5062 114.418 71.5982C114.51 71.8742 114.602 72.0582 114.878 72.1501C115.245 72.4261 115.889 72.1501 115.981 71.6902C116.073 71.3223 115.981 70.8623 115.889 70.4944C115.797 70.2184 115.797 69.9425 115.705 69.6665C115.613 69.1146 115.429 68.5627 115.245 68.0108C115.062 67.4588 114.786 66.8149 114.51 66.263C114.234 65.7111 113.958 65.1592 113.682 64.6992C113.314 64.1473 112.946 63.5954 112.579 63.0435C112.303 62.6755 112.027 62.3076 111.659 62.0316C111.291 61.6637 110.923 61.3877 110.555 61.1118C110.279 60.9278 109.912 60.6518 109.544 60.4679C109.36 60.3759 109.176 60.2839 108.9 60.1919C108.716 60.0999 108.532 60.0079 108.348 60.0079C108.256 60.1919 108.072 60.1919 107.98 60.2839ZM112.579 63.1355L112.487 63.0435L112.579 63.1355Z" fill="#1C1C1C"/>
<path d="M106.785 56.7884C106.693 57.1564 106.877 57.7083 107.337 57.8003C107.797 57.8923 108.256 57.9843 108.624 58.1682C108.992 58.2602 109.36 58.4442 109.728 58.5362C110.28 58.8121 110.831 58.9961 111.383 59.2721C111.659 59.456 111.935 59.548 112.211 59.732C112.395 59.824 112.671 60.008 112.854 60.1919C113.774 60.9278 114.602 61.8477 115.429 62.6756C115.797 63.1355 116.257 63.5034 116.717 63.8714C117.085 64.2393 117.453 64.6073 117.82 65.0672C118.28 65.7111 118.648 66.263 119.016 66.907C119.384 67.5509 119.66 68.2867 120.028 68.9307C120.211 69.2986 120.671 69.4826 121.039 69.3906C121.315 69.2986 121.499 69.2066 121.591 68.9307C121.683 68.7467 121.775 68.4707 121.683 68.1948C121.315 67.2749 120.855 66.447 120.395 65.6191C120.211 65.2512 119.936 64.8832 119.66 64.5153C119.384 64.0554 119.016 63.6874 118.648 63.3195C118.372 62.9515 118.004 62.6756 117.637 62.3076C117.269 62.0317 116.993 61.7557 116.717 61.4797C116.073 60.8358 115.337 60.1 114.694 59.456C114.234 58.9961 113.682 58.6282 113.13 58.2602C112.579 57.8923 112.027 57.6163 111.383 57.4323C110.831 57.1564 110.188 56.8804 109.636 56.6965C108.992 56.5125 108.348 56.3285 107.797 56.1445C107.705 56.1445 107.705 56.1445 107.613 56.1445C107.153 56.2365 106.877 56.4205 106.785 56.7884ZM109.728 58.5362H109.82C109.82 58.5362 109.82 58.5362 109.728 58.5362Z" fill="#1C1C1C"/>
<path d="M99.8879 50.8093C99.0602 50.9013 98.1406 50.9933 97.3129 51.0853C96.5772 51.1773 95.8415 51.3612 95.1058 51.5452C92.7148 52.0971 90.3238 52.741 88.0247 53.6609C88.1167 53.6609 88.1167 53.6609 88.2086 53.5689C87.381 53.9369 86.5533 54.3048 85.7257 54.7647C85.3578 54.9487 84.99 55.2247 84.6221 55.5006C84.2543 55.7766 83.8864 56.1445 83.5186 56.5125C83.3346 56.6965 83.3346 57.0644 83.5186 57.3404C83.7025 57.5243 84.0703 57.5243 84.3462 57.3404C84.6221 57.0644 84.898 56.8804 85.1739 56.6045C86.0935 55.9606 87.1051 55.5006 88.1167 55.0407C88.0247 55.0407 88.0247 55.0407 87.9327 55.1327C89.4041 54.5808 90.8755 54.0289 92.4389 53.6609C94.0023 53.293 95.4737 52.925 97.037 52.6491C97.3129 52.5571 97.6808 52.5571 97.9566 52.4651C100.072 52.1891 102.187 52.2811 104.21 52.5571C104.946 52.6491 105.681 52.741 106.325 52.925C107.061 53.109 107.889 53.293 108.624 53.4769C109.36 53.6609 110.188 53.8449 110.923 54.0288C111.291 54.1208 111.659 54.3048 112.027 54.4888C112.395 54.5808 112.763 54.7647 113.038 54.8567C113.314 54.9487 113.59 55.0407 113.774 55.1327C114.878 55.5926 115.889 56.1445 116.901 56.8804C117.361 57.2484 117.729 57.6163 118.188 58.0763C118.648 58.5362 119.108 58.9961 119.568 59.4561C120.028 59.916 120.395 60.2839 120.763 60.7439C121.131 61.2038 121.591 61.6637 121.959 62.1237C122.235 62.4916 122.419 62.7676 122.695 63.1355C122.97 63.5035 123.246 63.8714 123.43 64.2393C123.89 64.8833 124.166 65.6191 124.442 66.355C124.534 66.539 124.534 66.631 124.626 66.815C124.718 66.9989 124.718 67.0909 124.81 67.2749C124.902 67.4589 124.994 67.5509 125.086 67.6428C125.361 67.9188 125.821 68.0108 126.097 67.7348C126.465 67.5509 126.557 67.1829 126.465 66.723C126.373 66.447 126.281 66.1711 126.189 65.8031C126.005 65.4352 125.913 64.9752 125.729 64.6073C125.545 64.2394 125.453 63.8714 125.269 63.5954C125.086 63.2275 124.902 62.9515 124.626 62.5836C124.166 61.9397 123.614 61.2038 123.154 60.5599C122.695 60.008 122.143 59.456 121.591 58.9041C121.039 58.3522 120.487 57.8003 119.844 57.2484C119.568 56.9724 119.2 56.6965 118.924 56.4205C118.648 56.1445 118.372 55.8686 118.096 55.6846C116.809 54.6728 115.338 53.8449 113.774 53.293C113.038 53.017 112.303 52.741 111.567 52.4651C110.831 52.1891 110.004 52.0971 109.268 51.9132C108.532 51.7292 107.705 51.5452 106.969 51.4532C106.601 51.3612 106.233 51.2693 105.865 51.2693C105.406 51.1773 104.946 51.1773 104.578 51.0853C103.566 50.9933 102.555 50.9013 101.451 50.9013C101.083 50.7173 100.532 50.7173 99.8879 50.8093ZM104.118 52.4651H104.21H104.118Z" fill="#1C1C1C"/>
<path d="M80.0238 60.4678C57.9528 72.0581 60.3438 105.909 85.0817 112.532C95.3815 115.292 106.877 113.912 115.061 106.553C122.786 99.5621 126.833 88.0638 124.442 77.9453C124.166 76.9334 122.694 77.3933 122.878 78.4052C125.085 87.6958 121.407 98.4582 114.418 104.989C107.153 111.796 96.9448 113.452 87.3808 111.428C62.8268 106.277 58.8724 73.2539 80.7595 61.7556C81.6791 61.2957 80.8514 60.0079 80.0238 60.4678Z" fill="#1C1C1C"/>
<path d="M82.8746 91.0994C83.8862 91.9273 84.8978 92.5712 86.2772 92.6632C87.4727 92.6632 88.4843 92.2033 89.4039 91.4674C90.1396 90.8235 89.0361 89.6276 88.3004 90.3635C86.9209 91.6513 85.3576 91.0994 84.0701 89.9956C83.2424 89.2597 82.0469 90.4555 82.8746 91.0994Z" fill="#1C1C1C"/>
<path d="M104.302 87.236C105.318 87.236 106.141 86.4123 106.141 85.3962C106.141 84.3802 105.318 83.5565 104.302 83.5565C103.286 83.5565 102.463 84.3802 102.463 85.3962C102.463 86.4123 103.286 87.236 104.302 87.236Z" fill="#1C1C1C"/>
<path d="M76.0696 81.5327C76.0696 82.5446 75.2419 83.3724 74.2304 83.3724C73.2188 83.3724 72.3911 82.5446 72.3911 81.5327C72.3911 80.5209 73.2188 79.693 74.2304 79.693C75.2419 79.693 76.0696 80.5209 76.0696 81.5327Z" fill="#1C1C1C"/>
<path d="M79.9319 56.9724C71.2874 57.2484 61.2635 63.3195 60.5278 72.7941C60.4359 73.8059 61.9992 73.8059 62.0912 72.7941C62.7349 64.3313 72.299 58.8121 79.8399 58.6282C80.9435 58.5362 80.9435 56.9724 79.9319 56.9724Z" fill="#1C1C1C"/>
<path d="M102.463 98.8262C104.088 98.8262 105.406 97.5083 105.406 95.8827C105.406 94.257 104.088 92.9391 102.463 92.9391C100.838 92.9391 99.52 94.257 99.52 95.8827C99.52 97.5083 100.838 98.8262 102.463 98.8262Z" fill="#F7B7C9"/>
<path d="M79.6561 92.8471C79.6561 94.5029 78.2767 95.7907 76.7133 95.7907C75.1499 95.7907 73.7705 94.4109 73.7705 92.8471C73.7705 91.1914 75.1499 89.9036 76.7133 89.9036C78.2767 89.9036 79.6561 91.1914 79.6561 92.8471Z" fill="#F7B7C9"/>
<path d="M121.407 107.013C122.603 111.52 125.361 114.74 129.96 115.936C130.971 116.212 131.339 114.648 130.419 114.372C126.281 113.36 123.982 110.6 122.97 106.553C122.694 105.633 121.131 106.001 121.407 107.013Z" fill="#1C1C1C"/>
<path d="M125.545 93.307C125.637 99.5621 129.867 104.713 136.029 105.909C137.04 106.093 137.408 104.621 136.489 104.345C131.063 103.242 127.292 98.9182 127.2 93.307C127.109 92.2951 125.545 92.2951 125.545 93.307Z" fill="#1C1C1C"/>
<path d="M127.476 83.8325C127.292 87.512 128.304 90.6395 131.431 92.7552C132.258 93.3071 133.086 91.9273 132.258 91.3754C129.592 89.5357 128.948 86.868 129.132 83.8325C129.132 82.8206 127.568 82.8206 127.476 83.8325Z" fill="#1C1C1C"/>
<path d="M133.27 97.5385C134.925 102.322 138.696 104.161 143.478 104.161C144.489 104.161 144.489 102.598 143.478 102.598C139.431 102.598 136.213 101.31 134.833 97.1705C134.465 96.1587 132.902 96.5266 133.27 97.5385Z" fill="#1C1C1C"/>
<path d="M120.671 131.665C122.418 132.769 124.35 133.137 126.281 132.861C127.292 132.677 126.833 131.205 125.821 131.297C124.258 131.573 122.694 131.113 121.407 130.286C120.579 129.734 119.752 131.113 120.671 131.665Z" fill="#1C1C1C"/>
<path d="M119.108 133.137C120.12 135.069 121.867 137.093 124.258 136.909C125.269 136.817 125.269 135.253 124.258 135.345C122.327 135.437 121.223 133.873 120.395 132.309C120.028 131.481 118.648 132.309 119.108 133.137Z" fill="#1C1C1C"/>
<path d="M121.223 129.642C122.786 129.918 124.35 130.194 125.913 130.102C126.925 130.01 126.925 128.446 125.913 128.538C124.442 128.722 123.062 128.354 121.591 128.17C120.579 127.986 120.212 129.458 121.223 129.642Z" fill="#1C1C1C"/>
<path d="M61.5395 106.921C64.2984 110.233 67.3331 113.544 71.7473 114.464C75.7017 115.2 79.5641 113.912 82.8748 111.98C83.7944 111.428 82.9667 110.049 82.0471 110.6C78.7365 112.532 74.7821 113.82 70.9197 112.716C67.3331 111.612 64.8501 108.669 62.5511 105.909C61.9993 105.081 60.8958 106.185 61.5395 106.921Z" fill="#1C1C1C"/>
<path d="M103.382 112.256C104.854 120.811 110.003 128.63 119.016 130.378C120.027 130.562 120.395 128.998 119.476 128.814C111.015 127.158 106.325 119.891 104.946 111.796C104.762 110.785 103.198 111.244 103.382 112.256Z" fill="#1C1C1C"/>
<path d="M75.8855 95.2387C77.173 109.497 96.4851 110.692 102.003 98.6423C102.463 97.7224 101.083 96.8945 100.623 97.8144C98.5082 102.506 94.186 105.817 88.9441 105.633C83.3344 105.449 78.0006 101.034 77.4489 95.2387C77.3569 94.2269 75.7935 94.2269 75.8855 95.2387Z" fill="#1C1C1C"/>
<path d="M51.8717 30.4685C51.8717 30.4685 56.3778 3.42444 67.4133 7.19589C80.5639 11.7032 71.0918 53.741 52.8833 50.6135C25.0187 45.7382 14.535 8.94363 31.1802 6.27602C44.4227 4.06835 51.8717 30.4685 51.8717 30.4685Z" fill="#CB7977"/>
<path d="M55.5501 101.114C50.1244 96.9747 50.7681 89.9838 53.8029 84.6485C55.3662 81.9809 58.1251 80.0492 57.5733 76.6457C57.0215 73.1502 54.7225 69.2868 53.0672 66.2513C51.5038 63.4917 49.6646 61.1 50.2163 57.5125C50.4922 55.4888 51.8717 53.0052 52.6074 51.0735C52.8832 50.3376 51.7797 50.0616 51.5038 50.7975C50.3083 54.201 47.8253 58.0645 49.1128 61.7439C51.5038 68.4589 59.2286 73.9781 54.5386 81.797C50.5842 88.42 47.8253 96.6068 55.0903 102.126C55.5501 102.586 56.1019 101.574 55.5501 101.114Z" fill="#1C1C1C"/>
<path d="M74.4951 15.8434C73.2076 10.6922 67.322 3.9772 61.6204 7.93261C58.6776 9.95632 57.2062 14.1877 55.9187 17.3152C54.3553 20.9947 53.1598 24.7661 52.2402 28.6296C49.7572 21.2707 46.8144 13.3598 40.3771 8.57652C34.3995 4.06918 26.7666 5.54097 24.0078 12.8999C21.065 21.0867 25.1113 30.8372 30.1692 37.1843C35.5031 43.8993 43.044 48.3147 51.0447 50.9823C51.0447 51.2582 51.2286 51.5342 51.5045 51.5342C59.5052 52.1781 65.8506 46.6589 69.3452 39.9439C72.9317 33.1369 76.4263 23.5703 74.4951 15.8434ZM74.0353 21.0867C73.4835 32.585 66.4024 50.4304 52.9759 50.6143C52.9759 50.6143 52.8839 50.5223 52.792 50.5223C38.8137 46.199 24.4676 35.1606 24.0997 19.2469C24.0078 14.7396 25.3872 9.77234 29.7094 7.56467C34.3995 5.17302 39.2735 8.30056 42.4922 11.6121C47.3662 16.7633 49.6653 23.8463 51.8724 30.4693C52.0563 30.9292 52.7 30.9292 52.792 30.4693C54.1714 24.3982 56.1026 18.4191 59.0454 12.8999C61.6204 7.93261 66.5863 6.09289 70.8166 10.6922C73.3915 13.4518 74.2192 17.4072 74.0353 21.0867Z" fill="#1C1C1C"/>
<path d="M50.6762 50.6135L48.561 53.3731L51.2279 53.1891L52.4235 55.0289L52.8833 51.0735L50.6762 50.6135Z" fill="#1C1C1C"/>
</g>
<defs>
<filter id="filter0_d" x="17.9956" y="0" width="135" height="171" filterUnits="userSpaceOnUse" color-interpolation-filters="sRGB">
<feFlood flood-opacity="0" result="BackgroundImageFix"/>
<feColorMatrix in="SourceAlpha" type="matrix" values="0 0 0 0 0 0 0 0 0 0 0 0 0 0 0 0 0 0 127 0"/>
<feOffset dy="4"/>
<feGaussianBlur stdDeviation="2"/>
<feColorMatrix type="matrix" values="0 0 0 0 0 0 0 0 0 0 0 0 0 0 0 0 0 0 0.1 0"/>
<feBlend mode="normal" in2="BackgroundImageFix" result="effect1_dropShadow"/>
<feBlend mode="normal" in="SourceGraphic" in2="effect1_dropShadow" result="shape"/>
</filter>
<clipPath id="clip0">
<rect width="127" height="163" fill="white" transform="translate(21.9956)"/>
</clipPath>
</defs>
</svg>
