<svg width="127" height="100" viewBox="0 0 127 100" fill="none" xmlns="http://www.w3.org/2000/svg">
<path opacity="0.7" d="M126.157 45.6817C124.463 49.5421 120.508 49.7099 117.4 48.8707C117.542 49.8778 117.542 51.0527 117.542 51.8919C117.4 55.0809 115.705 57.5985 113.869 59.6126C109.914 64.1444 103.7 65.9906 98.6147 63.473C98.756 66.3263 98.4735 68.6761 96.9198 71.0259C94.9424 73.7114 91.4112 75.3898 88.5863 76.0612C85.6202 76.9004 82.0891 75.7255 79.4054 74.0471C78.558 73.5436 77.8518 72.8722 77.2868 72.2008C76.5806 75.5577 75.5918 78.0753 72.767 79.5859C69.5183 81.4322 65.5635 81.2643 62.1736 80.2573C56.3826 78.5788 51.439 73.3757 50.309 66.4942C49.6028 67.5012 48.7553 68.3404 48.0491 69.0118C45.3655 72.033 41.5519 72.7043 37.8795 73.04C30.8173 73.5436 25.7325 69.5153 22.3426 62.466C19.6589 65.4871 15.1391 66.4942 11.608 65.655C10.7605 65.4871 10.0543 65.1514 9.20683 64.9836C4.96949 62.2981 1.01464 59.2769 0.167174 53.0668C-0.539049 47.1923 1.01464 41.9892 4.40451 38.1288C6.52319 36.2825 9.20684 35.6111 12.0317 35.779C12.0317 35.1076 12.0317 34.4363 12.173 33.597C12.8792 30.0723 15.9866 27.7226 18.529 26.212C23.755 23.3587 32.6535 22.1838 37.1733 27.5547C37.1733 27.3869 37.1733 27.3869 37.3145 27.219C38.0208 25.2049 39.292 23.5265 40.8456 22.0159C43.6705 19.1626 47.9079 17.652 51.5802 16.4771C58.2187 14.463 66.5522 18.9948 68.6709 26.8834C69.2358 24.5336 71.072 22.5194 72.6257 21.5124C75.4506 19.4983 78.558 18.9948 81.8066 19.834C85.7615 20.841 89.9988 24.5336 90.9875 29.2331C93.1062 24.5336 99.4622 24.8692 103.135 26.7155C105.253 27.8904 107.654 30.0724 108.784 32.9257C110.056 31.2473 113.304 30.5759 114.717 30.5759C118.248 30.408 121.779 31.9186 124.321 34.9398C126.864 37.6253 127.852 42.157 126.157 45.6817Z" fill="#EAF5FB"/>
<g clip-path="url(#clip0)" filter="url(#filter0_d)">
<path d="M74.0899 62.0395C74.0899 61.9891 74.0393 61.8882 74.0393 61.8378C74.0393 61.7873 74.0393 61.7874 74.0393 61.7369C73.8369 61.1821 73.6345 60.6777 73.4828 60.1733C72.9769 56.6931 72.2686 53.3641 70.8015 50.0352C70.5485 49.4299 70.0932 49.0264 69.5873 48.7238C69.4356 48.4211 69.2838 48.1185 69.132 47.8159C68.0696 45.9496 65.5401 45.2939 63.6683 46.4036C62.5553 47.0593 61.847 47.9672 61.4423 48.9759C61.3917 48.8751 61.3411 48.7238 61.2399 48.6229C60.2281 46.908 57.8504 46.6558 56.4339 48.0176C55.3715 49.0768 55.0173 50.4387 54.8656 51.9014C54.2585 52.9102 53.8538 53.9189 53.449 55.0286C53.0949 55.8356 52.7914 56.6426 52.589 57.5001C51.8302 59.6689 51.0207 61.8378 51.1725 64.158C50.7172 64.965 50.363 65.8729 50.1101 66.7303C48.9971 70.4628 53.4996 72.329 56.1303 70.2106C56.4845 69.9584 56.788 69.6558 57.0409 69.3027C59.2163 70.4628 62.0494 70.1097 64.3765 70.0593C66.7037 70.0088 69.4356 70.2106 71.6109 69.3531C74.6969 68.0417 75.0005 64.965 74.0899 62.0395Z" fill="#0090C1"/>
<path d="M85.7754 19.6207C85.6237 19.6207 85.5225 19.6207 85.3707 19.6207C85.1684 19.2172 84.9154 18.8641 84.6119 18.4606C81.88 14.6273 77.6304 12.1558 73.0773 11.0461C68.6254 8.01982 62.9087 7.16237 57.4955 7.96938C54.713 8.37289 51.88 9.38166 49.3505 10.8444C48.9963 10.9957 48.6928 11.147 48.3387 11.3488C48.1363 11.2983 47.9339 11.2983 47.7316 11.2983C44.1397 11.3992 39.8395 14.9299 37.6641 17.5527C37.3606 17.9058 37.1076 18.2589 36.8547 18.6119C34.8817 16.6953 30.9862 17.3005 30.278 20.4782C29.4179 21.7896 29.165 23.6054 30.0756 24.8159C30.0756 24.7654 30.0756 24.715 30.025 24.6646C30.4803 26.0768 31.8463 26.9847 33.2628 27.1865C33.111 28.4979 33.1616 29.8093 33.4146 31.0703C34.4264 36.0637 39.1313 39.544 43.6338 41.2589C44.6962 41.6624 45.9609 42.1163 47.3269 42.4694C51.02 46.0505 58.5073 46.101 60.7839 49.4804C63.8699 49.8839 66.7535 47.5133 69.4348 46.6558C73.6844 45.294 77.4281 44.6383 80.3117 40.8049C81.4753 39.7457 82.5883 38.6361 83.4989 37.3751C84.9154 35.5089 86.0284 33.2896 86.6355 31.0198C86.7872 30.9694 86.9896 30.9694 87.0908 30.9694C87.9508 31.0198 88.8109 30.8181 89.6203 30.6668C91.5427 30.3137 93.2122 28.6997 94.0722 27.0856C97.1582 21.4365 89.9238 16.3422 85.7754 19.6207Z" fill="#FDF0DA"/>
<path d="M68.5757 27.0854C67.4627 27.2872 66.198 28.296 65.6415 28.6995C62.9602 27.8925 59.9248 27.9933 57.1929 27.9933C56.687 27.9933 56.1811 28.0942 55.7764 28.296C55.1693 28.3464 54.6128 28.5482 54.0057 28.9012C52.8421 29.6074 52.5892 31.0701 53.2469 32.1797C53.1963 33.4407 53.7528 34.7017 55.2199 35.3574C58.5082 36.8201 61.999 38.081 65.6415 37.8289C67.0074 37.728 68.0698 37.1732 68.7275 36.3661C69.1828 36.1644 69.6381 35.9122 70.0428 35.66C71.1052 34.9539 70.5993 35.206 71.7123 34.399C75.5066 31.7762 73.1794 26.3289 68.5757 27.0854Z" fill="#F08E7E"/>
<path d="M48.2872 21.9912C46.8201 19.4189 42.9247 18.0066 40.3952 19.9737C39.7881 20.4276 39.2316 20.9825 38.7763 21.5877C37.3597 23.454 37.3597 26.329 38.7763 28.1952C39.6869 29.4057 40.6481 30.2127 42.1152 30.7171C43.5317 31.2215 45.2518 30.818 46.5166 30.1118C49.4002 28.4474 49.8555 24.7149 48.2872 21.9912Z" fill="#F7BFA7"/>
<path d="M85.9272 25.0679C85.9272 25.0174 85.9272 24.967 85.9272 24.9165C85.8766 23.9078 85.7248 23.6051 85.3201 22.6972C84.8142 21.5876 83.6506 20.9823 82.5882 20.5284C81.627 20.1249 80.4128 20.1753 79.4516 20.4275C77.7315 20.8815 76.1126 22.445 75.8091 24.2104C75.6573 25.2192 75.6067 25.9253 75.8597 26.9341C76.1126 27.8924 76.5679 28.5481 77.175 29.3047C78.288 30.717 80.514 31.2214 82.1835 30.6665C83.4988 30.263 84.2577 29.456 85.0165 28.3968C85.6236 27.6402 85.7754 26.6819 85.8766 25.7236C85.9778 25.5722 85.9778 25.3201 85.9272 25.0679Z" fill="#F7BFA7"/>
<path d="M77.1243 71.6732C77.1748 69.8574 75.6571 68.7477 74.0382 68.5964C71.357 68.3442 68.7263 68.8486 66.045 68.6973C63.6167 68.5964 61.2895 68.546 59.3165 70.1096C58.6588 70.2105 58.0517 70.3618 57.4952 70.614C56.6858 70.3113 55.7752 70.3113 55.0163 70.8157C54.6622 71.0175 54.4092 71.2697 54.2069 71.5219C54.0551 71.5219 53.9033 71.5723 53.701 71.6227C53.6504 71.6227 53.5492 71.6732 53.4986 71.7236C52.6892 70.0087 49.6538 69.8574 49.1984 72.0767C49.0467 72.7324 48.9455 73.3376 48.7937 73.9933C48.5408 75.2039 49.249 76.4648 50.2608 77.1205C50.5644 77.5745 51.0197 77.8771 51.475 78.0789C51.728 78.2806 52.0315 78.3815 52.3856 78.4319C53.3468 79.7938 55.5222 79.8442 56.8882 78.6337C58.2035 78.6841 59.4683 78.0284 59.6706 76.5153C59.7212 76.2631 59.7718 76.1118 59.7718 76.0109C59.9742 75.9605 60.2271 75.91 60.4295 75.8596C61.2895 75.7083 62.3013 75.8091 63.2119 75.8596C63.9202 75.8596 64.6791 75.91 65.4379 75.8596C65.2861 80.1973 70.2946 81.5087 73.9877 79.2894C74.6959 78.8859 75.1512 78.1798 75.3536 77.4736C76.8713 76.1118 77.0737 73.7412 77.1243 71.6732Z" fill="#F5A400"/>
<path d="M50.1104 88.5196C48.441 87.0569 45.7597 87.8639 44.0902 86.4012C43.3819 85.7959 42.0666 86.3507 42.4207 87.3595C42.8255 88.6205 43.6349 89.6797 44.6467 90.4867C45.9115 91.4451 48.2892 92.3025 49.7563 91.3442C50.6669 90.7894 51.0211 89.3771 50.1104 88.5196Z" fill="#EA4D07"/>
<path d="M83.1448 87.511C81.2224 87.9649 79.2493 87.9145 77.2763 88.2171C75.6574 88.4693 75.708 91.1426 77.2763 91.4452C79.6035 91.8487 81.9812 92.2522 84.3084 91.7478C87.0908 91.0921 85.9272 86.8553 83.1448 87.511Z" fill="#EA4D07"/>
<path d="M86.0792 87.1578C85.9274 85.9473 84.865 85.5438 83.752 85.4429C82.0319 85.2916 80.0083 85.7456 78.3389 86.1995C77.5294 86.4013 76.72 86.7039 75.9105 86.9561C75.8093 87.0065 74.8481 87.2083 74.8987 87.2083C74.7469 87.0065 74.7469 86.6535 74.6964 86.4013C74.494 85.2916 74.241 84.2324 74.0387 83.1227C73.9375 82.5679 73.8363 81.9627 73.7857 81.4078C73.7351 81.1556 73.7351 80.9539 73.7351 80.7017C73.7351 80.5504 73.7351 80.4495 73.7351 80.3991C73.8363 80.2982 73.8869 80.1469 73.8869 79.9956C74.9493 79.8947 76.1635 79.592 76.9729 78.9363C77.6812 78.3815 77.6306 77.171 77.5294 76.4144C77.3776 74.9013 77.5294 73.2872 77.58 71.7741C77.6306 70.0087 77.7824 68.1425 76.6694 66.6293C76.5682 66.478 76.467 66.4276 76.3658 66.4276C76.1635 63.1995 75.2023 60.1732 74.3422 57.046C73.7857 55.0284 73.1786 53.0109 72.6222 51.0438C72.3692 50.1359 72.1163 49.228 71.7621 48.3201V48.2697C72.5716 48.5723 73.3304 48.9254 74.1399 49.228C75.2528 49.6315 76.5682 49.6315 77.7318 49.6315C80.1095 49.682 82.639 49.2785 84.9662 48.5723C89.1146 47.2609 92.6559 44.5372 95.3878 41.2083C96.7537 39.4934 97.9173 37.5767 98.7773 35.5591C99.8903 32.9363 100.953 30.3135 101.712 27.5394C102.217 25.7236 102.47 23.807 102.723 21.8903C102.774 21.3859 102.875 20.7302 102.825 20.0745C103.988 19.1162 104.595 17.5021 105.05 16.1403C105.303 15.3333 104.039 14.9802 103.786 15.7872C103.786 15.8881 103.735 15.9385 103.685 16.0394C103.735 15.4341 103.634 14.8289 103.33 14.2741C102.926 13.5679 101.762 14.1732 102.167 14.8793C102.673 15.7368 102.217 16.9977 101.762 18.1578C101.712 18.1578 101.661 18.1074 101.61 18.1074C101.61 17.8552 101.408 17.6534 101.206 17.5526C101.155 16.7455 101.206 15.8881 101.206 15.0811C101.206 14.2236 99.8903 14.2236 99.8903 15.0306C99.8903 15.6863 100.042 16.4429 99.9409 17.0986C99.7385 16.4934 99.5867 15.8881 99.4856 15.2828C99.3338 14.4758 98.069 14.7784 98.2208 15.5855C98.4738 16.9977 98.9797 19.217 100.497 19.7719C100.75 19.8727 100.902 19.8223 101.054 19.671C100.75 20.0745 101.003 20.7806 101.509 20.7302C101.459 21.4868 101.256 22.3442 101.206 22.7477C100.902 24.8157 100.497 26.7828 99.8903 28.7499C98.5749 33.0372 96.8043 37.3749 93.9206 40.8048C91.3911 43.8311 88.0522 46.1513 84.3085 47.3113C82.2343 47.967 79.9072 48.2192 77.7318 48.2192C76.5176 48.2192 75.2528 48.1688 74.0893 47.7148C72.9763 47.3113 71.9139 46.7565 70.7503 46.5043C70.6997 46.4034 70.6997 46.2521 70.6491 46.1513C75.6576 44.5372 80.7166 41.5613 83.4991 37.0723C85.1179 34.4999 85.9274 31.5241 86.5345 28.5986C86.5345 28.4977 86.5851 28.3969 86.5851 28.296C88.4569 29.4056 90.6323 29.4056 92.5041 28.296C94.6289 27.035 95.3372 24.8157 94.4771 22.546C93.7183 20.5789 91.5429 19.0657 89.5193 18.7631C88.5581 18.6118 87.4957 19.1162 86.9898 19.8727C86.5345 17.7039 85.6238 15.7368 84.2073 13.9714C82.3861 11.7521 79.7048 10.1381 77.1247 8.97801C75.8599 8.42318 74.5952 7.91879 73.3304 7.46485C73.5834 6.70827 73.7351 5.95169 73.6846 5.14467C73.6846 4.74116 73.4316 4.53941 73.0269 4.48897C71.9139 4.33765 71.1045 5.6995 70.548 6.45608C70.4974 6.50651 70.4974 6.55695 70.4468 6.60739C70.2444 6.55695 70.0421 6.50651 69.8397 6.45608C70.3456 5.4473 70.8515 4.33765 70.8515 3.17757C70.8515 2.77406 70.4468 2.42099 70.0421 2.52186C69.2832 2.72362 68.6255 3.27844 68.069 3.88371C68.4232 3.12713 68.6761 2.37055 68.6255 1.56353C68.6255 1.10958 68.2714 0.85739 67.8161 0.907829C66.1466 1.21046 64.8819 2.67318 63.7689 3.83327C63.3136 4.33765 62.8077 4.89248 62.3523 5.39686C62.3018 5.39686 62.3018 5.39686 62.2512 5.39686C62.7065 4.58985 63.0606 3.73239 63.01 2.8245C62.9594 2.32011 62.5041 2.01748 62.0488 2.21923C60.6323 2.87493 59.6711 4.08546 58.6087 5.24555C58.5581 5.24555 58.5581 5.24555 58.5075 5.24555C58.9122 4.58985 59.3169 3.88371 59.2663 3.07669C59.3675 2.8245 59.0134 2.52186 58.5581 2.62274C57.1415 2.97581 56.1297 3.93414 55.1685 5.04379C55.8768 4.08546 56.4839 3.02625 56.6356 1.76529C56.6862 1.36178 56.2309 1.00871 55.8262 1.10958C53.8026 1.66441 52.2343 3.32888 50.919 4.84204C50.6154 5.19511 50.3119 5.49774 49.9577 5.85081C50.0589 5.64906 50.1601 5.49774 50.2613 5.29599C50.9189 4.03502 51.7284 1.76529 53.2461 1.31134C54.0555 1.05914 53.752 -0.20182 52.9426 0.0503728C51.2731 0.554759 50.3625 2.32011 49.6036 3.73239C48.6424 5.54818 47.4282 7.26309 46.2141 8.92757C44.9999 9.68415 43.8363 10.4912 42.6727 11.3486C39.9915 13.4166 37.8667 16.342 36.3996 19.5701C36.3996 19.5701 36.3996 19.5197 36.349 19.5197C35.1348 18.0065 33.6677 16.8969 31.6947 17.9056C30.2276 18.6622 29.2663 20.4276 28.8616 21.9407C28.4569 23.6556 28.9122 25.3201 30.2781 26.4298C31.3405 27.2872 33.0606 27.489 34.3759 27.035C34.0724 31.5241 35.4383 35.66 38.8279 38.8881C42.4704 42.3179 47.4282 44.3859 52.1331 45.8991C53.1449 46.2521 54.1061 46.5043 55.1179 46.7565C55.0168 46.807 54.9662 46.8574 54.9156 47.0087C54.2579 48.2192 52.3355 48.421 51.0707 48.4714C49.0977 48.5723 47.1247 48.2192 45.2023 47.8662C41.2562 47.1096 37.462 45.9495 33.8195 44.1841C30.3793 42.4692 26.8886 40.3508 24.1061 37.6271C22.7402 36.3157 21.6272 34.7521 20.666 33.0877C19.9577 31.8267 19.1989 30.364 18.7942 28.9013C18.9459 28.8004 19.0471 28.6995 19.0977 28.5482C19.3001 28.4473 19.4518 28.296 19.5024 27.9934C19.6036 26.682 20.1095 25.3201 20.666 24.16C21.0201 23.4034 19.9071 22.6973 19.553 23.4539C19.1483 24.2609 18.7942 25.1688 18.5412 26.0767C18.4906 26.0767 18.4906 26.0767 18.44 26.0263C18.3388 25.1688 18.3894 24.3113 18.5918 23.5548C18.7942 22.7477 17.58 22.3947 17.327 23.2017C17.0741 24.2105 17.0235 25.3706 17.1753 26.4298C17.0741 26.1776 16.9729 25.8749 16.9223 25.6227C16.72 24.9166 16.5682 24.16 16.2647 23.4539C15.9611 22.6973 14.6964 22.9999 14.9999 23.7565C15.354 24.6644 15.5058 25.6732 15.8093 26.5811C15.7082 26.5811 15.5564 26.5306 15.4552 26.5306C14.6964 26.4802 14.5446 27.5898 15.2528 27.7916L15.4552 27.842C15.5564 27.8925 15.6576 27.8925 15.7587 27.842C16.1129 27.9429 16.4164 28.0438 16.7706 28.1951C16.8717 28.296 16.9729 28.3969 17.1247 28.4977C17.1753 28.5482 17.2765 28.5986 17.327 28.5986C17.327 28.8004 17.4282 28.9013 17.5294 29.0021C17.9341 30.5153 18.693 31.978 19.4012 33.3398C20.3625 35.1052 21.5766 36.7697 22.9426 38.2324C25.9274 41.3596 29.9746 43.7302 33.87 45.546C37.9173 47.5131 42.268 48.6227 46.72 49.3289C48.5412 49.6315 51.7284 50.0855 53.9544 49.2784C53.9544 49.2784 53.9544 49.2785 53.9544 49.3289C53.4485 50.3881 52.9931 51.4473 52.5378 52.5065C51.6272 54.7763 50.919 57.0964 50.3119 59.467C49.7554 61.6863 49.553 64.1074 48.8448 66.2763C48.44 67.6885 47.9847 69.3026 48.2377 70.7653C48.2377 70.8662 48.2883 70.9166 48.3389 71.0175C47.7824 72.4298 47.8835 74.296 47.9847 75.7083C48.0353 76.5153 47.9341 77.6249 48.44 78.3311C49.0977 79.1381 50.3625 79.2894 51.3237 79.3903C51.6778 79.4407 51.9813 79.4407 52.3355 79.4912C52.1331 79.9956 52.0825 80.6513 52.0319 81.0043C51.779 82.7697 51.3237 84.4846 50.8684 86.2499C50.5648 86.1995 50.2613 86.3004 50.1601 86.7039C50.1601 86.7543 50.1601 86.7543 50.1095 86.8048C49.0977 86.3508 48.0859 85.7456 46.9729 85.3925C45.8093 84.989 44.5446 85.0899 43.381 85.4429C41.9645 85.8464 39.2326 87.7631 41.2562 89.1754C42.9763 90.4363 45.5564 90.9912 47.6306 90.8903C48.5412 90.8399 49.553 90.5372 50.2107 89.8815C50.5648 89.5285 50.8178 89.0241 50.9695 88.5197C51.2731 88.6206 51.6778 88.4188 51.779 88.0657C52.1331 86.2499 52.7402 84.535 53.0943 82.7192C53.1955 82.2149 53.2461 81.7105 53.2967 81.2061C53.3473 80.9035 53.3473 80.6513 53.4485 80.3486C53.4991 80.1973 53.4991 80.0964 53.5496 79.9451C53.8026 79.9451 54.005 79.7938 54.1061 79.592C54.6626 79.592 55.2191 79.6425 55.7756 79.592C56.5851 79.592 57.5969 79.6425 58.1028 78.8355C58.8616 77.6249 58.811 76.0613 59.4687 74.8004C60.0252 73.7412 61.897 74.4473 62.8582 74.4977C64.123 74.5986 64.6289 74.9517 64.6795 76.1622C64.7301 76.9692 64.6795 77.8267 64.8313 78.6337C65.3372 80.7521 68.1702 80.3991 69.7891 80.2477C70.5985 80.1973 71.408 80.0964 72.2174 80.046C71.9139 81.2061 72.5716 83.3749 72.7233 84.0306C72.8751 84.9385 73.0775 85.796 73.2798 86.7039C73.4316 87.3596 73.634 87.864 74.0387 88.1162C73.8363 88.4188 73.8363 88.8223 74.1905 89.0241C77.0741 90.9912 80.919 92.9078 84.1567 90.4868C85.3709 89.8311 86.2815 88.5197 86.0792 87.1578ZM31.1382 25.3706C30.0758 24.6644 30.0758 23.2017 30.3287 22.092C30.5817 21.0833 31.2394 20.1249 31.9982 19.4188C33.3641 18.1074 34.5783 19.2675 35.5395 20.4276C35.6913 20.6293 35.8937 20.6798 36.096 20.6293C35.4889 22.1929 35.0336 23.807 34.7807 25.421C34.7807 25.4714 34.7807 25.5219 34.7807 25.5219C33.7183 26.2784 32.15 26.0263 31.1382 25.3706ZM49.8566 88.3684C49.553 89.2258 48.8447 89.478 47.9847 89.6293C46.467 89.8815 44.7975 89.3267 43.381 88.7719C43.0269 88.6206 42.6727 88.4692 42.3692 88.2675C41.8633 87.9649 42.2174 87.7127 42.521 87.4605C43.2292 86.8048 44.2916 86.5526 45.2528 86.5021C46.9223 86.4013 48.44 87.3596 49.9071 88.0657C49.9071 88.1666 49.8566 88.2675 49.8566 88.3684ZM88.1534 21.2346C87.5969 20.5789 88.9628 20.2258 89.3169 20.2258C90.0758 20.1754 90.784 20.6293 91.3911 21.0328C92.6053 21.7894 93.5665 22.9999 93.7183 24.4627C93.8701 26.0767 92.5041 27.2872 91.1382 27.7916C89.7722 28.296 88.3557 27.9934 87.1921 27.2368C87.1415 27.1863 87.091 27.1863 86.9898 27.1359C87.2933 25.5219 87.4957 23.9078 87.3945 22.2938C87.9004 22.5964 88.6593 21.7894 88.1534 21.2346ZM72.3692 6.3552C72.3186 6.65783 72.2174 6.91002 72.1668 7.21265C72.0657 7.16222 71.9645 7.16222 71.8127 7.11178C72.0151 6.80915 72.1668 6.55695 72.3692 6.3552ZM69.3338 7.76748C69.4856 7.81792 69.6373 7.81792 69.7385 7.86836C69.435 8.27186 69.0808 8.67537 68.7267 9.02844C68.9291 8.62494 69.1314 8.17099 69.3338 7.76748ZM69.435 4.53941C69.2326 5.14467 68.9291 5.74993 68.6255 6.30476C68.4232 6.25432 68.2208 6.20388 68.0184 6.20388C68.4232 5.64906 68.9291 4.99336 69.435 4.53941ZM64.5783 5.19511C65.3372 4.33765 66.1972 3.228 67.2596 2.67318C67.0066 3.73239 66.2478 4.69072 65.6407 5.54818C65.5901 5.64906 65.5395 5.6995 65.4889 5.80037C65.0336 5.74993 64.5783 5.6995 64.123 5.6995C64.2748 5.49774 64.4265 5.34643 64.5783 5.19511ZM61.5429 4.33765C61.3405 4.7916 61.0876 5.19511 60.8852 5.59862C60.6829 5.59862 60.4805 5.59862 60.2781 5.54818C60.6323 5.09423 61.0876 4.69072 61.5429 4.33765ZM57.7486 4.43853C57.5969 4.69072 57.4957 4.89248 57.3439 5.09423C57.1921 5.04379 57.091 5.04379 56.9898 5.04379C57.2427 4.7916 57.4957 4.58985 57.7486 4.43853ZM55.1179 2.8245C54.7638 3.83327 54.0555 4.74116 53.2967 5.64906C52.5378 5.95169 51.779 6.30476 51.0707 6.60739C52.2343 5.34643 53.4991 3.68195 55.1179 2.8245ZM46.1635 42.0153C41.7621 39.8969 37.4114 36.7697 36.1972 31.8267C35.7419 30.0109 35.6913 28.0942 35.9442 26.228C36.0454 26.0767 36.0454 25.8749 35.9948 25.7236C36.6019 22.0416 38.322 18.4605 40.4974 15.5855C41.8633 13.8201 43.5328 12.3574 45.354 11.0964C45.5564 11.2982 45.8599 11.4495 46.1635 11.2477C47.2259 10.6425 48.0859 9.83546 48.8448 8.97801C49.7554 8.47362 50.7166 8.07011 51.7284 7.71704C51.4249 8.22143 51.1719 8.72581 51.0201 9.33108C50.8684 9.8859 51.4249 10.3398 51.9308 10.0877C53.2967 9.48239 54.2579 8.27186 55.1685 7.16222C55.3709 6.91002 55.6238 6.60739 55.8768 6.30476C56.0286 6.30476 56.1803 6.30476 56.2815 6.30476C56.2815 6.45608 56.2815 6.60739 56.3321 6.75871C55.8768 7.51529 55.3709 8.27186 54.9662 9.02844C54.6626 9.58327 55.2191 10.239 55.8262 9.93634C57.2427 9.28064 58.2545 8.01967 59.2663 6.75871C59.5699 6.75871 59.924 6.80915 60.2276 6.85958C59.924 7.61616 59.6711 8.47362 59.4181 9.17976C59.1652 9.93634 60.177 10.239 60.5817 9.73458C61.3405 8.77625 62.15 7.86836 62.9594 6.96046C63.01 6.96046 63.0606 6.96046 63.1112 6.96046C63.6171 6.96046 64.1736 7.0109 64.6795 7.06134C64.123 8.01967 63.6171 9.02844 62.9088 9.8859C62.3523 10.4912 63.1112 11.3486 63.8195 10.8442C65.0336 9.83546 65.9948 8.5745 67.0066 7.36397C67.3102 7.41441 67.6643 7.46485 67.9679 7.56572C67.462 8.5745 67.0572 9.73458 66.9055 10.7434C66.8043 11.2477 67.3102 11.8026 67.8161 11.4999C69.182 10.6929 70.0421 9.48239 71.0033 8.3223C71.2056 8.37274 71.408 8.42318 71.6609 8.52406C71.4586 9.07888 71.2562 9.63371 71.155 10.239C71.0539 10.7938 71.5598 11.2477 72.0657 10.9955C72.8751 10.6425 73.3304 9.93634 73.7351 9.2302C74.4434 9.48239 75.1517 9.78502 75.8599 10.0877C78.693 11.2982 81.526 13.0131 83.4991 15.3837C85.3203 17.6534 86.0286 20.478 86.0286 23.353C86.0286 26.1776 85.2697 29.0526 84.5109 31.7258C83.6002 34.8026 82.1837 37.5767 79.806 39.796C75.4552 43.8311 69.2832 46.2521 63.3641 46.5043C57.3945 46.6556 51.4249 44.5877 46.1635 42.0153ZM62.5041 49.6315C61.0876 49.9342 60.8346 48.6732 60.6829 47.5635C62.15 47.6644 63.6171 47.614 65.0842 47.4627C65.3372 48.7236 63.4147 49.4298 62.5041 49.6315ZM49.6036 69.7061C49.6542 68.5964 50.0589 67.3859 50.3625 66.3771C50.666 65.3179 50.7672 64.1578 50.9695 63.0986C51.2225 61.9385 51.4754 60.728 51.779 59.5679C52.3355 57.3486 53.0943 55.1293 53.9038 53.0109C54.3591 51.9013 54.8144 50.842 55.3203 49.7324C55.725 48.8245 56.2815 48.0175 56.5851 47.1096C57.4957 47.2609 58.3557 47.4122 59.2663 47.5131C59.2663 47.5635 59.3169 47.614 59.3169 47.6644C59.4687 48.6227 59.5699 49.4802 60.177 50.2872C60.7335 51.0438 61.9476 51.0942 62.7571 50.9429C64.3254 50.6907 66.7031 49.228 66.2984 47.3618C67.3102 47.2105 68.3726 47.0087 69.3844 46.7061C69.4856 47.1096 69.6373 47.4627 69.8397 47.8157C70.295 48.6227 70.6491 49.2784 70.9527 50.2368C71.5598 52.2039 72.1668 54.171 72.7233 56.1885C73.7351 59.6688 74.8987 63.1995 75.0505 66.8815C74.9493 66.9824 74.8481 67.1337 74.7975 67.3355C74.6458 67.3859 74.5446 67.4868 74.4434 67.6381C72.7739 67.3859 70.9021 67.6885 69.2832 67.8399C67.0066 67.9912 64.7807 68.3947 62.5041 68.5964C60.2276 68.7982 57.951 69.1008 55.6744 69.4035C53.9038 69.6556 52.1331 70.0592 50.3625 70.16C50.3119 69.7565 49.9577 69.5548 49.6036 69.7061ZM68.3726 79.1381C67.3608 79.1381 66.3996 79.1885 66.1972 78.0789C65.9442 76.6666 66.3996 75.1535 65.2866 74.0438C64.6289 73.3881 63.5665 73.3881 62.7065 73.2872C61.6947 73.2368 60.6829 72.8837 59.7216 73.1863C58.9122 73.4385 58.4063 74.2456 58.1534 75.0021C57.8498 75.7587 57.698 76.5657 57.4957 77.3727C57.3439 78.0789 57.1921 78.3815 56.4839 78.3815C55.2191 78.432 53.9544 78.2806 52.6896 78.2302C51.8802 78.2302 51.1213 78.1293 50.3625 77.9276C49.7048 77.7258 49.553 77.5241 49.5024 76.8179C49.4012 75.3552 48.9965 72.8837 49.806 71.3706C51.4754 71.3706 53.1449 71.1184 54.8144 70.7653C57.0404 70.2609 59.4687 70.1096 61.7453 69.8574C63.87 69.6556 65.9948 69.353 68.1196 69.1513C69.182 69.0504 70.2444 68.9495 71.3574 68.8991C72.4704 68.8486 73.6846 68.6469 74.7469 68.8991C75.1011 68.9999 75.4552 68.7982 75.5564 68.4451V68.3947C75.7588 68.4451 75.9611 68.4451 76.1129 68.3442C76.3658 69.1513 76.3152 70.0592 76.2647 70.8157C76.2141 72.1271 76.2141 73.4385 76.1635 74.7499C76.1129 75.557 76.6694 77.5745 75.8093 78.0789C74.5952 78.785 73.0775 78.6842 71.7115 78.785C70.6491 78.9363 69.5362 79.1381 68.3726 79.1381ZM83.7014 89.478C82.9932 90.0833 81.9814 90.3859 81.0707 90.4868C79.1483 90.6885 77.1753 89.478 75.607 88.3684C77.1753 88.1162 78.6424 87.41 80.2107 87.1578C81.0201 87.0065 84.5109 86.0986 84.865 87.3092C85.0168 88.0657 84.2073 89.0241 83.7014 89.478Z" fill="black"/>
<path d="M53.3476 19.7215C53.2465 19.5197 53.0441 19.3684 52.8417 19.3684C52.7912 19.3684 52.7912 19.318 52.7406 19.318C52.3864 19.2171 52.0323 19.4188 51.9311 19.7719C51.9311 19.8223 51.9311 19.8728 51.8805 19.8728C51.8805 19.9232 51.8299 19.9232 51.8299 19.9737C51.7793 20.125 51.7793 20.2259 51.8299 20.3772C51.8299 20.6798 51.9311 20.932 52.0829 21.2346C52.3358 21.739 53.0947 21.6381 53.2971 21.1338C53.4994 20.6294 53.55 20.1754 53.3476 19.7215Z" fill="black"/>
<path d="M71.7618 19.4188C71.6606 18.9144 71.2559 18.6622 70.9017 18.6622C70.5982 18.5614 70.1935 18.6622 70.0923 19.0657C69.9911 19.4693 69.8393 19.9232 69.8899 20.3772C69.9405 21.0833 70.3958 21.5372 71.1041 21.6381C71.4077 21.6381 71.6606 21.4364 71.7618 21.1842C71.863 20.6293 71.9136 19.9736 71.7618 19.4188Z" fill="black"/>
<path d="M75.4038 26.8333C75.4544 26.3794 74.9991 26.1272 74.5944 26.1776C67.0564 27.1864 59.2655 28.3465 51.8288 26.2785C51.6264 25.7237 50.6146 25.8246 50.564 26.5307C50.2099 30.011 50.0075 33.4912 52.9923 35.8618C55.3701 37.7785 59.0126 38.4342 61.9974 38.7873C65.2858 39.1908 68.7259 38.7873 71.4072 36.7193C74.2402 34.5 75.1509 30.2632 75.4038 26.8333ZM70.7495 35.6096C68.473 37.6272 65.2352 37.8794 62.3515 37.5767C59.7208 37.3246 56.736 36.6184 54.4089 35.2566C51.5252 33.5921 51.5252 30.5153 51.7782 27.6403C59.0632 29.6074 66.6517 28.5987 74.0379 27.5899C73.7343 30.4649 72.9249 33.6425 70.7495 35.6096Z" fill="black"/>
</g>
<defs>
<filter id="filter0_d" x="11" y="0" width="98" height="100" filterUnits="userSpaceOnUse" color-interpolation-filters="sRGB">
<feFlood flood-opacity="0" result="BackgroundImageFix"/>
<feColorMatrix in="SourceAlpha" type="matrix" values="0 0 0 0 0 0 0 0 0 0 0 0 0 0 0 0 0 0 127 0"/>
<feOffset dy="4"/>
<feGaussianBlur stdDeviation="2"/>
<feColorMatrix type="matrix" values="0 0 0 0 0 0 0 0 0 0 0 0 0 0 0 0 0 0 0.1 0"/>
<feBlend mode="normal" in2="BackgroundImageFix" result="effect1_dropShadow"/>
<feBlend mode="normal" in="SourceGraphic" in2="effect1_dropShadow" result="shape"/>
</filter>
<clipPath id="clip0">
<rect width="90" height="92" fill="white" transform="translate(15)"/>
</clipPath>
</defs>
</svg>
