<svg width="127" height="103" viewBox="0 0 127 103" fill="none" xmlns="http://www.w3.org/2000/svg">
<path opacity="0.7" d="M126.157 49.6817C124.463 53.5421 120.508 53.7099 117.4 52.8707C117.542 53.8778 117.542 55.0527 117.542 55.8919C117.4 59.0809 115.705 61.5985 113.869 63.6126C109.914 68.1444 103.7 69.9906 98.6147 67.473C98.756 70.3263 98.4735 72.6761 96.9198 75.0259C94.9424 77.7114 91.4112 79.3898 88.5863 80.0612C85.6202 80.9004 82.0891 79.7255 79.4054 78.0471C78.558 77.5436 77.8518 76.8722 77.2868 76.2008C76.5806 79.5577 75.5918 82.0753 72.767 83.5859C69.5183 85.4322 65.5635 85.2643 62.1736 84.2573C56.3826 82.5788 51.439 77.3757 50.309 70.4942C49.6028 71.5012 48.7553 72.3404 48.0491 73.0118C45.3655 76.033 41.5519 76.7043 37.8795 77.04C30.8173 77.5436 25.7325 73.5153 22.3426 66.466C19.6589 69.4871 15.1391 70.4942 11.608 69.655C10.7605 69.4871 10.0543 69.1514 9.20683 68.9836C4.96949 66.2981 1.01464 63.2769 0.167174 57.0668C-0.539049 51.1923 1.01464 45.9892 4.40451 42.1288C6.52319 40.2825 9.20684 39.6111 12.0317 39.779C12.0317 39.1076 12.0317 38.4363 12.173 37.597C12.8792 34.0723 15.9866 31.7226 18.529 30.212C23.755 27.3587 32.6535 26.1838 37.1733 31.5547C37.1733 31.3869 37.1733 31.3869 37.3145 31.219C38.0208 29.2049 39.292 27.5265 40.8456 26.0159C43.6705 23.1626 47.9079 21.652 51.5802 20.4771C58.2187 18.463 66.5522 22.9948 68.6709 30.8834C69.2358 28.5336 71.072 26.5194 72.6257 25.5124C75.4506 23.4983 78.558 22.9948 81.8066 23.834C85.7615 24.841 89.9988 28.5336 90.9875 33.2331C93.1062 28.5336 99.4622 28.8692 103.135 30.7155C105.253 31.8904 107.654 34.0724 108.784 36.9257C110.056 35.2473 113.304 34.5759 114.717 34.5759C118.248 34.408 121.779 35.9186 124.321 38.9398C126.864 41.6253 127.852 46.157 126.157 49.6817Z" fill="#EAF5FB"/>
<g clip-path="url(#clip0)" filter="url(#filter0_d)">
<path d="M81.2849 31.5423C81.2408 31.5865 81.1526 31.5865 81.1085 31.6306C80.888 31.4541 80.7116 31.3217 80.4911 31.1451C79.9619 30.7479 79.4328 30.4831 78.8595 30.2183C78.2862 29.4239 77.5807 28.6737 76.831 28.0117C72.9945 24.6575 67.3059 23.5542 62.0583 24.481C59.8534 23.819 57.428 23.7749 54.9586 24.3045C54.694 24.3486 54.3853 24.4369 54.1207 24.5251C53.2829 23.2453 51.4748 22.5833 50.2842 24.0838C49.8873 24.5693 49.5346 25.0547 49.1818 25.5402C47.462 26.1139 46.0508 27.4821 45.213 29.4681C39.4803 25.6285 32.2924 35.3819 38.7306 39.1332C39.1716 39.398 39.6567 39.5746 40.1418 39.7511C39.9213 43.1494 42.2584 46.8566 44.9484 48.5778C46.7564 49.7252 48.6967 50.1666 50.7693 50.4755C53.6797 51.5788 56.8989 51.8436 60.118 51.5347C63.2048 51.976 66.424 51.6671 68.8493 50.299C69.3344 50.0342 69.7313 49.7252 70.0841 49.328C70.3046 49.2398 70.4809 49.1515 70.7014 49.0191C73.7001 48.3571 76.6105 46.8566 78.6831 44.7382L78.7272 44.694C80.6234 43.5024 82.255 42.0019 82.8283 40.0159C83.7102 39.7511 84.5922 39.3098 85.5182 38.8243C90.2808 36.2204 86.0474 29.0709 81.2849 31.5423Z" fill="#FDF0DA"/>
<path d="M50.1397 40.9996C50.0125 41.0845 49.8854 41.212 49.7158 41.297C50.0549 41.0421 50.2244 40.9571 50.1397 40.9996Z" fill="#F7BFA7"/>
<path d="M51.3267 35.9011C50.9452 35.1789 50.3518 34.669 49.7161 34.3291C49.4194 34.0742 49.0803 33.8618 48.6988 33.7343C47.7664 33.3519 46.7916 33.4794 45.9439 33.9043C45.0538 34.0742 44.3757 34.5416 43.6551 35.1364C43.2737 35.4338 42.9346 35.9861 42.6803 36.496C42.1293 37.5156 41.9174 38.6628 42.2988 39.8099C42.8498 41.4244 44.4181 43.0389 46.283 42.8265C47.5545 42.699 48.5293 42.2741 49.3346 41.5094C49.377 41.4669 49.4194 41.4669 49.4618 41.4244C49.8432 41.127 50.0551 40.957 50.1399 40.9146C50.2671 40.7871 50.3942 40.7021 50.5637 40.5747C51.8777 39.555 52.132 37.4307 51.3267 35.9011Z" fill="#F7BFA7"/>
<path d="M81.6315 34.7965C81.1653 34.1167 80.7838 33.7768 80.1481 33.3095C81.1653 34.0743 79.9361 33.0971 79.5547 32.8846C78.7918 32.4598 77.7746 32.1624 76.8845 32.2048C75.0196 32.3323 73.6633 33.3095 72.5613 34.7965C71.7136 35.9437 71.4593 37.6006 71.8408 38.9602C72.4342 41.1695 74.8077 42.4866 76.9693 41.8493C77.8169 41.6369 78.5799 41.212 79.1732 40.6597C79.258 40.6597 79.3004 40.6172 79.3852 40.5747C80.36 40.1923 81.2924 39.64 81.801 38.6628C82.3944 37.5157 82.4368 35.9861 81.6315 34.7965Z" fill="#F7BFA7"/>
<path d="M88.2012 22.178C88.8794 20.2236 87.8622 18.3967 86.5906 17.0372C86.5482 16.9947 86.5059 16.9522 86.4211 16.8672C86.1244 14.1056 84.8953 11.5564 82.3098 10.4942C80.4873 9.72946 78.9615 10.1543 77.7747 11.1315C77.1814 11.3015 76.588 11.5564 76.037 11.8963C75.486 10.1118 74.5112 8.58232 72.9006 7.60513C71.1628 6.54297 68.9588 6.71291 67.1787 7.56264C65.6529 4.75853 61.9655 3.01658 58.7443 3.22901C58.1933 3.2715 57.6847 3.31399 57.1761 3.44144C56.3284 3.31399 55.4383 3.35647 54.5059 3.65388C52.9376 4.12123 51.9204 5.35334 51.3694 6.7554C51.1151 7.09529 50.8608 7.43518 50.6913 7.77508C50.0555 8.24243 49.5045 8.75227 48.9959 9.34708C48.9112 9.38957 48.784 9.47454 48.6992 9.51703C47.8516 8.53983 46.7072 7.77508 45.2237 7.3927C39.2052 5.86318 36.2383 12.8735 36.6198 18.2693C36.1535 18.6092 35.7297 19.034 35.3906 19.5014C32.5085 21.3283 30.6012 24.3873 33.3138 27.4464C33.9496 28.1686 34.7972 28.636 35.7297 28.8059C37.4251 30.3779 39.7986 30.5479 42.0873 29.9531C43.6979 29.5282 45.139 28.6785 46.3681 27.5738C47.5549 27.7013 48.784 27.3189 49.4621 26.4692C50.5641 27.2764 52.0052 27.6588 53.6582 27.3189C54.5906 27.1065 55.3959 26.4692 55.9893 25.6619C56.5403 26.8516 57.5575 27.4039 58.8714 27.5313C59.8463 27.6588 60.6092 27.8712 61.6264 27.7013C62.4741 27.5738 62.2621 27.2339 62.9403 27.6588C64.0847 28.3811 65.441 28.1686 66.4582 27.4039C67.1787 27.5313 67.8992 27.4464 68.4926 27.1065C68.6198 27.6163 68.8317 28.0837 69.086 28.551C69.8065 29.7406 71.4171 30.5479 72.7734 30.0805C74.1297 29.6132 75.1469 28.8909 76.037 27.7438C76.1217 27.6163 76.2065 27.5313 76.2913 27.4039C76.6304 27.5313 77.0118 27.6163 77.3933 27.7438C77.6476 27.8287 77.9019 27.8712 78.1562 27.9137C78.5376 28.9334 79.2582 29.6132 80.0211 29.9106C81.1231 31.1002 83.0727 31.3976 84.641 30.0805C84.8953 29.8681 85.1072 29.6557 85.3615 29.4007C86.3787 29.0609 87.2264 28.3386 87.4383 27.2339C87.6078 26.3417 87.6926 25.5345 87.6078 24.6847V24.6422C87.6078 24.4298 87.6502 24.2599 87.6078 24.0474C87.735 23.4101 87.9893 22.8578 88.2012 22.178Z" fill="#C78A22"/>
<path d="M67.4749 33.3095C65.61 32.6297 63.4908 33.3519 61.6682 33.9043C59.9305 34.4141 58.2351 35.1364 56.5821 35.9011C55.1835 36.5384 55.5649 38.8327 57.006 39.1726C58.6166 39.5125 60.1848 39.4275 61.7954 39.1726C62.6431 39.0451 63.4484 38.8327 64.2537 38.7053C65.3557 38.4928 66.4153 38.6203 67.4325 38.1954C69.7212 37.1757 69.9331 34.2017 67.4749 33.3095Z" fill="#FADDBA"/>
<path d="M51.5396 53.4906C51.6667 53.1508 51.7091 52.8109 51.7515 52.386C51.7939 51.8762 51.2429 51.2813 50.7343 51.3663C49.6747 51.4938 49.1661 52.0036 48.2336 52.4285C47.3859 52.8109 46.5806 53.2357 46.1144 54.0855C45.6058 55.0627 45.6058 56.2948 45.9025 57.3144C46.1568 58.1642 46.9197 58.7165 47.2164 59.5237C47.8522 61.4356 51.1157 61.8605 51.4972 59.5237C51.7091 58.4191 51.7939 57.3144 51.8786 56.2098C51.8786 55.1901 51.7515 54.4254 51.5396 53.4906Z" fill="#139192"/>
<path d="M75.5278 53.1507C75.1039 53.1507 74.6801 53.3631 74.3834 53.703C74.0867 53.2782 73.8748 52.8533 73.8748 52.4284C73.8748 51.1963 71.9251 50.8564 71.6708 52.131C71.5013 53.1507 71.7132 53.958 72.1371 54.8502C72.349 55.275 72.5609 55.6574 72.7728 56.0398C72.9 56.2522 72.9424 56.4647 73.0271 56.7196C73.0695 56.8895 73.0695 56.9745 73.1119 57.017C72.688 58.0792 73.239 59.5662 74.4682 59.7786C76.545 60.161 78.4523 59.3113 78.5794 57.017C78.6218 55.36 77.3079 53.1507 75.5278 53.1507Z" fill="#139192"/>
<path d="M73.9183 73.3743C73.7064 71.3775 71.5872 70.6977 70.3157 71.4624C69.3832 71.165 68.3236 71.25 67.3064 71.6324C66.5859 71.9298 65.9077 71.8448 65.1024 71.8873C64.0005 71.9298 62.8137 72.3971 61.7541 72.6945C60.1011 73.2044 58.4058 73.2469 56.668 73.2469C56.0323 72.822 55.1846 72.6945 54.5064 72.8645C54.3793 72.907 54.2945 72.9495 54.1674 72.992C53.7435 72.737 53.2773 72.5671 52.6415 72.6096C51.4548 72.6096 50.5223 73.2044 49.8442 74.1816C49.5475 74.6064 49.166 75.5411 48.9117 76.0085C48.6998 76.2634 48.5303 76.4759 48.3607 76.7308C46.7925 79.025 49.8866 80.9369 51.7938 79.7048C52.2601 80.0022 52.7687 80.1722 53.3197 80.1722C54.0826 81.0644 55.3117 81.4468 56.4561 80.682C57.6428 79.8748 58.6177 78.7701 58.9568 77.453C60.4826 77.4106 62.0084 77.2831 63.5766 76.9007C64.8058 76.6033 66.1197 76.8157 67.3488 76.6458C67.4336 79.195 69.2137 80.8944 71.8415 80.5121C75.4442 80.0447 74.1726 75.5411 73.9183 73.3743Z" fill="#2E76AE"/>
<path d="M60.3546 51.5788C59.8036 51.1114 59.2103 50.984 58.5745 51.2389C58.3626 50.899 58.0235 50.6866 57.5997 50.6441H57.5573C57.1334 50.6016 56.752 50.899 56.5401 51.2389C56.0314 52.0461 55.9043 53.1508 55.9043 54.0855C55.9043 54.5953 56.201 55.1052 56.5824 55.4026C56.8791 56.0823 57.7268 56.5072 58.4473 56.0399C58.8712 55.7849 59.2526 55.4026 59.5917 55.0202L60.0156 54.5953C60.3122 54.2979 60.4394 54.043 60.4818 53.7031C60.9904 53.1508 60.948 52.1311 60.3546 51.5788Z" fill="#139192"/>
<path d="M66.9239 52.6409C66.9663 52.3435 67.0087 52.0461 66.9239 51.7487C66.8815 51.5788 66.7543 51.4088 66.6696 51.2389C66.5 50.899 65.9914 50.6865 65.6524 50.814C65.3557 50.9415 65.1014 51.0689 64.8894 51.2814C64.8471 51.2389 64.8047 51.2389 64.7623 51.1964C64.1689 50.5591 62.9822 51.0264 63.0245 51.9186C63.0669 52.5559 63.3636 53.0658 63.8722 53.4482C64.2537 53.7456 64.6351 54.043 65.059 54.2554C65.8643 54.6803 66.8391 54.1704 66.8391 53.2357C66.8391 53.1083 66.8391 52.9808 66.8391 52.8534C66.8815 52.8534 66.9239 52.386 66.9239 52.6409Z" fill="#139192"/>
<path d="M45.9868 90.7514C45.902 90.4965 45.8173 90.2841 45.6901 90.0716C45.6477 89.9867 45.6053 89.9442 45.6053 89.9017C45.6053 89.8592 45.6053 89.8592 45.5629 89.8167C45.2239 88.9245 44.9272 88.2872 44.6729 87.31C44.5881 86.9701 44.5457 86.6727 44.5033 86.3328C44.461 86.1204 44.461 85.9504 44.461 85.8655C44.461 85.8655 44.461 85.823 44.461 85.7805C45.012 84.9308 44.6305 83.5287 43.359 83.6137C39.5444 83.8686 40.2225 91.8136 42.7232 93.2581C43.8252 93.8954 45.7325 93.7255 46.0716 92.196C46.1563 91.6861 46.1139 91.2188 45.9868 90.7514Z" fill="#9D722C"/>
<path d="M81.2501 90.9213C80.021 90.1991 78.5376 90.7514 77.1813 90.8364C76.8846 90.8364 76.6303 90.8788 76.376 90.8788C76.0369 90.4965 75.5283 90.3265 74.9349 90.539C74.0025 90.8788 73.1124 91.4737 73.1548 92.6208C73.1972 93.8104 74.1296 94.4477 75.1892 94.7876C76.164 95.085 77.266 95.0425 78.3256 95C79.6819 94.9151 81.2925 94.7876 82.013 93.428C82.3097 92.5358 82.1402 91.4312 81.2501 90.9213Z" fill="#9D722C"/>
<path d="M74.1297 62.4552C73.1973 58.7164 72.5615 54.8926 70.9509 51.3662C70.4423 49.9642 68.1959 50.304 68.2383 51.876C68.2383 52.3009 68.2807 52.7683 68.3231 53.1931C67.9416 53.448 67.645 53.8304 67.645 54.4252C67.645 55.19 67.2635 55.9548 67.0092 56.7195C66.9668 56.677 66.9668 56.6345 66.9244 56.6345C66.1191 55.4024 65.7377 53.703 64.0847 53.2781C62.5165 52.8532 61.1178 53.8304 60.3973 55.1475C60.3549 55.2325 60.3125 55.3599 60.2701 55.4449C59.9734 55.6574 59.7191 55.9123 59.5072 56.2522C59.3377 56.3371 59.2105 56.4646 59.041 56.6345C58.49 56.5496 57.8966 56.6345 57.4728 56.9319C56.7522 57.3993 54.8026 55.4449 55.0145 53.703C55.2264 53.3206 55.184 52.8532 54.7178 52.4709C53.9973 51.876 53.0224 52.0885 52.7258 52.9807C52.0476 54.9351 51.2847 57.3143 51.1999 59.3962C51.1999 59.4811 51.1999 59.6086 51.1999 59.6936C50.437 60.0335 49.8436 60.7982 49.8012 61.8179C49.6317 64.1972 50.0132 66.5339 50.0132 68.9132C50.0132 70.1453 50.7761 70.8675 51.8357 71.3349C53.2344 71.9297 54.6754 71.3774 56.0741 70.8251C60.0158 73.2893 64.5933 70.4427 68.7469 69.9753C69.1708 69.9328 69.5522 69.8479 69.9337 69.7204C70.739 70.2302 71.6714 70.3577 72.7734 69.6354C74.9774 67.9785 74.7231 64.8345 74.1297 62.4552Z" fill="#B1CD32"/>
<path d="M95.4915 52.0461H95.0253C94.771 52.0461 94.6014 52.216 94.5591 52.4285C94.0928 52.5559 93.6266 52.6409 93.1604 52.7683C92.8213 52.8533 92.4822 52.9808 92.1432 53.1507C92.6518 52.0886 93.3299 51.0689 94.1352 50.2616C94.5591 49.7943 93.8809 49.1145 93.4571 49.5819C92.9485 50.0917 92.5246 50.6865 92.1008 51.2813C92.4822 50.2192 92.9485 49.1995 93.3299 48.1373C93.4571 48.0523 93.5418 47.9249 93.5418 47.7549V47.5C93.5418 46.9052 92.7789 46.8627 92.6094 47.3726C92.016 48.9446 91.3379 50.4741 90.8293 52.0886C90.6597 51.0689 90.6597 50.0067 90.6597 48.987C90.6597 48.3497 89.6849 48.3497 89.6849 48.987C89.6849 49.8793 89.6849 50.814 89.7696 51.7062C89.8544 52.5134 90.1511 53.2782 90.2359 54.0854C90.4054 55.6999 89.0067 57.102 87.9047 58.0792C86.6332 59.1838 84.8107 59.3963 83.2425 59.1413C81.8438 58.9289 80.6571 58.1641 79.4703 57.5268C79.6822 57.3144 79.8941 57.0595 80.1061 56.8471C80.2756 56.6771 80.318 56.3372 80.1061 56.1673C79.3855 55.5725 78.665 55.0201 77.9445 54.4678C77.1392 53.8305 76.2915 52.9808 75.4014 52.4709C74.2994 51.7912 72.4769 51.1114 72.0531 49.7943C72.1379 49.7518 72.2226 49.7518 72.3074 49.7093C74.7233 48.8596 77.012 47.67 79.0465 46.098C80.869 44.6959 82.7339 42.784 83.1577 40.4048C83.2001 40.2348 83.2001 40.1073 83.2001 39.9374C84.2597 39.7675 85.3617 38.6203 85.9551 37.983C87.1842 36.6659 87.6081 34.6691 87.3538 32.9271C87.269 32.2473 86.9723 31.7375 86.5908 31.3126C86.8028 31.2276 86.9723 31.1002 87.1418 30.9727C87.6081 30.5479 88.0319 29.8681 88.159 29.2733C88.4557 28.0412 87.2266 27.1489 86.3789 26.4267C87.5233 24.8547 88.922 23.665 88.8796 21.5407C88.8796 20.7335 88.8372 19.7138 88.2438 19.119C87.9471 18.8216 87.6504 18.5242 87.269 18.2692C86.9299 18.0993 86.5908 17.9718 86.2518 17.8444C87.0147 16.6548 86.718 14.9128 86.4637 13.5532C86.1246 11.6838 84.4716 10.0268 82.6491 9.43204C80.9114 8.87971 78.8769 8.62479 77.1392 9.34706C77.0968 8.87971 77.012 8.41236 76.8849 8.02998C76.461 6.50046 75.5286 4.58856 73.7908 4.33364C71.9683 4.07872 70.061 4.1637 68.2385 4.4611C67.4332 4.58856 66.416 4.84348 65.6955 5.39581C65.2292 2.8891 63.5763 0.977204 60.9061 0.382392C59.2107 1.29342e-05 57.473 0.212446 55.7776 0.509852C53.9127 0.637312 51.9206 1.44456 50.31 2.67667C49.3352 3.39894 48.5299 4.20618 48.0213 5.26835C47.8094 5.22586 47.5551 5.18338 47.3855 5.18338C45.3087 5.01343 43.1471 5.26835 41.1975 6.11808C39.3749 6.92533 38.273 8.41236 37.5948 10.2393C36.959 11.9812 36.7471 13.9781 36.7047 15.8475C36.7047 16.5698 36.6624 17.3345 36.7047 18.0993C36.1961 17.5895 35.6028 17.2496 34.8822 17.2496C32.7206 17.2071 32.5935 20.9884 32.6359 22.3904C32.7206 24.5573 33.2716 27.2339 34.7975 28.8484C35.3485 29.4432 36.1114 29.6556 36.8743 29.7406C36.9167 29.7406 37.0014 29.7406 37.0438 29.7406C36.1538 30.4204 35.6451 31.5251 35.4332 32.6722C35.1365 34.1592 35.4332 35.8587 36.7047 36.7934C37.6796 37.5582 38.9087 37.6431 40.0107 37.3032C39.9259 37.9405 39.8412 38.5778 39.8412 39.2151C39.7988 43.3788 42.3842 46.8627 45.8597 48.9021C47.0889 49.6243 48.4451 50.1767 49.8438 50.6015C49.5895 50.814 49.3776 51.0689 49.1233 51.3238C48.5723 51.9186 47.9789 52.386 47.4279 52.8958C46.2412 54.0005 45.0544 55.4025 44.2915 56.8046C44.0372 57.3144 44.122 57.7818 44.4187 58.2066C44.8849 58.8439 45.5206 59.4387 46.0716 59.9911C46.4107 60.3734 46.7498 60.7133 47.0889 61.0532C46.9193 60.9683 46.7074 61.0107 46.5379 61.1382C45.8173 61.903 45.5206 63.0926 45.0544 64.0698C44.4187 65.3444 43.6981 66.619 42.9776 67.8511C42.2147 69.1682 41.4518 70.4428 40.6041 71.6749C40.1379 72.3122 39.7988 72.992 39.3326 73.6293C39.2478 73.6293 39.1206 73.6718 39.0359 73.7567C38.6968 74.0966 38.4425 74.4365 38.2306 74.8189V74.8614C38.0187 74.8189 37.8067 74.9039 37.722 75.0738C36.8319 75.2013 36.069 75.8386 35.2213 76.3059C35.1365 76.3059 35.0941 76.3059 35.0094 76.3484C34.6279 76.5608 34.2465 76.7308 33.8226 76.7733C33.1869 76.8158 33.1869 77.7929 33.8226 77.7505C34.5855 77.708 35.2213 77.4106 35.8571 77.0707C36.3233 76.8158 37.0438 76.2209 37.6372 76.0935C37.3829 77.4955 36.0266 78.8551 35.3061 79.9598C35.0094 80.4271 35.6875 80.937 36.069 80.5546C36.4928 80.0872 36.8319 79.5774 37.2981 79.11C37.4253 78.9826 37.4677 78.8126 37.4253 78.6852C37.8915 78.0479 38.3153 77.3681 38.5273 76.6458C38.1458 78.1753 38.1882 79.8748 38.1882 81.4043C38.1882 82.0416 39.163 82.0416 39.163 81.4043C39.163 81.1494 39.163 80.8945 39.3326 80.682C39.5445 80.4271 39.3749 80.1722 39.163 80.0447C39.163 78.8126 39.2054 77.538 39.5869 76.3909C39.9259 77.4955 40.6465 78.5152 41.1127 79.5774C41.367 80.1297 42.2994 79.9173 42.0451 79.3225C41.4941 78.0479 40.4345 76.7308 40.3498 75.3287C40.3074 74.8189 39.6292 74.7339 39.4597 75.0738H39.4173C40.1379 74.394 40.6889 73.5018 41.1975 72.6096C41.8756 71.335 42.8081 70.1029 43.571 68.8283C44.2915 67.5962 45.012 66.3216 45.6902 65.047C46.0292 64.4097 46.3259 63.7724 46.6226 63.1776C46.7922 62.8377 46.8769 62.4978 47.0041 62.2004C47.3432 62.3278 47.7246 61.9455 47.6398 61.6056C47.7246 61.6905 47.8094 61.7755 47.8518 61.8605C48.2756 62.3703 48.6994 62.7952 49.2928 63.0926C49.1233 64.6221 49.0809 66.1091 49.0809 67.6387C49.0809 68.106 49.0809 68.6159 49.1233 69.0832C49.1657 69.5081 49.3352 69.8904 49.3352 70.2728C49.3352 70.9101 49.3776 71.5899 49.8014 72.0997C49.9286 72.2697 50.0981 72.3547 50.2677 72.4821C50.2253 72.5246 50.1829 72.5671 50.1405 72.6096C49.5895 73.7142 49.0385 74.7764 48.4875 75.8811C48.1485 76.6033 47.4703 77.5805 47.6398 78.4303C47.767 78.9826 48.1485 79.28 48.6571 79.4499C49.5471 79.7898 50.522 80.0872 51.4544 80.3421C51.4968 80.3421 51.4968 80.3421 51.5392 80.3421C51.2425 80.937 50.861 81.5318 50.4796 82.0841C50.0557 82.7214 49.8862 83.5711 49.4624 84.2509C49.1233 84.8032 47.3855 84.081 46.8769 83.911C45.9869 83.6136 45.0968 83.2737 44.1643 83.1038C44.122 83.1038 44.0372 83.1038 43.9948 83.0613C43.9948 82.9763 43.9524 82.9338 43.9524 82.8489C43.8677 82.2965 43.0624 82.4665 43.02 82.9763C42.2571 83.0188 41.5365 83.2737 41.1975 84.1235C40.9432 84.8032 40.9008 85.5255 40.6889 86.2478C40.4345 87.14 40.3074 88.1172 40.3074 89.0519C40.3074 90.5389 40.6465 92.3234 42.0028 93.1306C43.1047 93.8104 44.673 93.428 45.1816 92.1959C45.6902 90.9638 45.4783 89.3068 45.3511 87.9897C45.1816 86.6302 44.5882 85.3556 44.2067 84.0385C45.4359 84.2934 46.6226 84.8882 47.8094 85.1856C48.2756 85.3131 49.2928 85.6105 49.7591 85.3131C50.1829 85.0582 50.4796 84.3359 50.6915 83.911C50.9882 83.3162 51.1577 82.6789 51.5392 82.1266C51.8783 81.6592 52.1749 81.1494 52.3869 80.5971C53.7008 81.0644 55.2266 81.5743 56.371 80.937C57.0915 80.5121 57.5577 79.5349 57.9816 78.8551C58.5749 77.9204 59.2955 76.9007 60.3975 76.5608C61.1604 76.3059 62.0081 76.4334 62.771 76.3909C63.5763 76.3484 64.763 76.2209 65.314 76.9857C65.7379 77.5805 65.7379 78.4727 66.0345 79.1525C66.2889 79.8323 66.7551 80.4696 67.3908 80.852C67.9842 81.1919 68.7047 81.2344 69.3405 81.2344C70.061 81.2344 70.7816 81.3193 71.5021 81.3618C71.6716 81.3618 71.8412 81.3618 72.0107 81.4043C72.265 82.2116 72.4769 83.0613 72.7312 83.8685C73.0279 84.8882 73.3246 85.7379 73.0703 86.8426C72.6889 88.4146 71.7988 89.7742 71.9259 91.4736C71.9259 91.6436 72.0107 91.771 72.0955 91.856C71.9259 91.9835 71.7988 92.2384 71.9683 92.4508C72.9432 93.8104 74.6809 94.2777 76.2491 94.4052C77.7749 94.5327 79.8094 94.2777 80.7842 92.9182C81.971 91.3037 81.6319 89.3493 79.5975 88.6695C78.3683 88.2871 77.0544 88.797 75.9524 89.2643C74.8928 89.6892 73.918 90.199 72.9008 90.7089C73.0703 89.2643 73.918 87.9472 74.1299 86.4602C74.2571 85.568 73.9604 84.8032 73.7485 83.911C73.4941 83.0613 73.2822 82.2116 73.0279 81.3618C73.918 81.2768 74.7657 80.9794 75.2743 80.2572C76.1643 78.8976 75.6557 76.8158 75.4862 75.2862C75.3591 74.309 75.4014 73.3743 75.3167 72.3971C75.2319 71.42 74.9776 70.4853 74.6809 69.593C74.7233 69.1682 74.7233 68.7858 74.8081 68.3609C74.9776 67.4262 74.8928 66.4915 74.8928 65.5568C74.8504 64.1123 74.7657 62.6677 74.469 61.2232C76.2067 60.6709 77.5206 59.3538 78.7498 57.9942C80.1908 58.759 81.5471 59.6087 83.2425 59.8636C84.9379 60.1185 86.6756 59.8211 88.1167 58.8439C89.4306 57.9517 90.7445 56.4647 91.1259 54.8927C91.1683 54.7652 91.1683 54.6378 91.2107 54.5103C91.2955 54.5103 91.4226 54.4678 91.5074 54.3828L91.5922 54.2979H91.6345C91.8465 54.2979 91.9736 54.1704 92.0584 54.0429C92.567 53.788 93.118 53.5756 93.6266 53.4481C94.3471 53.2782 95.0677 53.1932 95.7458 52.7683C96.1696 52.7259 96.0001 52.0461 95.4915 52.0461ZM38.5696 76.3484C38.612 76.0935 38.6544 75.8386 38.6544 75.5836C38.7392 75.5836 38.824 75.5836 38.8663 75.5412C38.7392 75.7961 38.6544 76.0935 38.5696 76.3484ZM44.461 89.6467C44.5034 90.2415 44.5458 90.8363 44.461 91.3887C44.2067 93.1306 42.1723 92.7482 41.6213 91.3462C41.0279 89.7742 41.2398 87.9048 41.6637 86.3327C41.9604 85.3131 41.7908 83.996 43.1471 83.996C43.4438 85.1856 43.9524 86.2903 44.2491 87.4374C44.461 88.2022 44.4187 88.9244 44.461 89.6467ZM78.5379 89.6467C79.3008 89.5617 80.2756 89.9016 80.5723 90.6664C80.8266 91.3462 80.318 92.2809 79.8518 92.7482C79.0041 93.598 77.4783 93.6404 76.3339 93.5555C75.1471 93.4705 73.6213 93.0881 72.9008 92.0684C72.8584 92.026 72.8584 91.9835 72.816 91.9835C74.5961 91.0912 76.5458 89.8167 78.5379 89.6467ZM86.5061 34.2442C86.4213 35.3489 85.9551 36.4535 85.2345 37.3032C84.8955 37.6856 84.0054 38.6203 83.2849 38.8752C83.2001 37.0908 82.4372 35.3489 81.8862 33.6494C82.4372 33.4794 82.1829 32.5872 81.6319 32.7147C81.6319 32.6297 81.5895 32.5447 81.5895 32.4598C81.8014 32.0349 82.3524 31.5675 82.6491 31.4826C83.2425 31.2277 83.9206 31.1852 84.5988 31.2701C84.7259 31.2701 84.8107 31.3126 84.8955 31.3126C84.9379 31.61 85.2769 31.865 85.616 31.695C85.6584 31.695 85.6584 31.695 85.7008 31.6525C86.3789 32.1624 86.5908 33.182 86.5061 34.2442ZM48.6147 6.45797C49.0809 6.62792 49.5047 6.88284 49.8862 7.22273C50.2677 7.56263 50.4796 8.32738 49.7591 8.36987C49.42 8.41236 49.0809 8.2849 48.869 8.07246C48.4451 7.73257 48.5299 7.0103 48.6147 6.45797ZM36.4928 28.6785C35.8571 28.551 35.4332 28.1686 35.0941 27.6588C34.1193 26.2992 33.7802 24.2599 33.6531 22.6454C33.5683 21.7956 33.6107 20.9034 33.7802 20.0537C33.9074 19.5014 34.2041 18.2692 34.9246 18.1843C35.4756 18.1418 36.0266 18.7791 36.3657 19.1615C36.6624 19.5014 36.8743 19.8412 37.0862 20.2661C37.2134 20.606 37.3405 20.9459 37.5524 21.2433C37.8491 21.7107 38.6544 21.4132 38.4425 20.8609C38.3153 20.5635 38.1882 20.1811 37.9763 19.8412C37.5524 18.4817 37.6796 16.8672 37.722 15.4651C37.7643 13.5532 38.061 11.5139 38.8663 9.77193C39.7988 7.73257 41.6637 6.75538 43.7829 6.33051C44.9696 6.07559 46.4107 5.94813 47.7246 6.20305C47.4703 7.22273 47.6398 8.36987 48.5299 9.00717C49.6319 9.81441 51.412 9.17712 51.2425 7.69009C51.073 6.62792 50.0134 5.94813 48.9538 5.56576C49.5471 4.37613 50.7339 3.5264 51.8359 2.84661C53.6584 1.69948 55.7776 1.27461 57.9392 1.01969C59.5498 0.849745 61.2451 1.01969 62.6438 1.86942C64.3392 2.8891 64.9749 4.801 65.0173 6.71289C65.0173 7.35019 65.9498 7.35019 65.9922 6.71289C66.0345 5.60824 68.0266 5.35332 68.8319 5.22586C70.3153 4.97094 71.8836 4.97094 73.367 5.0984C73.918 5.14089 74.3418 5.18338 74.7657 5.60824C75.3167 6.16057 75.6981 6.92533 75.9948 7.6476C76.2067 8.19992 76.4187 8.96468 76.461 9.72944C75.4438 10.4092 74.3842 11.5139 75.4014 12.661C75.5286 12.831 75.8253 12.831 75.9948 12.746C76.9273 12.2361 77.3087 11.3014 77.3935 10.2818C77.6054 10.1543 77.7749 10.0693 77.9021 10.0268C78.5379 9.72944 79.2584 9.77193 79.9365 9.81441C80.9114 9.8569 82.0981 9.98436 82.9458 10.4092C84.3021 11.089 85.4041 12.1512 85.7432 13.7232C85.9551 14.9128 86.3365 16.6548 85.3193 17.547C85.065 17.7594 85.1498 18.1418 85.4041 18.3117C86.0822 18.7366 86.9723 18.8216 87.4809 19.4589C87.9895 20.1387 88.0319 20.776 88.0743 21.6257C88.1167 23.4951 86.4637 24.7272 85.4888 26.1293C85.3617 26.2992 85.4041 26.5541 85.5736 26.7241C86.167 27.3189 87.3538 27.9562 87.3961 28.8909C87.4385 29.4007 86.8028 30.0805 86.4213 30.3354C86.2518 30.4629 86.0398 30.5054 85.8279 30.5904C85.1074 30.2929 84.3021 30.1655 83.4544 30.2929C82.5644 30.4204 81.9286 30.6753 81.3352 31.3126C81.0809 30.5479 80.7418 29.7406 80.1908 29.2733C80.5299 28.5085 80.6147 27.4888 80.6147 26.8515C80.6147 26.2142 79.6398 26.2142 79.6398 26.8515C79.6398 27.4463 79.5127 28.0412 79.3432 28.5935C79.3432 28.636 79.3008 28.7209 79.3008 28.8059C79.2584 28.8059 79.216 28.8059 79.1736 28.8059C78.9193 28.8059 78.7922 28.9334 78.7498 29.1033C78.665 28.9759 78.665 28.8059 78.6226 28.7209C78.4955 28.2961 78.4531 27.7438 78.0292 27.4463C77.3935 27.0215 76.6306 27.4888 76.122 27.9137C75.3591 28.5085 73.7485 28.4235 73.0703 27.7862C72.6041 27.4039 72.0955 26.809 71.4597 26.7666C71.2054 26.7666 70.7816 26.7666 70.612 27.0215C70.5273 27.1489 70.1882 27.8287 70.1034 27.8287C69.722 27.8287 69.2981 27.9137 69.0014 27.7013C68.4504 27.2339 68.1114 26.5966 68.069 25.9168C68.0266 25.3645 67.2637 25.237 67.1365 25.7894C66.7975 26.9365 66.2889 28.5935 64.9749 28.9334C63.2372 29.3582 62.559 26.6391 62.5167 25.407C62.5167 24.7697 61.5418 24.7697 61.5418 25.407C61.4994 26.809 60.8637 28.5935 59.1259 28.2961C57.8544 28.0836 56.922 26.4267 56.0743 25.5344C55.9047 25.3645 55.6928 25.3645 55.4809 25.4495C54.6756 25.8319 54.3789 26.8515 53.9975 27.5738C53.7008 28.0836 53.2345 28.551 52.7683 28.8909C52.3445 29.1883 51.412 29.4007 50.9882 28.9759C50.6491 28.636 50.3948 27.9137 50.2677 27.1065C51.073 26.2992 51.5816 25.237 51.3696 24.0474C51.3273 23.7925 50.9882 23.6226 50.7763 23.7075C49.5895 24.1324 49.2081 25.407 49.2928 26.7241C48.2756 27.4888 46.7922 27.8712 45.7749 27.5738C44.5034 27.2339 44.8425 25.5769 45.012 24.6422C45.1816 23.835 45.4783 23.0702 46.0292 22.4754C46.3259 22.178 46.665 22.093 47.0465 21.9231C47.1736 21.8806 47.3008 21.8806 47.4279 21.8381C47.4703 21.8381 47.4703 21.8381 47.4703 21.8381C47.4279 21.8381 47.3855 21.8806 47.3432 21.9656C47.0041 22.4754 47.8518 22.9853 48.1908 22.4754C48.6994 21.6682 48.4028 20.9459 47.4279 20.9034C46.5379 20.8609 45.563 21.4982 45.0544 22.178C44.3763 23.0702 44.122 24.2174 43.9524 25.322C43.8253 26.2142 43.8677 27.1065 44.4187 27.8287C43.4438 28.8484 42.8504 30.038 42.2994 31.3126C41.7908 30.123 40.5617 29.3158 39.2478 29.1883C39.3326 28.5935 38.5273 28.3386 38.3153 28.8484C38.273 28.8484 38.2306 28.8484 38.1882 28.8484C37.9763 28.8059 37.7643 28.8059 37.5524 28.8059C37.1286 28.7634 36.7895 28.7634 36.4928 28.6785ZM76.1643 11.0465C76.0796 11.2165 75.9948 11.3439 75.91 11.4714C75.9524 11.3439 76.0372 11.2165 76.1643 11.0465ZM37.4253 36.1561C36.4504 35.6038 36.2385 34.4141 36.2809 33.3945C36.3233 32.2898 36.7895 31.0152 37.7643 30.4204C38.9935 29.6556 40.9008 30.5479 41.2822 31.865C41.367 32.0774 41.5365 32.2048 41.7061 32.2048C41.5789 32.5447 41.4094 32.8846 41.2822 33.182C40.816 34.2017 40.4769 35.2214 40.2226 36.2411C39.3326 36.581 38.3153 36.6659 37.4253 36.1561ZM46.1564 47.9674C42.8928 46.0555 40.7736 42.8265 40.816 39.0027C40.816 38.2804 40.9008 37.6006 41.0703 36.9209C41.3246 36.7934 41.5789 36.6234 41.7908 36.496C42.2571 36.1561 41.8756 35.4338 41.4094 35.6038C41.6637 34.8815 41.918 34.1167 42.2571 33.437C43.0624 31.695 43.6557 29.8681 45.012 28.466C46.1564 29.0183 47.7246 28.5935 48.7418 28.0836C48.9114 27.9987 49.0809 27.9137 49.2504 27.7862C49.3776 28.4235 49.6319 28.9759 49.8862 29.4007C50.6067 30.5054 52.2597 30.2929 53.2345 29.6556C53.7855 29.2733 54.2518 28.6785 54.6332 28.1261C54.9299 27.7013 55.0994 26.979 55.4809 26.5541C56.6253 27.8287 57.7273 29.4857 59.6345 29.2733C60.6941 29.1458 61.3723 28.5085 61.7961 27.7013C62.2624 28.8909 63.1524 29.8681 64.5511 29.9531C65.9922 29.9955 66.8398 28.7634 67.3908 27.4888C67.6451 27.9562 68.0266 28.3386 68.4504 28.6785C69.0438 29.1033 70.2306 29.0183 70.7392 28.466C71.0359 28.1686 70.9511 27.6163 71.5021 27.9137C71.9259 28.1261 72.2226 28.551 72.6041 28.8484C73.4518 29.4857 74.8081 29.4007 75.7829 29.1883C76.2067 29.1033 76.5458 28.7634 76.8849 28.5085C77.4359 28.1261 77.3935 28.636 77.5206 29.0608C77.6902 29.6556 78.0293 30.3354 78.7498 30.3354C79.0465 30.3354 79.3008 30.2505 79.5127 30.123C79.8518 30.4629 80.0637 31.1002 80.1908 31.4401C80.318 31.8225 80.4451 32.2048 80.5723 32.5872C80.4875 33.0121 80.5723 33.437 80.9114 33.8618C81.3776 35.5613 82.1405 37.1333 82.31 38.8752C82.0134 39.0027 81.8438 39.5125 82.2253 39.7675C82.2677 39.7675 82.2677 39.8099 82.31 39.8099C82.31 39.8949 82.31 39.9374 82.31 40.0224C82.1405 42.0617 80.4028 43.8037 78.9193 45.0358C77.3087 46.3529 75.4438 47.3726 73.5365 48.2223C71.3749 49.1995 69.0014 49.7943 66.6703 50.1767C64.212 50.6015 61.8385 51.2813 59.3379 51.1963C54.8875 50.8989 50.0134 50.1767 46.1564 47.9674ZM67.1789 52.5984C67.1789 53.4057 67.1365 54.2129 67.0518 54.9776C66.0769 54.4678 65.2716 53.8305 64.3816 53.1932C63.661 52.6834 62.9829 52.0886 62.1352 51.8761C63.2796 51.7062 64.3816 51.4088 65.4836 51.1963C66.1193 51.0689 66.7975 50.9414 67.4332 50.814C67.4332 51.0689 67.4332 51.3238 67.2637 51.5362C67.0941 51.8336 67.1789 52.3435 67.1789 52.5984ZM56.4981 51.8336C57.1339 51.8761 57.812 51.9611 58.4478 52.0036C59.2531 52.0461 60.0584 52.0886 60.8637 52.0461C60.2703 52.3435 59.8041 52.9383 59.3802 53.5331C58.6597 54.5953 57.6425 55.6149 56.3286 55.7424C56.371 54.6378 56.4981 53.5331 56.5405 52.4285C56.5405 52.386 56.5405 52.386 56.5405 52.3435V52.0886C56.5405 51.9611 56.5405 51.9186 56.4981 51.8336ZM49.5895 60.5009C49.5047 61.0532 49.42 61.6056 49.3352 62.1154C48.869 61.818 48.5299 61.3506 48.2332 60.9258C47.8518 60.3734 47.3432 59.9911 46.8769 59.5237C46.4531 59.0989 46.0716 58.6315 45.6478 58.2066C45.4359 57.9942 44.9696 57.6968 45.0544 57.3569C45.1392 57.0595 45.4783 56.7196 45.6478 56.4647C46.4531 55.36 47.3008 54.3404 48.2756 53.4481C48.7418 53.0233 49.2081 52.6409 49.6319 52.216C50.0134 51.7912 50.3948 51.3238 50.9458 51.0689C50.9882 51.0264 51.0306 51.0264 51.073 50.9839C51.2425 51.0264 51.412 51.0689 51.5816 51.1114C51.1577 51.8336 50.9458 52.8533 50.7763 53.4481C50.4796 54.5103 50.3524 55.6999 50.1829 56.8046C50.0134 57.9942 49.8014 59.2688 49.5895 60.5009ZM50.0134 68.3184C50.0134 66.1091 50.0134 63.8998 50.3948 61.6905C50.7763 59.5237 51.1153 57.3144 51.4968 55.1476C51.624 54.3828 51.7935 53.6181 52.0054 52.8958C52.1326 52.5134 52.3445 51.4088 52.8107 51.3238C53.7855 51.4938 54.718 51.6637 55.6928 51.7487C55.6081 51.8336 55.5657 51.9186 55.5657 52.0461C55.5657 53.4056 55.3538 54.8077 55.3114 56.1673C55.3114 56.4647 55.5233 56.6346 55.7776 56.6346C57.0067 56.7621 58.0663 56.1673 58.9988 55.36C59.8041 54.6802 60.4398 52.8108 61.5842 52.7259C62.6438 52.8108 63.6187 53.8305 64.424 54.4253C65.314 55.1051 66.2465 55.6574 67.2637 56.1248C67.4756 56.2098 67.8147 56.0398 67.8571 55.7849C68.0266 54.8077 68.1114 53.8305 68.1114 52.8108C68.1114 52.4709 68.069 52.0886 68.1961 51.7487C68.3233 51.4513 68.3657 51.1114 68.3657 50.7715C68.3657 50.6865 68.3657 50.644 68.3233 50.559C69.0014 50.4316 69.6796 50.2616 70.3577 50.0917C70.5273 51.3663 71.0783 52.5984 71.5445 53.788C71.8836 54.6378 72.0531 55.615 72.265 56.5072C72.5193 57.5268 72.7736 58.5465 73.0279 59.5237C73.5789 61.5631 73.8756 63.475 73.918 65.5993C73.918 66.534 73.9604 67.5112 73.8332 68.4459C73.7908 68.7858 73.7485 69.0832 73.7061 69.4231C73.6637 69.3381 73.6637 69.2531 73.6213 69.1682C73.367 68.6158 72.5193 69.0832 72.7736 69.678C72.816 69.763 72.8584 69.8055 72.8584 69.8904C71.0359 69.8904 69.2557 70.1454 67.4756 70.4428C65.3988 70.7827 63.322 71.0376 61.2451 71.3775C59.2107 71.7174 57.1763 71.8023 55.1418 71.8448C53.7855 71.8448 52.3445 72.0997 51.0306 71.7598C50.3524 71.5899 50.2253 71.0801 50.2253 70.4428C50.2253 69.8055 50.0134 69.0832 50.0134 68.3184ZM74.7233 76.5184C74.8504 77.4531 75.0624 78.7277 74.6809 79.6199C74.3418 80.3846 73.4094 80.5121 72.6889 80.5546C71.9683 80.5971 71.2478 80.5121 70.5696 80.4696C69.8067 80.4271 69.0438 80.5121 68.2809 80.2997C66.5432 79.8748 67.0094 77.4531 66.0345 76.3909C64.9326 75.2013 63.0677 75.5412 61.6266 75.5412C59.7617 75.5412 58.5326 76.4759 57.473 78.0054C57.0067 78.6852 56.4557 80.0447 55.6081 80.2997C54.718 80.5546 53.5312 79.9598 52.7259 79.7048C52.6836 79.7048 52.6412 79.7048 52.6412 79.6624C52.514 79.4074 52.1749 79.3225 51.9206 79.4499C51.2001 79.2375 50.4796 78.9826 49.7167 78.7701C49.3776 78.6852 49.0385 78.6002 48.7418 78.4303C48.2756 78.1753 48.6994 77.4531 48.869 77.1557C49.42 76.0085 50.0134 74.8614 50.5643 73.7567C50.861 73.8417 51.2425 73.7142 51.2001 73.3319C51.2001 73.1194 51.1577 72.9495 51.073 72.822C51.8783 73.0344 52.8531 72.9495 53.5736 72.907C55.5233 72.822 57.473 72.822 59.4226 72.6096C60.5246 72.4821 61.5842 72.3122 62.6438 72.1422C63.8306 71.9298 65.0597 71.8448 66.2465 71.6749C68.7047 71.25 71.163 70.7827 73.6637 70.9101C73.7908 70.9101 73.918 70.8676 73.9604 70.7827C74.1723 71.5049 74.2994 72.2272 74.3418 72.992C74.5114 74.2666 74.5961 75.3712 74.7233 76.5184ZM74.2994 60.4584C74.2571 60.2885 74.2147 60.161 74.1723 59.9911C73.6213 58.0792 73.1975 56.1248 72.6889 54.2129C72.3498 52.9808 71.714 51.8336 71.4597 50.6015C72.0531 51.5787 73.1975 52.1735 74.1299 52.7259C75.0624 53.2357 75.8253 53.9155 76.673 54.5528C77.4783 55.1901 78.2836 55.7849 79.0889 56.4222C77.6478 57.9942 76.2915 59.7786 74.2994 60.4584Z" fill="black"/>
<path d="M58.4481 36.1136C58.4481 35.9011 58.2785 35.7312 58.0666 35.7312C57.8971 35.7312 57.7699 35.7737 57.6428 35.8587C57.5156 35.9861 57.5156 36.1561 57.5156 36.2835C57.5156 36.496 57.6852 36.6659 57.8971 36.6659C58.0666 36.6659 58.1938 36.5809 58.2362 36.4535C58.3209 36.411 58.4481 36.241 58.4481 36.1136Z" fill="black"/>
<path d="M61.3297 34.1592C61.1178 34.1592 60.9482 34.3291 60.9482 34.5416V34.754C60.9482 34.9664 61.1178 35.1364 61.3297 35.1364C61.5416 35.1364 61.7112 34.9664 61.7112 34.754V34.5416C61.7112 34.3291 61.5416 34.1592 61.3297 34.1592Z" fill="black"/>
<path d="M61.5416 37.6431C61.033 37.6431 61.033 38.4078 61.5416 38.4078C62.0078 38.4503 62.0078 37.6431 61.5416 37.6431Z" fill="black"/>
<path d="M65.0168 35.9011C64.8473 35.9011 64.7201 35.9861 64.6777 36.1136C64.5506 36.156 64.4658 36.326 64.4658 36.4534C64.4658 36.6659 64.6354 36.8358 64.8473 36.8358C65.0168 36.8358 65.144 36.7933 65.2711 36.7084C65.3983 36.5809 65.3983 36.411 65.3983 36.2835C65.3983 36.0711 65.2287 35.9011 65.0168 35.9011Z" fill="black"/>
<path d="M68.3229 34.1592C68.1109 34.1592 67.9414 34.3291 67.9414 34.5416V34.754C67.9414 34.9664 68.1109 35.1364 68.3229 35.1364C68.5348 35.1364 68.7043 34.9664 68.7043 34.754V34.5416C68.7043 34.3291 68.5348 34.1592 68.3229 34.1592Z" fill="black"/>
<path d="M74.85 36.071C74.5109 35.5612 73.6632 36.0286 74.0023 36.5809C74.6381 37.4731 74.0023 38.7902 73.5785 39.6399C73.0699 40.7021 72.3069 41.5518 71.4593 42.3166C69.2553 44.3134 66.5003 45.3331 63.5758 45.3331C59.1679 45.2906 53.9122 43.7611 52.3864 39.1301C52.1745 38.5353 51.242 38.7902 51.454 39.385C53.2341 44.6958 59.1255 46.3528 64.1692 46.3103C67.4328 46.2678 70.3997 44.7383 72.6884 42.4865C73.5785 41.6368 74.2566 40.6171 74.7228 39.47C75.1891 38.4078 75.5705 37.0482 74.85 36.071Z" fill="black"/>
<path d="M53.4894 33.6069C53.447 33.5219 53.4046 33.437 53.4046 33.3095C53.4046 32.9696 53.2351 32.7572 53.0232 32.5447C52.6417 32.1624 52.0907 32.5872 52.2179 33.0121C52.2179 33.0546 52.2179 33.0971 52.2179 33.1395C52.2179 33.437 52.3026 33.6069 52.4722 33.7344C52.4722 33.7768 52.5146 33.8193 52.5146 33.8618C52.5993 34.0743 52.6841 34.2867 52.8536 34.4566C53.1079 34.754 53.7013 34.5416 53.7013 34.1167C53.6165 33.9043 53.5742 33.7768 53.4894 33.6069Z" fill="black"/>
<path d="M74.1717 32.0349C74.1293 31.9075 74.0869 31.8225 74.0022 31.78C73.9598 31.6951 73.875 31.6526 73.8326 31.5676C73.536 31.2702 73.0273 31.4826 73.0273 31.9075V32.1624C73.0273 32.3748 73.1545 32.5448 73.324 32.5873C73.3664 32.7997 73.4936 33.0121 73.6631 33.2246C73.9598 33.522 74.5108 33.3095 74.4684 32.8847C74.426 32.5873 74.3412 32.2899 74.1717 32.0349Z" fill="black"/>
</g>
<defs>
<filter id="filter0_d" x="28" y="0" width="72" height="103" filterUnits="userSpaceOnUse" color-interpolation-filters="sRGB">
<feFlood flood-opacity="0" result="BackgroundImageFix"/>
<feColorMatrix in="SourceAlpha" type="matrix" values="0 0 0 0 0 0 0 0 0 0 0 0 0 0 0 0 0 0 127 0"/>
<feOffset dy="4"/>
<feGaussianBlur stdDeviation="2"/>
<feColorMatrix type="matrix" values="0 0 0 0 0 0 0 0 0 0 0 0 0 0 0 0 0 0 0.1 0"/>
<feBlend mode="normal" in2="BackgroundImageFix" result="effect1_dropShadow"/>
<feBlend mode="normal" in="SourceGraphic" in2="effect1_dropShadow" result="shape"/>
</filter>
<clipPath id="clip0">
<rect width="64" height="95" fill="white" transform="translate(32)"/>
</clipPath>
</defs>
</svg>
